<?xml version="1.0" encoding="UTF-8" standalone="no"?>
<!DOCTYPE svg PUBLIC "-//W3C//DTD SVG 1.1//EN" "http://www.w3.org/Graphics/SVG/1.1/DTD/svg11.dtd">
<svg width="100%" height="100%" viewBox="0 0 96 96" version="1.1" xmlns="http://www.w3.org/2000/svg" xmlns:xlink="http://www.w3.org/1999/xlink" xml:space="preserve" xmlns:serif="http://www.serif.com/" style="fill-rule:evenodd;clip-rule:evenodd;stroke-linejoin:round;stroke-miterlimit:2;">
    <g transform="matrix(1,0,0,1,0,-96)">
        <g id="af" transform="matrix(0.631579,0,0,0.724352,-281.684,9.80412)">
            <g opacity="0.85">
                <rect x="446" y="118.997" width="152" height="132.532" style="fill:none;"/>
                <g id="af1" serif:id="af" transform="matrix(2.37513,0,0,2.07093,426.982,-40.571)">
                    <g id="affinity" transform="matrix(0.0480002,0,0,0.0480002,17.0053,86.0475)">
                        <path d="M1000,970.465C999.781,986.585 986.819,999.652 970.741,1000.04L506.208,1000.04L315.709,670.081L1000,670.081L1000,970.465ZM591.144,0.05L223.648,636.575L433.495,1000.04L29.268,1000.04C13.087,999.649 0.063,986.417 0.006,970.158L0.006,777.485L448.858,0.05L591.144,0.05ZM410.005,0.05L30.005,0.05C13.449,0.05 0.006,13.493 0.006,30.05L0.006,710.19L410.005,0.05ZM349.415,544.681L349.15,545.14L348.813,545.755L348.252,546.829L347.871,547.61L347.651,548.079L347.095,549.339L346.833,549.974L346.644,550.452L346.342,551.253L346.057,552.063L345.842,552.708L345.637,553.362L345.398,554.173L345.089,555.325L344.852,556.321L344.639,557.317L344.422,558.479L344.313,559.144L344.169,560.149L344.069,560.989L344,561.663L343.931,562.503L343.869,563.519L343.832,564.534L343.821,565.374L343.828,566.39L343.862,567.405L343.908,568.245L344,569.427L344.107,570.433L344.262,571.604L344.422,572.61L344.574,573.44L344.815,574.602L344.967,575.267L345.261,576.419L345.491,577.239L345.79,578.216L346.057,579.026L346.401,579.993L346.706,580.794L346.962,581.429L347.298,582.22L347.724,583.167L347.947,583.636L348.408,584.563L348.813,585.335L349.065,585.794L349.407,586.399L349.942,587.298L350.495,588.177L350.874,588.753L351.362,589.466L352.065,590.432L352.274,590.716L352.693,591.253L353.118,591.79L353.441,592.18L353.77,592.571L354.104,592.952L354.901,593.841L355.365,594.329L355.956,594.934L356.44,595.403L356.564,595.53L357.054,595.989L357.675,596.555L357.93,596.78L358.569,597.327L359.219,597.864L360.018,598.489L360.685,598.987L361.234,599.387L362.065,599.964L363.333,600.784L363.617,600.96L364.49,601.477L364.927,601.721L365.512,602.044L366.113,602.366L366.711,602.669L367.165,602.893L367.923,603.245L368.694,603.596L369.79,604.055L370.254,604.231L370.728,604.417L371.367,604.651L371.848,604.817L373.461,605.335L374.279,605.569L374.776,605.696L375.1,605.784L375.76,605.95L376.099,606.028L376.432,606.096L376.766,606.175L377.095,606.243L378.108,606.428L378.958,606.575L379.466,606.653L380.493,606.78L380.833,606.829L381.872,606.927L382.209,606.956L382.561,606.975L383.6,607.044L384.475,607.073L384.824,607.073L384.996,607.083L536.622,607.083L425.004,413.754L349.415,544.681ZM663.856,0.05L461.36,350.785L609.335,607.083L1000,607.083L1000,29.634C999.777,13.268 986.421,0.05 970.003,0.05L663.856,0.05Z"/>
                    </g>
                    <g id="affinity1" serif:id="affinity" transform="matrix(0.0480002,0,0,0.0480002,15.0053,84.0475)">
                        <path d="M1000,970.465C999.781,986.585 986.819,999.652 970.741,1000.04L506.208,1000.04L315.709,670.081L1000,670.081L1000,970.465ZM591.144,0.05L223.648,636.575L433.495,1000.04L29.268,1000.04C13.087,999.649 0.063,986.417 0.006,970.158L0.006,777.485L448.858,0.05L591.144,0.05ZM410.005,0.05L30.005,0.05C13.449,0.05 0.006,13.493 0.006,30.05L0.006,710.19L410.005,0.05ZM349.415,544.681L349.15,545.14L348.813,545.755L348.252,546.829L347.871,547.61L347.651,548.079L347.095,549.339L346.833,549.974L346.644,550.452L346.342,551.253L346.057,552.063L345.842,552.708L345.637,553.362L345.398,554.173L345.089,555.325L344.852,556.321L344.639,557.317L344.422,558.479L344.313,559.144L344.169,560.149L344.069,560.989L344,561.663L343.931,562.503L343.869,563.519L343.832,564.534L343.821,565.374L343.828,566.39L343.862,567.405L343.908,568.245L344,569.427L344.107,570.433L344.262,571.604L344.422,572.61L344.574,573.44L344.815,574.602L344.967,575.267L345.261,576.419L345.491,577.239L345.79,578.216L346.057,579.026L346.401,579.993L346.706,580.794L346.962,581.429L347.298,582.22L347.724,583.167L347.947,583.636L348.408,584.563L348.813,585.335L349.065,585.794L349.407,586.399L349.942,587.298L350.495,588.177L350.874,588.753L351.362,589.466L352.065,590.432L352.274,590.716L352.693,591.253L353.118,591.79L353.441,592.18L353.77,592.571L354.104,592.952L354.901,593.841L355.365,594.329L355.956,594.934L356.44,595.403L356.564,595.53L357.054,595.989L357.675,596.555L357.93,596.78L358.569,597.327L359.219,597.864L360.018,598.489L360.685,598.987L361.234,599.387L362.065,599.964L363.333,600.784L363.617,600.96L364.49,601.477L364.927,601.721L365.512,602.044L366.113,602.366L366.711,602.669L367.165,602.893L367.923,603.245L368.694,603.596L369.79,604.055L370.254,604.231L370.728,604.417L371.367,604.651L371.848,604.817L373.461,605.335L374.279,605.569L374.776,605.696L375.1,605.784L375.76,605.95L376.099,606.028L376.432,606.096L376.766,606.175L377.095,606.243L378.108,606.428L378.958,606.575L379.466,606.653L380.493,606.78L380.833,606.829L381.872,606.927L382.209,606.956L382.561,606.975L383.6,607.044L384.475,607.073L384.824,607.073L384.996,607.083L536.622,607.083L425.004,413.754L349.415,544.681ZM663.856,0.05L461.36,350.785L609.335,607.083L1000,607.083L1000,29.634C999.777,13.268 986.421,0.05 970.003,0.05L663.856,0.05Z" style="fill:white;"/>
                    </g>
                </g>
            </g>
        </g>
    </g>
</svg>
