<?xml version="1.0" encoding="UTF-8" standalone="no"?>
<!DOCTYPE svg PUBLIC "-//W3C//DTD SVG 1.1//EN" "http://www.w3.org/Graphics/SVG/1.1/DTD/svg11.dtd">
<svg width="100%" height="100%" viewBox="0 0 48 48" version="1.1" xmlns="http://www.w3.org/2000/svg" xmlns:xlink="http://www.w3.org/1999/xlink" xml:space="preserve" xmlns:serif="http://www.serif.com/" style="fill-rule:evenodd;clip-rule:evenodd;stroke-linejoin:round;stroke-miterlimit:2;">
    <g transform="matrix(1,0,0,1,-916,-875)">
        <g transform="matrix(1,0,0,1,-473.623,207.978)">
            <g id="email" transform="matrix(1.10934,0,0,1.10934,1354.1,637.642)">
                <rect x="32.366" y="27.366" width="43.269" height="43.269" style="fill:none;"/>
                <g transform="matrix(0.901436,0,0,0.901436,-1220.63,-574.794)">
                    <g id="email1" serif:id="email" transform="matrix(0.6875,0,0,0.6875,500.336,252.048)">
                        <path d="M1351.92,639.169L1332.85,648.703C1332.27,648.997 1331.58,648.997 1330.99,648.703L1311.92,639.169L1311.92,654.84C1311.92,657.048 1313.71,658.84 1315.92,658.84L1347.92,658.84C1350.13,658.84 1351.92,657.048 1351.92,654.84L1351.92,639.169ZM1311.92,634.511L1331.92,644.511L1351.92,634.511L1351.92,630.84C1351.92,628.632 1350.13,626.84 1347.92,626.84L1315.92,626.84C1313.71,626.84 1311.92,628.632 1311.92,630.84L1311.92,634.511Z"/>
                    </g>
                    <g id="email2" serif:id="email" transform="matrix(0.6875,0,0,0.6875,498.305,250.048)">
                        <path d="M1351.92,639.169L1332.85,648.703C1332.27,648.997 1331.58,648.997 1330.99,648.703L1311.92,639.169L1311.92,654.84C1311.92,657.048 1313.71,658.84 1315.92,658.84L1347.92,658.84C1350.13,658.84 1351.92,657.048 1351.92,654.84L1351.92,639.169ZM1311.92,634.511L1331.92,644.511L1351.92,634.511L1351.92,630.84C1351.92,628.632 1350.13,626.84 1347.92,626.84L1315.92,626.84C1313.71,626.84 1311.92,628.632 1311.92,630.84L1311.92,634.511Z" style="fill:white;"/>
                    </g>
                </g>
            </g>
        </g>
    </g>
</svg>
