<?xml version="1.0" encoding="UTF-8" standalone="no"?>
<!DOCTYPE svg PUBLIC "-//W3C//DTD SVG 1.1//EN" "http://www.w3.org/Graphics/SVG/1.1/DTD/svg11.dtd">
<svg width="100%" height="100%" viewBox="0 0 48 48" version="1.1" xmlns="http://www.w3.org/2000/svg" xmlns:xlink="http://www.w3.org/1999/xlink" xml:space="preserve" xmlns:serif="http://www.serif.com/" style="fill-rule:evenodd;clip-rule:evenodd;stroke-linejoin:round;stroke-miterlimit:2;">
    <g transform="matrix(1,0,0,1,-1084,-875)">
        <g transform="matrix(1,0,0,1,-473.623,207.978)">
            <g id="kofi" transform="matrix(1.10934,0,0,1.10934,1522.1,637.642)">
                <rect x="32.366" y="27.366" width="43.269" height="43.269" style="fill:none;"/>
                <g transform="matrix(0.901436,0,0,0.901436,-1372.07,-574.794)">
                    <g id="kofi1" serif:id="kofi" transform="matrix(0.74537,0,0,0.74537,553.438,168.833)">
                        <path d="M1362.52,689.143L1397.06,689.143C1403.1,689.143 1408,694.04 1408,700.08L1408,700.723C1408,706.763 1403.1,711.66 1397.06,711.66L1393.93,711.66L1393.93,714.952C1393.93,717.74 1391.67,720 1388.88,720L1365.05,720C1362.26,720 1360,717.74 1360,714.952L1360,691.667C1360,690.273 1361.13,689.143 1362.52,689.143ZM1376.29,714C1380.92,710.372 1384.02,707.353 1385.53,705C1387.83,701.442 1386.2,696 1381.83,696C1378.91,696 1377.07,697.141 1376.29,699.422C1375.51,697.141 1373.66,696 1370.74,696C1366.37,696 1364.75,701.442 1367.04,705C1368.57,707.372 1371.65,710.372 1376.29,714ZM1393.93,694.981L1393.93,705.822L1396.79,705.822C1399.78,705.822 1402.21,703.395 1402.21,700.402C1402.21,697.408 1399.78,694.981 1396.79,694.981L1393.93,694.981Z" style="fill-rule:nonzero;"/>
                    </g>
                    <g id="kofi2" serif:id="kofi" transform="matrix(0.74537,0,0,0.74537,551.407,166.833)">
                        <path d="M1362.52,689.143L1397.06,689.143C1403.1,689.143 1408,694.04 1408,700.08L1408,700.723C1408,706.763 1403.1,711.66 1397.06,711.66L1393.93,711.66L1393.93,714.952C1393.93,717.74 1391.67,720 1388.88,720L1365.05,720C1362.26,720 1360,717.74 1360,714.952L1360,691.667C1360,690.273 1361.13,689.143 1362.52,689.143ZM1376.29,714C1380.92,710.372 1384.02,707.353 1385.53,705C1387.83,701.442 1386.2,696 1381.83,696C1378.91,696 1377.07,697.141 1376.29,699.422C1375.51,697.141 1373.66,696 1370.74,696C1366.37,696 1364.75,701.442 1367.04,705C1368.57,707.372 1371.65,710.372 1376.29,714ZM1393.93,694.981L1393.93,705.822L1396.79,705.822C1399.78,705.822 1402.21,703.395 1402.21,700.402C1402.21,697.408 1399.78,694.981 1396.79,694.981L1393.93,694.981Z" style="fill:white;fill-rule:nonzero;"/>
                    </g>
                </g>
            </g>
        </g>
    </g>
</svg>
