<?xml version="1.0" encoding="UTF-8" standalone="no"?>
<!DOCTYPE svg PUBLIC "-//W3C//DTD SVG 1.1//EN" "http://www.w3.org/Graphics/SVG/1.1/DTD/svg11.dtd">
<svg width="100%" height="100%" viewBox="0 0 48 48" version="1.1" xmlns="http://www.w3.org/2000/svg" xmlns:xlink="http://www.w3.org/1999/xlink" xml:space="preserve" xmlns:serif="http://www.serif.com/" style="fill-rule:evenodd;clip-rule:evenodd;stroke-linejoin:round;stroke-miterlimit:2;">
    <g transform="matrix(1,0,0,1,-1058,-916)">
        <g id="menu" transform="matrix(1.10934,0,0,1.10934,1022.1,885.642)">
            <rect x="32.366" y="27.366" width="43.269" height="43.269" style="fill:none;"/>
            <g transform="matrix(0.901436,0,0,0.901436,-919.551,-796.547)">
                <g transform="matrix(0.873091,0,0,0.6,141.031,373.2)">
                    <rect x="1064" y="928" width="27.489" height="5"/>
                </g>
                <g transform="matrix(0.873091,0,0,0.6,141.031,381.7)">
                    <rect x="1064" y="928" width="27.489" height="5"/>
                </g>
                <g transform="matrix(0.873091,0,0,0.6,141.031,390.2)">
                    <rect x="1064" y="928" width="27.489" height="5"/>
                </g>
            </g>
            <g transform="matrix(0.901436,0,0,0.901436,-921.354,-798.35)">
                <g transform="matrix(0.873091,0,0,0.6,141.031,373.2)">
                    <rect x="1064" y="928" width="27.489" height="5" style="fill:white;"/>
                </g>
                <g transform="matrix(0.873091,0,0,0.6,141.031,381.7)">
                    <rect x="1064" y="928" width="27.489" height="5" style="fill:white;"/>
                </g>
                <g transform="matrix(0.873091,0,0,0.6,141.031,390.2)">
                    <rect x="1064" y="928" width="27.489" height="5" style="fill:white;"/>
                </g>
            </g>
        </g>
    </g>
</svg>
