<?xml version="1.0" encoding="UTF-8" standalone="no"?>
<!DOCTYPE svg PUBLIC "-//W3C//DTD SVG 1.1//EN" "http://www.w3.org/Graphics/SVG/1.1/DTD/svg11.dtd">
<svg width="100%" height="100%" viewBox="0 0 96 96" version="1.1" xmlns="http://www.w3.org/2000/svg" xmlns:xlink="http://www.w3.org/1999/xlink" xml:space="preserve" xmlns:serif="http://www.serif.com/" style="fill-rule:evenodd;clip-rule:evenodd;stroke-linejoin:round;stroke-miterlimit:2;">
    <g transform="matrix(1,0,0,1,0,-192)">
        <g id="pr" transform="matrix(0.631579,0,0,0.724352,-281.684,105.804)">
            <g opacity="0.85">
                <rect x="446" y="118.997" width="152" height="132.532" style="fill:none;"/>
                <g id="pr1" serif:id="pr" transform="matrix(2.37513,0,0,2.07093,426.982,-174.662)">
                    <g transform="matrix(0.2,0,0,0.2,-35.3945,143.4)">
                        <path d="M502,75.5C502,52.044 482.956,33 459.5,33L304.5,33C281.044,33 262,52.044 262,75.5L262,224.5C262,247.956 281.044,267 304.5,267L459.5,267C482.956,267 502,247.956 502,224.5L502,75.5ZM408.6,118.2L426.1,118.2C427.1,118.2 427.9,118.9 428.2,119.8C428.5,120.6 428.7,121.4 428.8,122.3C429,123.3 429.2,124.4 429.3,125.4C429.4,126.5 429.5,127.7 429.5,129C432.5,125.5 436.1,122.6 440.2,120.4C444.8,117.8 450.1,116.5 455.4,116.5C456.1,116.4 456.7,116.9 456.8,117.6L456.8,137.5C456.8,138.3 456.3,138.6 455.2,138.6C451.6,138.5 447.9,138.8 444.4,139.6C441.5,140.2 438.7,141.1 436,142.3C434.1,143.2 432.3,144.4 430.9,146L430.9,197C430.9,198 430.5,198.4 429.6,198.4L409.9,198.4C409.1,198.5 408.4,198 408.3,197.2L408.3,141.4C408.3,139 408.3,136.5 408.2,133.9C408.1,131.3 408.1,128.7 408,126.1C408,123.8 407.8,121.6 407.6,119.3C407.5,118.8 407.8,118.3 408.3,118.2C408.3,118.1 408.5,118.1 408.6,118.2ZM319,197.1L319,94.2C319,93.5 319.3,93.1 320,93.1C321.7,93.1 323.3,93.1 325.6,93C328,92.9 330.5,92.9 333.2,92.8C335.9,92.7 338.8,92.7 341.9,92.6C345,92.5 348,92.5 351,92.5C359.2,92.5 366,93.5 371.6,95.6C376.6,97.3 381.2,100.1 385,103.8C388.2,107 390.7,110.9 392.3,115.2C393.8,119.4 394.6,123.7 394.6,128.2C394.6,136.8 392.6,143.9 388.6,149.5C384.6,155.1 379,159.3 372.5,161.7C365.7,164.2 358.2,165.1 350,165.1C347.6,165.1 346,165.1 345,165C344,164.9 342.6,164.9 340.7,164.9L340.7,197C340.8,197.7 340.3,198.3 339.6,198.4L320.2,198.4C319.4,198.4 319,198 319,197.1ZM340.8,112.4L340.8,146C342.2,146.1 343.5,146.2 344.7,146.2L350,146.2C353.9,146.2 357.8,145.6 361.5,144.4C364.7,143.5 367.5,141.6 369.7,139.1C371.8,136.6 372.8,133.2 372.8,128.8C372.9,125.7 372.1,122.6 370.5,119.9C368.8,117.3 366.4,115.3 363.5,114.2C359.8,112.7 355.8,112.1 351.7,112.2C349.1,112.2 346.8,112.2 344.9,112.3C342.9,112.2 341.5,112.3 340.8,112.4Z"/>
                    </g>
                    <g transform="matrix(0.2,0,0,0.2,-37.3945,141.4)">
                        <path d="M502,75.5C502,52.044 482.956,33 459.5,33L304.5,33C281.044,33 262,52.044 262,75.5L262,224.5C262,247.956 281.044,267 304.5,267L459.5,267C482.956,267 502,247.956 502,224.5L502,75.5ZM408.6,118.2L426.1,118.2C427.1,118.2 427.9,118.9 428.2,119.8C428.5,120.6 428.7,121.4 428.8,122.3C429,123.3 429.2,124.4 429.3,125.4C429.4,126.5 429.5,127.7 429.5,129C432.5,125.5 436.1,122.6 440.2,120.4C444.8,117.8 450.1,116.5 455.4,116.5C456.1,116.4 456.7,116.9 456.8,117.6L456.8,137.5C456.8,138.3 456.3,138.6 455.2,138.6C451.6,138.5 447.9,138.8 444.4,139.6C441.5,140.2 438.7,141.1 436,142.3C434.1,143.2 432.3,144.4 430.9,146L430.9,197C430.9,198 430.5,198.4 429.6,198.4L409.9,198.4C409.1,198.5 408.4,198 408.3,197.2L408.3,141.4C408.3,139 408.3,136.5 408.2,133.9C408.1,131.3 408.1,128.7 408,126.1C408,123.8 407.8,121.6 407.6,119.3C407.5,118.8 407.8,118.3 408.3,118.2C408.3,118.1 408.5,118.1 408.6,118.2ZM319,197.1L319,94.2C319,93.5 319.3,93.1 320,93.1C321.7,93.1 323.3,93.1 325.6,93C328,92.9 330.5,92.9 333.2,92.8C335.9,92.7 338.8,92.7 341.9,92.6C345,92.5 348,92.5 351,92.5C359.2,92.5 366,93.5 371.6,95.6C376.6,97.3 381.2,100.1 385,103.8C388.2,107 390.7,110.9 392.3,115.2C393.8,119.4 394.6,123.7 394.6,128.2C394.6,136.8 392.6,143.9 388.6,149.5C384.6,155.1 379,159.3 372.5,161.7C365.7,164.2 358.2,165.1 350,165.1C347.6,165.1 346,165.1 345,165C344,164.9 342.6,164.9 340.7,164.9L340.7,197C340.8,197.7 340.3,198.3 339.6,198.4L320.2,198.4C319.4,198.4 319,198 319,197.1ZM340.8,112.4L340.8,146C342.2,146.1 343.5,146.2 344.7,146.2L350,146.2C353.9,146.2 357.8,145.6 361.5,144.4C364.7,143.5 367.5,141.6 369.7,139.1C371.8,136.6 372.8,133.2 372.8,128.8C372.9,125.7 372.1,122.6 370.5,119.9C368.8,117.3 366.4,115.3 363.5,114.2C359.8,112.7 355.8,112.1 351.7,112.2C349.1,112.2 346.8,112.2 344.9,112.3C342.9,112.2 341.5,112.3 340.8,112.4Z" style="fill:white;"/>
                    </g>
                </g>
            </g>
        </g>
    </g>
</svg>
