<?xml version="1.0" encoding="UTF-8" standalone="no"?>
<!DOCTYPE svg PUBLIC "-//W3C//DTD SVG 1.1//EN" "http://www.w3.org/Graphics/SVG/1.1/DTD/svg11.dtd">
<svg width="100%" height="100%" viewBox="0 0 96 96" version="1.1" xmlns="http://www.w3.org/2000/svg" xmlns:xlink="http://www.w3.org/1999/xlink" xml:space="preserve" xmlns:serif="http://www.serif.com/" style="fill-rule:evenodd;clip-rule:evenodd;stroke-linejoin:round;stroke-miterlimit:2;">
    <g transform="matrix(1,0,0,1,-96,-96)">
        <g id="ps" transform="matrix(0.631579,0,0,0.724352,-185.684,9.80412)">
            <g opacity="0.85">
                <rect x="446" y="118.997" width="152" height="132.532" style="fill:none;"/>
                <g id="ps1" serif:id="ps" transform="matrix(2.37513,0,0,2.07093,272.612,-40.4678)">
                    <g transform="matrix(0.2,0,0,0.2,82,86.6)">
                        <path d="M240,42.5C240,19.044 220.956,0 197.5,0L42.5,0C19.044,0 0,19.044 0,42.5L0,191.5C0,214.956 19.044,234 42.5,234L197.5,234C220.956,234 240,214.956 240,191.5L240,42.5ZM191.971,106.863C188.945,105.308 185.723,104.171 182.392,103.482C178.721,102.64 174.968,102.208 171.202,102.194C169.165,102.139 167.131,102.383 165.164,102.918C163.913,103.197 162.801,103.91 162.025,104.931C161.5,105.747 161.221,106.697 161.22,107.668C161.25,108.609 161.589,109.515 162.186,110.244C163.126,111.344 164.276,112.247 165.567,112.9C167.862,114.137 170.228,115.239 172.651,116.201C178.054,118.01 183.217,120.47 188.026,123.526C191.302,125.594 194.013,128.443 195.915,131.818C197.515,135.013 198.316,138.549 198.25,142.122C198.346,146.839 196.998,151.475 194.386,155.404C191.59,159.393 187.705,162.496 183.196,164.34C178.311,166.486 172.274,167.559 165.084,167.56C160.517,167.606 155.957,167.174 151.479,166.272C147.952,165.625 144.518,164.543 141.256,163.052C140.539,162.682 140.098,161.926 140.129,161.12L140.129,143.732C140.089,143.385 140.245,143.044 140.532,142.846C140.814,142.687 141.168,142.719 141.417,142.927C145.269,145.198 149.452,146.855 153.814,147.837C157.659,148.801 161.603,149.314 165.567,149.367C169.323,149.367 172.087,148.884 173.858,147.918C175.49,147.171 176.534,145.526 176.515,143.732C176.515,142.338 175.71,140.997 174.1,139.707C172.49,138.419 169.216,136.862 164.279,135.038C159.224,133.278 154.43,130.841 150.03,127.793C146.883,125.604 144.292,122.709 142.463,119.34C140.88,116.168 140.08,112.662 140.129,109.117C140.12,104.857 141.29,100.677 143.51,97.042C146.04,93.039 149.675,89.851 153.975,87.865C158.697,85.505 164.6,84.325 171.685,84.323C175.834,84.29 179.98,84.586 184.082,85.208C187.053,85.585 189.957,86.371 192.713,87.543C193.156,87.67 193.514,87.998 193.679,88.428C193.787,88.822 193.842,89.228 193.84,89.636L193.84,105.897C193.862,106.281 193.678,106.65 193.357,106.863C192.921,107.08 192.407,107.08 191.971,106.863ZM54.042,164.095L54.042,61.216C54.042,60.467 54.364,60.089 55.008,60.089C56.723,60.089 58.29,60.064 60.652,60.009C63.012,59.956 65.561,59.902 68.299,59.848C71.037,59.795 73.935,59.741 76.994,59.687C80.052,59.634 83.084,59.607 86.09,59.606C94.246,59.606 101.115,60.626 106.698,62.665C111.734,64.369 116.327,67.174 120.142,70.876C123.375,74.085 125.875,77.958 127.467,82.227C128.973,86.381 129.736,90.768 129.721,95.187C129.721,103.776 127.736,110.86 123.764,116.439C119.767,122.041 114.146,126.285 107.664,128.595C100.902,131.118 93.388,131.974 85.124,131.974C82.762,131.974 81.098,131.947 80.133,131.893C79.167,131.84 77.718,131.813 75.786,131.813L75.786,163.934C75.795,163.994 75.799,164.055 75.799,164.115C75.799,164.818 75.221,165.396 74.518,165.396C74.458,165.396 74.397,165.392 74.337,165.383L55.169,165.383C54.417,165.383 54.042,164.956 54.042,164.095ZM75.786,79.409L75.786,112.964C77.18,113.072 78.468,113.126 79.65,113.125L84.963,113.125C88.872,113.112 92.756,112.492 96.475,111.287C99.664,110.34 102.515,108.495 104.686,105.974C106.778,103.507 107.825,100.072 107.825,95.67C107.91,92.556 107.1,89.482 105.49,86.815C103.799,84.236 101.353,82.24 98.487,81.1C94.745,79.645 90.747,78.961 86.734,79.087C84.158,79.087 81.877,79.114 79.892,79.168C77.904,79.223 76.536,79.304 75.786,79.409Z"/>
                    </g>
                    <g transform="matrix(0.2,0,0,0.2,80,84.6)">
                        <path d="M240,42.5C240,19.044 220.956,0 197.5,0L42.5,0C19.044,0 0,19.044 0,42.5L0,191.5C0,214.956 19.044,234 42.5,234L197.5,234C220.956,234 240,214.956 240,191.5L240,42.5ZM191.971,106.863C188.945,105.308 185.723,104.171 182.392,103.482C178.721,102.64 174.968,102.208 171.202,102.194C169.165,102.139 167.131,102.383 165.164,102.918C163.913,103.197 162.801,103.91 162.025,104.931C161.5,105.747 161.221,106.697 161.22,107.668C161.25,108.609 161.589,109.515 162.186,110.244C163.126,111.344 164.276,112.247 165.567,112.9C167.862,114.137 170.228,115.239 172.651,116.201C178.054,118.01 183.217,120.47 188.026,123.526C191.302,125.594 194.013,128.443 195.915,131.818C197.515,135.013 198.316,138.549 198.25,142.122C198.346,146.839 196.998,151.475 194.386,155.404C191.59,159.393 187.705,162.496 183.196,164.34C178.311,166.486 172.274,167.559 165.084,167.56C160.517,167.606 155.957,167.174 151.479,166.272C147.952,165.625 144.518,164.543 141.256,163.052C140.539,162.682 140.098,161.926 140.129,161.12L140.129,143.732C140.089,143.385 140.245,143.044 140.532,142.846C140.814,142.687 141.168,142.719 141.417,142.927C145.269,145.198 149.452,146.855 153.814,147.837C157.659,148.801 161.603,149.314 165.567,149.367C169.323,149.367 172.087,148.884 173.858,147.918C175.49,147.171 176.534,145.526 176.515,143.732C176.515,142.338 175.71,140.997 174.1,139.707C172.49,138.419 169.216,136.862 164.279,135.038C159.224,133.278 154.43,130.841 150.03,127.793C146.883,125.604 144.292,122.709 142.463,119.34C140.88,116.168 140.08,112.662 140.129,109.117C140.12,104.857 141.29,100.677 143.51,97.042C146.04,93.039 149.675,89.851 153.975,87.865C158.697,85.505 164.6,84.325 171.685,84.323C175.834,84.29 179.98,84.586 184.082,85.208C187.053,85.585 189.957,86.371 192.713,87.543C193.156,87.67 193.514,87.998 193.679,88.428C193.787,88.822 193.842,89.228 193.84,89.636L193.84,105.897C193.862,106.281 193.678,106.65 193.357,106.863C192.921,107.08 192.407,107.08 191.971,106.863ZM54.042,164.095L54.042,61.216C54.042,60.467 54.364,60.089 55.008,60.089C56.723,60.089 58.29,60.064 60.652,60.009C63.012,59.956 65.561,59.902 68.299,59.848C71.037,59.795 73.935,59.741 76.994,59.687C80.052,59.634 83.084,59.607 86.09,59.606C94.246,59.606 101.115,60.626 106.698,62.665C111.734,64.369 116.327,67.174 120.142,70.876C123.375,74.085 125.875,77.958 127.467,82.227C128.973,86.381 129.736,90.768 129.721,95.187C129.721,103.776 127.736,110.86 123.764,116.439C119.767,122.041 114.146,126.285 107.664,128.595C100.902,131.118 93.388,131.974 85.124,131.974C82.762,131.974 81.098,131.947 80.133,131.893C79.167,131.84 77.718,131.813 75.786,131.813L75.786,163.934C75.795,163.994 75.799,164.055 75.799,164.115C75.799,164.818 75.221,165.396 74.518,165.396C74.458,165.396 74.397,165.392 74.337,165.383L55.169,165.383C54.417,165.383 54.042,164.956 54.042,164.095ZM75.786,79.409L75.786,112.964C77.18,113.072 78.468,113.126 79.65,113.125L84.963,113.125C88.872,113.112 92.756,112.492 96.475,111.287C99.664,110.34 102.515,108.495 104.686,105.974C106.778,103.507 107.825,100.072 107.825,95.67C107.91,92.556 107.1,89.482 105.49,86.815C103.799,84.236 101.353,82.24 98.487,81.1C94.745,79.645 90.747,78.961 86.734,79.087C84.158,79.087 81.877,79.114 79.892,79.168C77.904,79.223 76.536,79.304 75.786,79.409Z" style="fill:white;"/>
                    </g>
                </g>
            </g>
        </g>
    </g>
</svg>
