<?xml version="1.0" encoding="UTF-8" standalone="no"?>
<!DOCTYPE svg PUBLIC "-//W3C//DTD SVG 1.1//EN" "http://www.w3.org/Graphics/SVG/1.1/DTD/svg11.dtd">
<svg width="100%" height="100%" viewBox="0 0 96 96" version="1.1" xmlns="http://www.w3.org/2000/svg" xmlns:xlink="http://www.w3.org/1999/xlink" xml:space="preserve" xmlns:serif="http://www.serif.com/" style="fill-rule:evenodd;clip-rule:evenodd;stroke-linejoin:round;stroke-miterlimit:2;">
    <g transform="matrix(1,0,0,1,-96,0)">
        <g id="un" transform="matrix(0.631579,0,0,0.724352,-185.684,-86.1959)">
            <g opacity="0.85">
                <rect x="446" y="118.997" width="152" height="132.532" style="fill:none;"/>
                <g id="un1" serif:id="un" transform="matrix(2.37513,0,0,2.07093,272.612,93.1197)">
                    <g id="unity" transform="matrix(0.56099,0,0,0.56099,82,17.7969)">
                        <path d="M46.525,17.652L61.822,26.484C62.374,26.79 62.388,27.658 61.819,27.965L43.637,38.462C43.088,38.778 42.436,38.757 41.923,38.461L23.743,27.965C23.189,27.661 23.172,26.789 23.743,26.482L39.037,17.652L39.037,0.362L0,22.901L0,67.978L0,67.772L0,67.978L14.973,59.334L14.973,41.67C14.963,41.037 15.707,40.592 16.257,40.932L34.438,51.429C34.988,51.747 35.294,52.322 35.294,52.914L35.294,73.906C35.309,74.535 34.568,74.986 34.018,74.651L18.717,65.817L3.743,74.462L42.781,97L81.819,74.462L66.845,65.817L51.549,74.648C51.007,74.974 50.248,74.552 50.268,73.906L50.268,52.912C50.268,52.277 50.613,51.724 51.125,51.428L69.305,40.932C69.846,40.603 70.61,41.025 70.589,41.673L70.589,59.334L85.563,67.978L85.563,22.901L46.525,0.362L46.525,17.652Z" style="fill-rule:nonzero;"/>
                    </g>
                    <g id="unity1" serif:id="unity" transform="matrix(0.56099,0,0,0.56099,80,15.7969)">
                        <path d="M46.525,17.652L61.822,26.484C62.374,26.79 62.388,27.658 61.819,27.965L43.637,38.462C43.088,38.778 42.436,38.757 41.923,38.461L23.743,27.965C23.189,27.661 23.172,26.789 23.743,26.482L39.037,17.652L39.037,0.362L0,22.901L0,67.978L0,67.772L0,67.978L14.973,59.334L14.973,41.67C14.963,41.037 15.707,40.592 16.257,40.932L34.438,51.429C34.988,51.747 35.294,52.322 35.294,52.914L35.294,73.906C35.309,74.535 34.568,74.986 34.018,74.651L18.717,65.817L3.743,74.462L42.781,97L81.819,74.462L66.845,65.817L51.549,74.648C51.007,74.974 50.248,74.552 50.268,73.906L50.268,52.912C50.268,52.277 50.613,51.724 51.125,51.428L69.305,40.932C69.846,40.603 70.61,41.025 70.589,41.673L70.589,59.334L85.563,67.978L85.563,22.901L46.525,0.362L46.525,17.652Z" style="fill:white;fill-rule:nonzero;"/>
                    </g>
                </g>
            </g>
        </g>
    </g>
</svg>
