<?xml version="1.0" encoding="UTF-8" standalone="no"?>
<!DOCTYPE svg PUBLIC "-//W3C//DTD SVG 1.1//EN" "http://www.w3.org/Graphics/SVG/1.1/DTD/svg11.dtd">
<svg width="100%" height="100%" viewBox="0 0 96 96" version="1.1" xmlns="http://www.w3.org/2000/svg" xmlns:xlink="http://www.w3.org/1999/xlink" xml:space="preserve" xmlns:serif="http://www.serif.com/" style="fill-rule:evenodd;clip-rule:evenodd;stroke-linejoin:round;stroke-miterlimit:2;">
    <g transform="matrix(1,0,0,1,-96,-192)">
        <g id="ae" transform="matrix(0.631579,0,0,0.724352,-185.684,105.804)">
            <g opacity="0.85">
                <rect x="446" y="118.997" width="152" height="132.532" style="fill:none;"/>
                <g id="ae1" serif:id="ae" transform="matrix(2.37513,0,0,2.07093,272.612,-171.765)">
                    <g transform="matrix(0.2,0,0,0.2,82,150)">
                        <path d="M240,42.5C240,19.044 220.956,0 197.5,0L42.5,0C19.044,0 0,19.044 0,42.5L0,191.5C0,214.956 19.044,234 42.5,234L197.5,234C220.956,234 240,214.956 240,191.5L240,42.5ZM187.381,130.833L155.664,130.833C156.052,133.971 157.095,136.993 158.723,139.704C160.523,142.388 163.07,144.487 166.048,145.741C170.085,147.488 174.451,148.344 178.848,148.25C182.337,148.183 185.812,147.801 189.232,147.11C192.291,146.697 195.289,145.915 198.161,144.782C198.696,144.355 198.966,144.622 198.966,145.588L198.966,160.883C198.992,161.299 198.909,161.716 198.724,162.09C198.54,162.383 198.292,162.63 198,162.814C194.815,164.225 191.463,165.224 188.025,165.786C183.355,166.663 178.608,167.068 173.857,166.993C166.234,166.993 159.848,165.813 154.698,163.451C149.829,161.307 145.529,158.054 142.14,153.952C138.975,150.088 136.62,145.625 135.217,140.831C133.827,136.099 133.123,131.192 133.124,126.26C133.109,120.875 133.952,115.522 135.62,110.402C137.226,105.407 139.766,100.763 143.106,96.717C146.4,92.718 150.519,89.477 155.181,87.218C159.903,84.911 165.485,84.083 171.925,84.083C177.265,83.948 182.571,84.993 187.461,87.142C191.574,88.896 195.195,91.631 198.007,95.107C200.645,98.51 202.661,102.353 203.964,106.457C205.232,110.413 205.884,114.54 205.896,118.693C205.896,121.055 205.815,123.202 205.654,125.133C205.494,127.065 205.36,128.461 205.252,129.319C205.166,130.051 204.539,130.608 203.803,130.607C203.159,130.607 202.059,130.688 200.502,130.849C198.945,131.01 197.013,131.117 194.707,131.171C192.397,131.226 189.957,130.833 187.381,130.833ZM96.415,140L59.224,140L51.657,163.551C51.445,164.432 50.629,165.044 49.725,165L30.888,165C29.813,165 29.438,164.41 29.761,163.229L61.961,70.876C62.283,69.91 62.605,68.966 62.927,67.731C63.348,65.583 63.564,63.399 63.571,61.211C63.564,61.164 63.561,61.117 63.561,61.07C63.561,60.523 64.011,60.073 64.557,60.073C64.604,60.073 64.651,60.077 64.698,60.083L90.297,60.083C91.046,60.083 91.476,60.352 91.585,60.889L128.132,163.39C128.454,164.464 128.132,165.001 127.166,165L106.236,165C105.496,165.082 104.802,164.597 104.626,163.873L96.415,140ZM65.02,120.142L90.458,120.142C89.814,117.997 89.062,115.582 88.204,112.897C87.343,110.216 86.431,107.344 85.467,104.284C84.501,101.225 83.535,98.166 82.569,95.107C81.603,92.048 80.717,89.096 79.912,86.252C79.107,83.409 78.383,80.806 77.739,78.443L77.578,78.443C76.672,82.792 75.543,87.091 74.197,91.323C72.692,96.153 71.163,101.091 69.608,106.135C68.051,111.182 66.522,115.851 65.02,120.142ZM155.664,116.167L176.755,116.167C179.331,116.167 181.236,116.14 182.47,116.086C183.296,116.004 184.094,115.739 184.805,115.312L184.805,114.346C184.773,113.087 184.556,111.839 184.161,110.643C182.381,105.015 177.019,101.242 171.12,101.466C165.594,101.132 160.368,104.109 157.837,109.033C156.735,111.279 156.001,113.688 155.664,116.167Z"/>
                    </g>
                    <g transform="matrix(0.2,0,0,0.2,80,148)">
                        <path d="M240,42.5C240,19.044 220.956,0 197.5,0L42.5,0C19.044,0 0,19.044 0,42.5L0,191.5C0,214.956 19.044,234 42.5,234L197.5,234C220.956,234 240,214.956 240,191.5L240,42.5ZM187.381,130.833L155.664,130.833C156.052,133.971 157.095,136.993 158.723,139.704C160.523,142.388 163.07,144.487 166.048,145.741C170.085,147.488 174.451,148.344 178.848,148.25C182.337,148.183 185.812,147.801 189.232,147.11C192.291,146.697 195.289,145.915 198.161,144.782C198.696,144.355 198.966,144.622 198.966,145.588L198.966,160.883C198.992,161.299 198.909,161.716 198.724,162.09C198.54,162.383 198.292,162.63 198,162.814C194.815,164.225 191.463,165.224 188.025,165.786C183.355,166.663 178.608,167.068 173.857,166.993C166.234,166.993 159.848,165.813 154.698,163.451C149.829,161.307 145.529,158.054 142.14,153.952C138.975,150.088 136.62,145.625 135.217,140.831C133.827,136.099 133.123,131.192 133.124,126.26C133.109,120.875 133.952,115.522 135.62,110.402C137.226,105.407 139.766,100.763 143.106,96.717C146.4,92.718 150.519,89.477 155.181,87.218C159.903,84.911 165.485,84.083 171.925,84.083C177.265,83.948 182.571,84.993 187.461,87.142C191.574,88.896 195.195,91.631 198.007,95.107C200.645,98.51 202.661,102.353 203.964,106.457C205.232,110.413 205.884,114.54 205.896,118.693C205.896,121.055 205.815,123.202 205.654,125.133C205.494,127.065 205.36,128.461 205.252,129.319C205.166,130.051 204.539,130.608 203.803,130.607C203.159,130.607 202.059,130.688 200.502,130.849C198.945,131.01 197.013,131.117 194.707,131.171C192.397,131.226 189.957,130.833 187.381,130.833ZM96.415,140L59.224,140L51.657,163.551C51.445,164.432 50.629,165.044 49.725,165L30.888,165C29.813,165 29.438,164.41 29.761,163.229L61.961,70.876C62.283,69.91 62.605,68.966 62.927,67.731C63.348,65.583 63.564,63.399 63.571,61.211C63.564,61.164 63.561,61.117 63.561,61.07C63.561,60.523 64.011,60.073 64.557,60.073C64.604,60.073 64.651,60.077 64.698,60.083L90.297,60.083C91.046,60.083 91.476,60.352 91.585,60.889L128.132,163.39C128.454,164.464 128.132,165.001 127.166,165L106.236,165C105.496,165.082 104.802,164.597 104.626,163.873L96.415,140ZM65.02,120.142L90.458,120.142C89.814,117.997 89.062,115.582 88.204,112.897C87.343,110.216 86.431,107.344 85.467,104.284C84.501,101.225 83.535,98.166 82.569,95.107C81.603,92.048 80.717,89.096 79.912,86.252C79.107,83.409 78.383,80.806 77.739,78.443L77.578,78.443C76.672,82.792 75.543,87.091 74.197,91.323C72.692,96.153 71.163,101.091 69.608,106.135C68.051,111.182 66.522,115.851 65.02,120.142ZM155.664,116.167L176.755,116.167C179.331,116.167 181.236,116.14 182.47,116.086C183.296,116.004 184.094,115.739 184.805,115.312L184.805,114.346C184.773,113.087 184.556,111.839 184.161,110.643C182.381,105.015 177.019,101.242 171.12,101.466C165.594,101.132 160.368,104.109 157.837,109.033C156.735,111.279 156.001,113.688 155.664,116.167Z" style="fill:white;"/>
                    </g>
                </g>
            </g>
        </g>
    </g>
</svg>
