<?xml version="1.0" encoding="UTF-8" standalone="no"?>
<!DOCTYPE svg PUBLIC "-//W3C//DTD SVG 1.1//EN" "http://www.w3.org/Graphics/SVG/1.1/DTD/svg11.dtd">
<svg width="100%" height="100%" viewBox="0 0 48 48" version="1.1" xmlns="http://www.w3.org/2000/svg" xmlns:xlink="http://www.w3.org/1999/xlink" xml:space="preserve" xmlns:serif="http://www.serif.com/" style="fill-rule:evenodd;clip-rule:evenodd;stroke-linejoin:round;stroke-miterlimit:2;">
    <g>
        <g transform="matrix(1,0,0,1,0,-4)">
            <g id="CONTROLLER">
                <path d="M25,21L36,21C37.656,21 39,22.344 39,24L39,32C39,33.656 37.656,35 36,35L12,35C10.344,35 9,33.656 9,32L9,24C9,22.344 10.344,21 12,21L23,21L23,18.049C23,16.365 24.365,15 26.049,15L29.951,15C30.53,15 31,14.53 31,13.951L31,12C31,11.448 31.448,11 32,11C32.552,11 33,11.448 33,12L33,13.951C33,15.635 31.635,17 29.951,17L26.049,17C25.47,17 25,17.47 25,18.049L25,21ZM28.5,26C27.396,26 26.5,26.896 26.5,28C26.5,29.104 27.396,30 28.5,30C29.604,30 30.5,29.104 30.5,28C30.5,26.896 29.604,26 28.5,26ZM32,29.5C30.896,29.5 30,30.396 30,31.5C30,32.604 30.896,33.5 32,33.5C33.104,33.5 34,32.604 34,31.5C34,30.396 33.104,29.5 32,29.5ZM32,22.5C30.896,22.5 30,23.396 30,24.5C30,25.604 30.896,26.5 32,26.5C33.104,26.5 34,25.604 34,24.5C34,23.396 33.104,22.5 32,22.5ZM35.5,26C34.396,26 33.5,26.896 33.5,28C33.5,29.104 34.396,30 35.5,30C36.604,30 37.5,29.104 37.5,28C37.5,26.896 36.604,26 35.5,26ZM14,26L12,26C11.724,26 11.5,26.224 11.5,26.5L11.5,29.5C11.5,29.776 11.724,30 12,30L14,30C14,30 14,32 14,32C14,32.276 14.224,32.5 14.5,32.5L17.5,32.5C17.776,32.5 18,32.276 18,32L18,30C18,30 20,30 20,30C20.276,30 20.5,29.776 20.5,29.5L20.5,26.5C20.5,26.224 20.276,26 20,26L18,26C18,26 18,24 18,24C18,23.724 17.776,23.5 17.5,23.5L14.5,23.5C14.224,23.5 14,23.724 14,24L14,26Z" style="fill:white;"/>
            </g>
        </g>
        <g transform="matrix(1,0,0,1,0,-4)">
            <g id="CONTROLLER1" serif:id="CONTROLLER">
                <path d="M25,21L36,21C37.656,21 39,22.344 39,24L39,32C39,33.656 37.656,35 36,35L12,35C10.344,35 9,33.656 9,32L9,24C9,22.344 10.344,21 12,21L23,21L23,18.049C23,16.365 24.365,15 26.049,15L29.951,15C30.53,15 31,14.53 31,13.951L31,12C31,11.448 31.448,11 32,11C32.552,11 33,11.448 33,12L33,13.951C33,15.635 31.635,17 29.951,17L26.049,17C25.47,17 25,17.47 25,18.049L25,21ZM28.5,26C27.396,26 26.5,26.896 26.5,28C26.5,29.104 27.396,30 28.5,30C29.604,30 30.5,29.104 30.5,28C30.5,26.896 29.604,26 28.5,26ZM32,29.5C30.896,29.5 30,30.396 30,31.5C30,32.604 30.896,33.5 32,33.5C33.104,33.5 34,32.604 34,31.5C34,30.396 33.104,29.5 32,29.5ZM32,22.5C30.896,22.5 30,23.396 30,24.5C30,25.604 30.896,26.5 32,26.5C33.104,26.5 34,25.604 34,24.5C34,23.396 33.104,22.5 32,22.5ZM35.5,26C34.396,26 33.5,26.896 33.5,28C33.5,29.104 34.396,30 35.5,30C36.604,30 37.5,29.104 37.5,28C37.5,26.896 36.604,26 35.5,26ZM14,26L12,26C11.724,26 11.5,26.224 11.5,26.5L11.5,29.5C11.5,29.776 11.724,30 12,30L14,30C14,30 14,32 14,32C14,32.276 14.224,32.5 14.5,32.5L17.5,32.5C17.776,32.5 18,32.276 18,32L18,30C18,30 20,30 20,30C20.276,30 20.5,29.776 20.5,29.5L20.5,26.5C20.5,26.224 20.276,26 20,26L18,26C18,26 18,24 18,24C18,23.724 17.776,23.5 17.5,23.5L14.5,23.5C14.224,23.5 14,23.724 14,24L14,26Z" style="fill:white;"/>
            </g>
        </g>
    </g>
</svg>
