<?xml version="1.0" encoding="UTF-8" standalone="no"?>
<!DOCTYPE svg PUBLIC "-//W3C//DTD SVG 1.1//EN" "http://www.w3.org/Graphics/SVG/1.1/DTD/svg11.dtd">
<svg width="100%" height="100%" viewBox="0 0 48 48" version="1.1" xmlns="http://www.w3.org/2000/svg" xmlns:xlink="http://www.w3.org/1999/xlink" xml:space="preserve" xmlns:serif="http://www.serif.com/" style="fill-rule:evenodd;clip-rule:evenodd;stroke-linejoin:round;stroke-miterlimit:2;">
    <g>
        <g id="LETTER">
            <path d="M39,30L31,24L39,18C39,18 39,30 39,30ZM39,15.5L25.8,25.4C24.733,26.2 23.267,26.2 22.2,25.4L9,15.5L9,14C9,13.448 9.448,13 10,13L38,13C38.552,13 39,13.448 39,14L39,15.5ZM24,16.504C23.543,15.895 22.814,15.5 21.995,15.5C20.612,15.5 19.489,16.623 19.489,18.005C19.489,18.694 19.767,19.318 20.218,19.771L23.638,23.356C23.733,23.455 23.863,23.511 24,23.511C24.137,23.511 24.267,23.455 24.362,23.356L27.782,19.771C28.233,19.318 28.511,18.694 28.511,18.005C28.511,16.623 27.388,15.5 26.005,15.5C25.186,15.5 24.457,15.895 24,16.504ZM9,18L17,24L9,30C9,30 9,18 9,18ZM9,32.5L18.667,25.25C18.667,25.25 21,27 21,27C22.778,28.333 25.222,28.333 27,27L29.333,25.25L39,32.5L39,34C39,34.552 38.552,35 38,35L10,35C9.448,35 9,34.552 9,34L9,32.5Z" style="fill:white;"/>
        </g>
        <g>
            <path d="M39,30L31,24L39,18C39,18 39,30 39,30ZM39,15.5L25.8,25.4C24.733,26.2 23.267,26.2 22.2,25.4L9,15.5L9,14C9,13.448 9.448,13 10,13L38,13C38.552,13 39,13.448 39,14L39,15.5ZM24,16.504C23.543,15.895 22.814,15.5 21.995,15.5C20.612,15.5 19.489,16.623 19.489,18.005C19.489,18.694 19.767,19.318 20.218,19.771L23.638,23.356C23.733,23.455 23.863,23.511 24,23.511C24.137,23.511 24.267,23.455 24.362,23.356L27.782,19.771C28.233,19.318 28.511,18.694 28.511,18.005C28.511,16.623 27.388,15.5 26.005,15.5C25.186,15.5 24.457,15.895 24,16.504ZM9,18L17,24L9,30C9,30 9,18 9,18ZM9,32.5L18.667,25.25C18.667,25.25 21,27 21,27C22.778,28.333 25.222,28.333 27,27L29.333,25.25L39,32.5L39,34C39,34.552 38.552,35 38,35L10,35C9.448,35 9,34.552 9,34L9,32.5Z" style="fill:white;"/>
        </g>
    </g>
</svg>
