<?xml version="1.0" encoding="UTF-8" standalone="no"?>
<!DOCTYPE svg PUBLIC "-//W3C//DTD SVG 1.1//EN" "http://www.w3.org/Graphics/SVG/1.1/DTD/svg11.dtd">
<svg width="100%" height="100%" viewBox="0 0 48 48" version="1.1" xmlns="http://www.w3.org/2000/svg" xmlns:xlink="http://www.w3.org/1999/xlink" xml:space="preserve" xmlns:serif="http://www.serif.com/" style="fill-rule:evenodd;clip-rule:evenodd;stroke-linejoin:round;stroke-miterlimit:2;">
    <g>
        <g id="LINKEDIN" transform="matrix(0.669231,0,0,0.669231,7.93846,6.63846)">
            <g>
                <path d="M37,14L37,34C37,35.656 35.656,37 34,37L14,37C12.344,37 11,35.656 11,34L11,14C11,12.344 12.344,11 14,11L34,11C35.656,11 37,12.344 37,14ZM15.713,22.797C15.299,22.797 14.963,23.133 14.963,23.547L14.963,25.32C14.963,25.735 15.299,26.07 15.713,26.07L17.369,26.07L17.369,29.484L15.713,29.484C15.299,29.484 14.963,29.82 14.963,30.234L14.963,32C14.963,32.414 15.299,32.75 15.713,32.75L22.604,32.75C23.018,32.75 23.354,32.414 23.354,32L23.354,30.234C23.354,29.82 23.018,29.484 22.604,29.484L21.065,29.484L21.065,23.547C21.065,23.133 20.729,22.797 20.315,22.797L15.713,22.797ZM17.213,19.383C17.213,19.653 17.264,19.905 17.361,20.137C17.464,20.383 17.61,20.59 17.796,20.76C17.975,20.929 18.189,21.062 18.439,21.156C18.672,21.243 18.929,21.289 19.213,21.289C19.819,21.289 20.292,21.097 20.649,20.758C21.024,20.399 21.221,19.944 21.221,19.383C21.221,18.822 21.024,18.366 20.649,18.008C20.292,17.668 19.819,17.477 19.213,17.477C18.929,17.477 18.672,17.523 18.439,17.61C18.191,17.702 17.98,17.831 17.804,17.991C17.799,17.995 17.794,17.999 17.79,18.004C17.605,18.179 17.462,18.387 17.361,18.629C17.264,18.861 17.213,19.112 17.213,19.383ZM27.37,23.199C27.243,22.958 26.991,22.797 26.705,22.797L24.737,22.797C24.322,22.797 23.987,23.133 23.987,23.547L23.987,32C23.987,32.414 24.322,32.75 24.737,32.75L26.916,32.75C27.33,32.75 27.666,32.414 27.666,32L27.666,26.236C27.679,26.222 27.691,26.208 27.704,26.195C27.747,26.148 27.796,26.109 27.85,26.075C27.861,26.068 27.872,26.061 27.882,26.054C27.95,26.007 28.028,25.974 28.115,25.951C28.23,25.92 28.357,25.906 28.494,25.906C28.677,25.906 28.84,25.922 28.984,25.958C29.058,25.977 29.123,26.006 29.176,26.053C29.229,26.1 29.262,26.17 29.29,26.251C29.343,26.402 29.362,26.595 29.362,26.828L29.362,32C29.362,32.414 29.697,32.75 30.112,32.75L32.283,32.75C32.698,32.75 33.033,32.414 33.033,32L33.033,26.797C33.033,26.089 32.945,25.488 32.78,24.993C32.6,24.452 32.343,24.011 32.022,23.663C32.018,23.659 32.015,23.656 32.012,23.652C31.669,23.296 31.265,23.035 30.799,22.871C30.369,22.719 29.895,22.641 29.377,22.641C28.964,22.641 28.574,22.7 28.206,22.816C27.908,22.91 27.63,23.038 27.37,23.199Z" style="fill:white;"/>
            </g>
            <g>
                <path d="M37,14L37,34C37,35.656 35.656,37 34,37L14,37C12.344,37 11,35.656 11,34L11,14C11,12.344 12.344,11 14,11L34,11C35.656,11 37,12.344 37,14ZM15.713,22.797C15.299,22.797 14.963,23.133 14.963,23.547L14.963,25.32C14.963,25.735 15.299,26.07 15.713,26.07L17.369,26.07L17.369,29.484L15.713,29.484C15.299,29.484 14.963,29.82 14.963,30.234L14.963,32C14.963,32.414 15.299,32.75 15.713,32.75L22.604,32.75C23.018,32.75 23.354,32.414 23.354,32L23.354,30.234C23.354,29.82 23.018,29.484 22.604,29.484L21.065,29.484L21.065,23.547C21.065,23.133 20.729,22.797 20.315,22.797L15.713,22.797ZM17.213,19.383C17.213,19.653 17.264,19.905 17.361,20.137C17.464,20.383 17.61,20.59 17.796,20.76C17.975,20.929 18.189,21.062 18.439,21.156C18.672,21.243 18.929,21.289 19.213,21.289C19.819,21.289 20.292,21.097 20.649,20.758C21.024,20.399 21.221,19.944 21.221,19.383C21.221,18.822 21.024,18.366 20.649,18.008C20.292,17.668 19.819,17.477 19.213,17.477C18.929,17.477 18.672,17.523 18.439,17.61C18.191,17.702 17.98,17.831 17.804,17.991C17.799,17.995 17.794,17.999 17.79,18.004C17.605,18.179 17.462,18.387 17.361,18.629C17.264,18.861 17.213,19.112 17.213,19.383ZM27.37,23.199C27.243,22.958 26.991,22.797 26.705,22.797L24.737,22.797C24.322,22.797 23.987,23.133 23.987,23.547L23.987,32C23.987,32.414 24.322,32.75 24.737,32.75L26.916,32.75C27.33,32.75 27.666,32.414 27.666,32L27.666,26.236C27.679,26.222 27.691,26.208 27.704,26.195C27.747,26.148 27.796,26.109 27.85,26.075C27.861,26.068 27.872,26.061 27.882,26.054C27.95,26.007 28.028,25.974 28.115,25.951C28.23,25.92 28.357,25.906 28.494,25.906C28.677,25.906 28.84,25.922 28.984,25.958C29.058,25.977 29.123,26.006 29.176,26.053C29.229,26.1 29.262,26.17 29.29,26.251C29.343,26.402 29.362,26.595 29.362,26.828L29.362,32C29.362,32.414 29.697,32.75 30.112,32.75L32.283,32.75C32.698,32.75 33.033,32.414 33.033,32L33.033,26.797C33.033,26.089 32.945,25.488 32.78,24.993C32.6,24.452 32.343,24.011 32.022,23.663C32.018,23.659 32.015,23.656 32.012,23.652C31.669,23.296 31.265,23.035 30.799,22.871C30.369,22.719 29.895,22.641 29.377,22.641C28.964,22.641 28.574,22.7 28.206,22.816C27.908,22.91 27.63,23.038 27.37,23.199Z" style="fill:white;"/>
            </g>
        </g>
    </g>
</svg>
