<?xml version="1.0" encoding="UTF-8" standalone="no"?>
<!DOCTYPE svg PUBLIC "-//W3C//DTD SVG 1.1//EN" "http://www.w3.org/Graphics/SVG/1.1/DTD/svg11.dtd">
<svg width="100%" height="100%" viewBox="0 0 48 48" version="1.1" xmlns="http://www.w3.org/2000/svg" xmlns:xlink="http://www.w3.org/1999/xlink" xml:space="preserve" xmlns:serif="http://www.serif.com/" style="fill-rule:evenodd;clip-rule:evenodd;stroke-linejoin:round;stroke-miterlimit:2;">
    <g>
        <g id="MASTODON" transform="matrix(0.327869,0,0,0.327869,13.3443,14.75)">
            <g transform="matrix(3.05,0,0,3.05,-40.7,-40.7)">
                <g id="MASTODON1" serif:id="MASTODON">
                    <path d="M24.053,35.75L21,35.75C19.238,35.75 17.327,35.707 15.845,34.588C14.378,33.481 13.25,31.289 13.25,26.824L13.25,17.344C13.25,14.723 15.378,12.594 18,12.594L30,12.594C32.622,12.594 34.75,14.723 34.75,17.344L34.75,25.319C34.75,27.94 32.622,30.069 30,30.069C30,30.069 19.75,30.069 19.75,30.069C19.75,30.069 19.75,31.25 19.75,31.25L24.053,31.25C24.467,31.25 24.803,31.586 24.803,32L24.803,35C24.803,35.414 24.467,35.75 24.053,35.75ZM30.053,20.766C30.054,19.645 29.755,18.759 29.183,18.099C29.181,18.097 29.18,18.095 29.178,18.093C28.567,17.414 27.771,17.061 26.78,17.061C25.628,17.061 24.759,17.514 24.178,18.4C24.174,18.406 24.171,18.411 24.168,18.416L24.054,18.607L23.941,18.416C23.938,18.411 23.934,18.406 23.931,18.4C23.349,17.514 22.481,17.061 21.327,17.061C20.335,17.061 19.539,17.415 18.93,18.094C18.928,18.096 18.926,18.098 18.925,18.099C18.353,18.759 18.053,19.645 18.053,20.766L18.053,25.664C18.053,25.901 18.246,26.094 18.484,26.094L20.423,26.094C20.661,26.094 20.854,25.901 20.854,25.664L20.854,20.91C20.854,20.475 20.928,20.155 21.148,19.979C21.282,19.872 21.464,19.83 21.688,19.83C21.943,19.83 22.15,19.884 22.303,20.015C22.564,20.239 22.658,20.641 22.658,21.196L22.658,23.797C22.658,24.035 22.85,24.228 23.088,24.228L25.017,24.228C25.255,24.228 25.448,24.035 25.448,23.797L25.448,21.196C25.448,20.641 25.541,20.239 25.802,20.015C25.955,19.884 26.162,19.83 26.417,19.83C26.642,19.83 26.825,19.871 26.959,19.979C27.179,20.155 27.252,20.475 27.252,20.91L27.252,25.664C27.252,25.901 27.444,26.094 27.682,26.094L29.623,26.094C29.86,26.094 30.053,25.901 30.053,25.664L30.053,20.766Z" style="fill:white;"/>
                </g>
            </g>
            <g transform="matrix(3.05,0,0,3.05,-40.7,-40.7)">
                <g id="MASTODON2" serif:id="MASTODON">
                    <path d="M24.053,35.75L21,35.75C19.238,35.75 17.327,35.707 15.845,34.588C14.378,33.481 13.25,31.289 13.25,26.824L13.25,17.344C13.25,14.723 15.378,12.594 18,12.594L30,12.594C32.622,12.594 34.75,14.723 34.75,17.344L34.75,25.319C34.75,27.94 32.622,30.069 30,30.069C30,30.069 19.75,30.069 19.75,30.069C19.75,30.069 19.75,31.25 19.75,31.25L24.053,31.25C24.467,31.25 24.803,31.586 24.803,32L24.803,35C24.803,35.414 24.467,35.75 24.053,35.75ZM30.053,20.766C30.054,19.645 29.755,18.759 29.183,18.099C29.181,18.097 29.18,18.095 29.178,18.093C28.567,17.414 27.771,17.061 26.78,17.061C25.628,17.061 24.759,17.514 24.178,18.4C24.174,18.406 24.171,18.411 24.168,18.416L24.054,18.607L23.941,18.416C23.938,18.411 23.934,18.406 23.931,18.4C23.349,17.514 22.481,17.061 21.327,17.061C20.335,17.061 19.539,17.415 18.93,18.094C18.928,18.096 18.926,18.098 18.925,18.099C18.353,18.759 18.053,19.645 18.053,20.766L18.053,25.664C18.053,25.901 18.246,26.094 18.484,26.094L20.423,26.094C20.661,26.094 20.854,25.901 20.854,25.664L20.854,20.91C20.854,20.475 20.928,20.155 21.148,19.979C21.282,19.872 21.464,19.83 21.688,19.83C21.943,19.83 22.15,19.884 22.303,20.015C22.564,20.239 22.658,20.641 22.658,21.196L22.658,23.797C22.658,24.035 22.85,24.228 23.088,24.228L25.017,24.228C25.255,24.228 25.448,24.035 25.448,23.797L25.448,21.196C25.448,20.641 25.541,20.239 25.802,20.015C25.955,19.884 26.162,19.83 26.417,19.83C26.642,19.83 26.825,19.871 26.959,19.979C27.179,20.155 27.252,20.475 27.252,20.91L27.252,25.664C27.252,25.901 27.444,26.094 27.682,26.094L29.623,26.094C29.86,26.094 30.053,25.901 30.053,25.664L30.053,20.766Z" style="fill:white;"/>
                </g>
            </g>
        </g>
    </g>
</svg>
