<?xml version="1.0" encoding="UTF-8" standalone="no"?>
<!DOCTYPE svg PUBLIC "-//W3C//DTD SVG 1.1//EN" "http://www.w3.org/Graphics/SVG/1.1/DTD/svg11.dtd">
<svg width="100%" height="100%" viewBox="0 0 96 96" version="1.1" xmlns="http://www.w3.org/2000/svg" xmlns:xlink="http://www.w3.org/1999/xlink" xml:space="preserve" xmlns:serif="http://www.serif.com/" style="fill-rule:evenodd;clip-rule:evenodd;stroke-linejoin:round;stroke-miterlimit:2;">
    <g transform="matrix(1,0,0,1,0,-288)">
        <g id="subs" transform="matrix(0.631579,0,0,0.724352,-281.684,201.804)">
            <g opacity="0.85">
                <rect x="446" y="118.997" width="152" height="132.532" style="fill:none;"/>
                <g id="subs1" serif:id="subs" transform="matrix(2.37513,0,0,2.07093,426.666,-303.566)">
                    <g id="substance" transform="matrix(0.129414,0,0,0.129414,-13.3061,198.658)">
                        <path d="M270.398,291.19L270.398,205.824L431.003,113.099L591.608,205.824L591.608,288.556L517.996,265.346L517.996,248.324L431.003,198.099L366.956,235.076L591.608,305.908L591.608,391.275L431.003,484L270.398,391.275L270.398,308.543L344.01,331.752L344.01,348.775L431.003,399L495.049,362.023L270.398,291.19Z"/>
                    </g>
                    <g id="substance1" serif:id="substance" transform="matrix(0.129414,0,0,0.129414,-15.3061,196.658)">
                        <path d="M270.398,291.19L270.398,205.824L431.003,113.099L591.608,205.824L591.608,288.556L517.996,265.346L517.996,248.324L431.003,198.099L366.956,235.076L591.608,305.908L591.608,391.275L431.003,484L270.398,391.275L270.398,308.543L344.01,331.752L344.01,348.775L431.003,399L495.049,362.023L270.398,291.19Z" style="fill:white;"/>
                    </g>
                </g>
            </g>
        </g>
    </g>
</svg>
