<?xml version="1.0" encoding="UTF-8" standalone="no"?>
<!DOCTYPE svg PUBLIC "-//W3C//DTD SVG 1.1//EN" "http://www.w3.org/Graphics/SVG/1.1/DTD/svg11.dtd">
<svg width="100%" height="100%" viewBox="0 0 48 48" version="1.1" xmlns="http://www.w3.org/2000/svg" xmlns:xlink="http://www.w3.org/1999/xlink" xml:space="preserve" xmlns:serif="http://www.serif.com/" style="fill-rule:evenodd;clip-rule:evenodd;stroke-linejoin:round;stroke-miterlimit:2;">
    <g>
        <g id="TWITTER" transform="matrix(0.965926,0.258819,-0.258819,0.965926,7.04077,-5.38611)">
            <g>
                <path d="M20.3,23.954C20.281,23.778 20.329,23.61 20.47,23.47C21.808,22.131 22.869,19.56 24.195,17.723C25.253,16.259 26.49,15.25 28,15.25L32,15.25C32.243,15.25 32.471,15.368 32.612,15.566C32.752,15.764 32.788,16.018 32.708,16.248C32.708,16.248 31.815,18.834 31.75,24.009C31.725,25.963 30.795,29.358 27.746,30.92C27.749,30.946 27.75,30.973 27.75,31L27.75,32.25L29,32.25C29.414,32.25 29.75,32.586 29.75,33C29.75,33.414 29.414,33.75 29,33.75L27,33.75C26.586,33.75 26.25,33.414 26.25,33L26.25,31.482C25.578,31.654 24.831,31.75 24,31.75C23.916,31.75 23.833,31.749 23.75,31.748L23.75,33.536L25.335,34.329C25.706,34.514 25.856,34.965 25.671,35.335C25.486,35.706 25.035,35.856 24.665,35.671L22.665,34.671C22.411,34.544 22.25,34.284 22.25,34L22.25,31.622C15.703,30.621 15.252,24.054 15.252,24.054C15.23,23.754 15.39,23.47 15.657,23.333C15.924,23.196 16.245,23.231 16.476,23.421C16.477,23.422 18.269,24.325 19.42,25.475C20.591,26.647 22.035,27.311 23.616,26.967C25.098,26.645 26.627,25.51 27.676,23.324C27.855,22.951 27.698,22.503 27.324,22.324C26.951,22.145 26.503,22.302 26.324,22.676C25.679,24.02 24.831,24.88 23.927,25.291C22.702,25.848 21.4,25.526 20.58,24.525C20.519,24.451 20.318,24.13 20.3,23.954ZM28,17.5C27.448,17.5 27,17.948 27,18.5C27,19.052 27.448,19.5 28,19.5C28.552,19.5 29,19.052 29,18.5C29,17.948 28.552,17.5 28,17.5Z" style="fill:white;"/>
            </g>
            <g>
                <path d="M20.3,23.954C20.281,23.778 20.329,23.61 20.47,23.47C21.808,22.131 22.869,19.56 24.195,17.723C25.253,16.259 26.49,15.25 28,15.25L32,15.25C32.243,15.25 32.471,15.368 32.612,15.566C32.752,15.764 32.788,16.018 32.708,16.248C32.708,16.248 31.815,18.834 31.75,24.009C31.725,25.963 30.795,29.358 27.746,30.92C27.749,30.946 27.75,30.973 27.75,31L27.75,32.25L29,32.25C29.414,32.25 29.75,32.586 29.75,33C29.75,33.414 29.414,33.75 29,33.75L27,33.75C26.586,33.75 26.25,33.414 26.25,33L26.25,31.482C25.578,31.654 24.831,31.75 24,31.75C23.916,31.75 23.833,31.749 23.75,31.748L23.75,33.536L25.335,34.329C25.706,34.514 25.856,34.965 25.671,35.335C25.486,35.706 25.035,35.856 24.665,35.671L22.665,34.671C22.411,34.544 22.25,34.284 22.25,34L22.25,31.622C15.703,30.621 15.252,24.054 15.252,24.054C15.23,23.754 15.39,23.47 15.657,23.333C15.924,23.196 16.245,23.231 16.476,23.421C16.477,23.422 18.269,24.325 19.42,25.475C20.591,26.647 22.035,27.311 23.616,26.967C25.098,26.645 26.627,25.51 27.676,23.324C27.855,22.951 27.698,22.503 27.324,22.324C26.951,22.145 26.503,22.302 26.324,22.676C25.679,24.02 24.831,24.88 23.927,25.291C22.702,25.848 21.4,25.526 20.58,24.525C20.519,24.451 20.318,24.13 20.3,23.954ZM28,17.5C27.448,17.5 27,17.948 27,18.5C27,19.052 27.448,19.5 28,19.5C28.552,19.5 29,19.052 29,18.5C29,17.948 28.552,17.5 28,17.5Z" style="fill:white;"/>
            </g>
        </g>
    </g>
</svg>
