<?xml version="1.0" encoding="UTF-8" standalone="no"?>
<!DOCTYPE svg PUBLIC "-//W3C//DTD SVG 1.1//EN" "http://www.w3.org/Graphics/SVG/1.1/DTD/svg11.dtd">
<svg width="100%" height="100%" viewBox="0 0 96 96" version="1.1" xmlns="http://www.w3.org/2000/svg" xmlns:xlink="http://www.w3.org/1999/xlink" xml:space="preserve" xmlns:serif="http://www.serif.com/" style="fill-rule:evenodd;clip-rule:evenodd;stroke-linejoin:round;stroke-miterlimit:2;">
    <g id="ue" transform="matrix(0.631579,0,0,0.724352,-281.684,-86.1959)">
        <g opacity="0.85">
            <rect x="446" y="118.997" width="152" height="132.532" style="fill:none;"/>
            <g id="ue1" serif:id="ue" transform="matrix(2.37513,0,0,2.07093,424.62,96.9165)">
                <g id="ue2" serif:id="ue" transform="matrix(0.173117,0,0,0.173117,14,16.0766)">
                    <path d="M257.85,185.56C255.06,199 242.66,233.5 203.11,252.18L187.23,234.32L160.43,261.26C129.519,260.846 100.58,246.003 82.21,221.14C85.056,222.027 87.996,222.581 90.97,222.79C95.36,222.87 100.11,221.26 100.11,213.89L100.11,141.19C100.329,134.566 95.136,129.019 88.512,128.801C87.348,128.762 86.185,128.893 85.06,129.19C72.65,132.05 62.74,163.01 62.74,163.01C62.458,134.078 74.918,106.488 96.81,87.57C111.046,75.257 128.473,67.218 147.08,64.38C133.53,72.1 125.92,84.69 125.92,95.25C125.92,112.25 136.16,110.19 139.19,107.69L139.19,205.81C139.706,207.041 140.379,208.2 141.19,209.26C143.937,213.059 148.352,215.295 153.04,215.26C163.29,215.26 176.59,203.56 176.59,203.56L176.59,124.14C176.59,116.06 170.5,106.3 164.4,102.95C164.4,102.95 175.69,100.95 184.4,107.62C186.036,105.621 187.775,103.709 189.61,101.89C209.94,81.94 229.09,76.26 245.04,73.42C245.04,73.42 216.04,96.21 216.04,126.79C216.04,149.53 216.63,204.99 216.63,204.99C227.39,215.38 243.39,200.37 257.85,185.56Z"/>
                    <path d="M161.74,317.52C75.986,317.52 6.47,248.003 6.47,162.25C6.47,76.497 75.986,6.98 161.74,6.98C247.493,6.98 317.01,76.497 317.01,162.25L317.01,162.26C317.01,248.013 247.493,317.53 161.74,317.53L161.74,317.52ZM161.74,0.52C72.413,0.52 0,72.934 0,162.26C0,251.587 72.413,324 161.74,324C251.067,324 323.48,251.587 323.48,162.26C323.48,72.934 251.067,0.52 161.74,0.52Z"/>
                </g>
                <g id="ue3" serif:id="ue" transform="matrix(0.173117,0,0,0.173117,12,14.0766)">
                    <path d="M257.85,185.56C255.06,199 242.66,233.5 203.11,252.18L187.23,234.32L160.43,261.26C129.519,260.846 100.58,246.003 82.21,221.14C85.056,222.027 87.996,222.581 90.97,222.79C95.36,222.87 100.11,221.26 100.11,213.89L100.11,141.19C100.329,134.566 95.136,129.019 88.512,128.801C87.348,128.762 86.185,128.893 85.06,129.19C72.65,132.05 62.74,163.01 62.74,163.01C62.458,134.078 74.918,106.488 96.81,87.57C111.046,75.257 128.473,67.218 147.08,64.38C133.53,72.1 125.92,84.69 125.92,95.25C125.92,112.25 136.16,110.19 139.19,107.69L139.19,205.81C139.706,207.041 140.379,208.2 141.19,209.26C143.937,213.059 148.352,215.295 153.04,215.26C163.29,215.26 176.59,203.56 176.59,203.56L176.59,124.14C176.59,116.06 170.5,106.3 164.4,102.95C164.4,102.95 175.69,100.95 184.4,107.62C186.036,105.621 187.775,103.709 189.61,101.89C209.94,81.94 229.09,76.26 245.04,73.42C245.04,73.42 216.04,96.21 216.04,126.79C216.04,149.53 216.63,204.99 216.63,204.99C227.39,215.38 243.39,200.37 257.85,185.56Z" style="fill:white;"/>
                    <path d="M161.74,317.52C75.986,317.52 6.47,248.003 6.47,162.25C6.47,76.497 75.986,6.98 161.74,6.98C247.493,6.98 317.01,76.497 317.01,162.25L317.01,162.26C317.01,248.013 247.493,317.53 161.74,317.53L161.74,317.52ZM161.74,0.52C72.413,0.52 0,72.934 0,162.26C0,251.587 72.413,324 161.74,324C251.067,324 323.48,251.587 323.48,162.26C323.48,72.934 251.067,0.52 161.74,0.52Z" style="fill:white;"/>
                </g>
            </g>
        </g>
    </g>
</svg>
