<?xml version="1.0" encoding="UTF-8" standalone="no"?>
<!DOCTYPE svg PUBLIC "-//W3C//DTD SVG 1.1//EN" "http://www.w3.org/Graphics/SVG/1.1/DTD/svg11.dtd">
<svg width="100%" height="100%" viewBox="0 0 512 256" version="1.1" xmlns="http://www.w3.org/2000/svg" xmlns:xlink="http://www.w3.org/1999/xlink" xml:space="preserve" xmlns:serif="http://www.serif.com/" style="fill-rule:evenodd;clip-rule:evenodd;stroke-linejoin:round;stroke-miterlimit:2;">
    <g opacity="0.85">
        <rect id="laurel" x="0" y="0" width="512" height="256" style="fill:none;"/>
        <g transform="matrix(1.64784,0,0,1.64784,-165.847,-82.9236)">
            <g id="laurel1" serif:id="laurel">
                <g>
                    <g transform="matrix(1.29751,0,0,1.29751,-120.937,-38.0809)">
                        <g transform="matrix(1,0,0,1,98.8,77.5)">
                            <path d="M262.6,94.5C262.4,94.1 262.3,93.7 262.4,93.7C262.4,93.7 262.7,93.6 263,93.5C265.9,92.5 270,90.7 272.6,89.2L273.6,88.7L273.3,88.4C272.5,87.7 271.8,86.4 271.5,84.9C271.3,84.1 271.3,82.3 271.4,81.4C271.5,80.3 272.1,78.2 272.5,77.7C272.6,77.6 273.2,77.8 273.7,78C274.4,78.4 275.1,79.5 275.4,80.5C275.9,82.5 275.6,85.4 274.8,87.6C274.7,87.9 274.6,88.2 274.6,88.2C274.6,88.2 276.8,86.8 277.5,86.2C278.4,85.6 279.8,84.3 279.8,84.2C279.8,84.2 279.6,84 279.4,83.9C278,83 277,80.9 276.8,78.3C276.7,76.8 277,74.9 277.6,73.4C277.8,72.9 277.8,72.9 278,72.9C278.6,72.9 279.8,73.8 280.3,74.6C280.6,75.1 281,76 281.1,76.7C281.3,77.9 281.2,80.3 280.9,81.7C280.8,82.3 280.4,83.3 280.2,83.7C280.1,83.9 280,84 281.7,82.4C282.7,81.5 284.2,79.9 285.1,78.9L285.6,78.4L284.6,77.7C282.9,76.4 281.9,75.3 281.3,74.1C280.7,72.7 280.5,71.8 280.4,69L280.4,68.2L280.6,68.2C281.1,68.3 282.1,68.7 282.5,69C283.6,69.7 284.4,70.7 285,72.4C285.3,73.3 285.4,73.6 285.5,75.6C285.6,76.6 285.6,77.6 285.7,77.8L285.8,78.2L286.2,77.7C287.2,76.5 288.7,74.5 289.4,73.5L289.5,73.3L288.6,72.9C287,72.2 286.1,71.6 285.3,70.8C284.6,70 283.7,68.4 283.3,67.2C282.7,65.6 282.1,63.6 282.1,63.5C282.2,63.4 283.5,63.6 283.9,63.8C285.3,64.2 286.4,65.2 287.5,66.9C288,67.7 288.2,68.3 288.6,69.9C288.9,71.2 289.3,72.5 289.5,72.8C289.6,72.9 289.6,72.8 289.9,72.3C290.7,71 291.8,68.8 292.3,67.6L292.5,67.1L292.2,67C292,67 291.5,66.9 291,66.8C288.7,66.4 287.4,65.6 286,64.1C284.6,62.5 283.7,61 283,58.9C282.8,58.4 282.7,58.1 282.7,58.1C282.7,58.1 283.1,58.1 283.7,58.2C285,58.3 285.9,58.5 286.8,59C287.9,59.5 288.7,60.2 289.6,61.5C290.2,62.4 290.6,63 291.3,64.4C292,65.8 292.6,66.9 292.7,66.8C292.9,66.7 293.8,63.5 294.1,62C294.3,61 294.4,61.1 293.4,61C292,60.9 291.1,60.6 290,60.2C287.6,59.1 285.3,56.4 283.9,53.1C283.7,52.7 283.6,52.4 283.7,52.4C283.8,52.3 285.2,52.3 285.9,52.4C288.1,52.6 289.5,53.5 291.3,55.8C292.2,56.9 292.8,57.9 293.8,59.7C294,60.1 294.2,60.4 294.3,60.4C294.4,60.3 294.6,58.4 294.7,56.8C294.8,55.7 294.8,54.8 294.7,54.1L294.6,53.1L294.3,53.1C293.9,53.1 292.2,53 291.6,52.9C288.7,52.3 286.5,50.9 284.6,48.2C284.1,47.5 282.7,45.2 282.8,45.1C282.8,45.1 283.2,45 283.7,45C284.7,44.9 286,44.9 286.5,45C288.2,45.3 289.9,46.4 291.5,48.3C291.8,48.7 292.6,49.8 293.3,50.8C294,51.8 294.6,52.7 294.6,52.7C294.7,52.7 294.4,50.5 294.1,49C293.8,47.6 293.1,44.8 293,44.7C293,44.7 292.6,44.7 292.2,44.8C291.1,45 289.4,44.9 288.3,44.7C285.9,44.2 284.4,43.3 282.8,41.7C282.1,40.9 280.9,39.3 280.7,38.8C280.7,38.7 281,38.6 282.1,38.3C282.7,38.2 284.2,38.2 284.9,38.3C286.6,38.7 288.6,39.6 290,40.8C290.6,41.3 291.8,42.4 292.1,42.9C292.4,43.3 292.5,43.4 292.4,43.1C292.4,43 292.1,42.4 291.9,41.7C291.4,40.3 290.4,37.7 290.3,37.6C290.3,37.6 290,37.6 289.6,37.7C287.6,38.1 285.5,38 283.5,37.5C281.4,36.9 279.4,35.3 277.7,32.9L277.4,32.4L277.6,32.3C279.5,31.6 281,31.5 282.9,31.9C285.2,32.5 287.3,33.7 289.1,35.5C289.6,36 289.7,36.1 289.7,35.9C289.3,34.9 288.4,33.3 287.8,32.2C287.1,31 285.9,29.3 285.8,29.3C285.8,29.3 285.5,29.4 285.3,29.5C283.5,30.3 280.1,30.3 277.7,29.6C277.1,29.4 276.1,28.9 275.5,28.5C275,28.2 274.2,27.5 273.9,27.1L273.7,26.8L274.2,26.5C275.6,25.8 277.1,25.5 279,25.8C280.4,26 281.4,26.3 282.6,26.8C283.4,27.2 284.2,27.7 284.7,28.1C284.9,28.2 285,28.3 285,28.3C285.1,28.3 281.9,24.2 281.2,23.3L281,23L280.3,23.2C279.5,23.5 278.3,23.7 277.2,23.7C276.3,23.8 274.6,23.6 273.7,23.5C271.8,23.1 269.9,22.1 268.6,20.9C268.3,20.6 268.1,20.4 268.1,20.4C268.1,20.3 268.8,20 269.3,19.8C270.5,19.4 272,19.2 273.4,19.4C275.7,19.6 277.5,20.2 279.3,21.4C279.7,21.6 280,21.8 280,21.8C280,21.7 276.9,18.3 276.2,17.7L275.7,17.2L274.4,17.2C272.4,17.1 270.8,16.9 269.5,16.4C267.9,15.8 265.4,13.5 263.9,11.3C263.5,10.7 263.3,10.2 263.4,10.1C263.5,10 264.3,9.8 264.9,9.7C265.7,9.6 267,9.6 267.8,9.8C269.6,10.2 270.8,10.9 272.6,12.6C273.9,13.9 274.8,15 275.5,16.1C275.8,16.5 276.2,17 277.4,18.2L278.7,19.5L278.3,18.8C278.1,18.4 277.8,17.8 277.6,17.3C277,15.8 276.7,14.6 276.7,12.6C276.6,10.7 276.9,8.9 277.3,7.9L277.4,7.6L277.7,7.9C278.8,8.8 279.9,10.3 280.4,12C280.8,13.3 280.9,14.1 280.9,15.9C280.9,17.9 280.7,19.3 280.3,20.6L280.1,21.2L280.6,21.8C281.4,22.7 282.6,24.1 283.5,25.3C284.8,27 284.8,26.9 284.3,26C283.6,24.5 283.1,22.9 282.8,21.6C282.7,20.8 282.7,19.1 282.8,18.1C283,16.8 283.6,14.6 283.8,14.5C284,14.4 285.1,15.4 285.6,16.1C286.2,16.9 286.6,18 286.9,19.1C287.4,21.7 287,25.1 285.8,27.7L285.6,28.2L286.1,29C286.8,30 288.2,32 288.9,33.3C289.2,33.9 289.5,34.4 289.6,34.4C289.7,34.4 289.6,34.3 289.5,34.1C289.3,33.4 289,32.2 288.9,31.3C288.8,30.2 288.8,28.2 289,27.3C289.4,25.4 290.3,23.8 291.6,22.6C291.9,22.3 292.2,22 292.3,22C292.4,21.9 292.5,22 292.7,22.2C293.9,23.5 294.5,26 294.3,28.2C294.1,30.4 293.4,32.3 292.5,33.5C292,34.2 291.2,35 290.6,35.3L290.2,35.5L291,37.1C291.7,38.6 292.7,40.9 293.1,41.8C293.2,42 293.3,42.2 293.3,42.2C293.3,42.2 293.3,42 293.2,41.7C293.2,41.4 293.1,40.4 293.1,39.5C293.1,37.5 293.2,36.7 293.6,35.5C294.1,33.8 295.2,32.5 296.5,31.6C297.1,31.2 297.8,30.9 298,30.9C298.1,30.9 298.2,31.4 298.4,32.6C298.5,33.4 298.5,36.1 298.4,36.9C298.2,37.9 298,38.7 297.6,39.5C297.3,40.3 296.5,41.6 296,42.3C295.5,42.9 294.7,43.8 294.3,44.1L294,44.3L294.3,45.4C294.7,46.8 295.1,48.5 295.3,49.8C295.4,50.3 295.5,50.8 295.5,50.8L295.5,50.4C295.5,49.8 295.7,48.1 295.9,47.2C296.4,44.6 297.2,42.9 298.6,41.5C299.5,40.6 300.8,39.8 302,39.4L302.6,39.2L302.6,39.4C302.7,39.8 302.7,42.1 302.6,42.9C302.4,44.8 301.8,46.4 301,47.7C299.7,49.8 297.8,51.6 296.2,52.2C295.8,52.4 295.7,52.4 295.7,52.5C295.7,52.6 295.8,53.1 295.8,53.7C295.9,55.5 295.9,57.2 295.7,59.6L295.7,60.1L295.9,59.7C296,59.5 296.4,58.4 296.7,57.4C297.6,54.7 298.2,53.5 299.2,52.3C300.7,50.6 302.9,49.5 305.3,49.4L306,49.4L306,49.8C305.9,50.4 305.5,51.9 305.2,52.7C304.4,54.8 303.3,56.4 301.8,57.7C300.1,59.1 297.9,60.3 296.2,60.7C295.9,60.8 295.6,60.8 295.6,60.9C295.6,60.9 295.5,61.3 295.4,61.7C295.3,62.6 294.9,64.5 294.7,65.3C294.6,65.6 294.6,65.8 294.6,65.8C294.6,65.8 294.8,65.5 295.1,65.2C295.4,64.9 296,64.2 296.5,63.7C298.6,61.6 300.4,60.5 302.5,59.9C303.1,59.7 303.3,59.7 304.4,59.7C305.7,59.7 306.2,59.8 307,60.2L307.7,60.5L307.5,60.9C306.2,62.9 304.4,64.6 302.6,65.6C300,67 297.3,67.4 295.2,66.9C294.9,66.8 294.7,66.8 294.7,66.8C294.7,66.8 294.5,67.2 294.4,67.7C294,68.9 293.4,70.3 292.8,71.4L292.3,72.3L293,71.7C295.7,69.5 298.6,68.3 301.1,68.3C302.5,68.3 303.5,68.6 304.5,69.2C305,69.5 305.8,70.2 305.8,70.3C305.8,70.4 304.8,71.3 304.1,71.8C302,73.3 299.6,74.2 297,74.4C296,74.5 295,74.4 294.1,74.2C293.5,74 292.5,73.6 292.1,73.2L291.8,73L291.2,73.9C290.2,75.5 288.8,77.3 287.4,79C287,79.4 286.7,79.8 286.6,79.9C286.5,80 286.8,79.8 287.2,79.5C289.1,78.1 291,77.2 292.6,76.8C293.7,76.6 295.3,76.5 296.2,76.7C297.4,76.9 298.5,77.5 299.2,78.3C299.5,78.6 299.6,78.7 299.5,78.8C299.4,79 298.4,79.8 297.8,80.2C296.7,81 295.5,81.5 294.1,82C292,82.7 290,82.7 288.4,82.2C287.6,81.9 286.5,81.3 286.1,80.8L285.9,80.6L284.2,82.3C283.3,83.2 282.2,84.3 281.7,84.7L281,85.4L281.5,85.2C282.5,84.8 282.9,84.7 283.8,84.5C285.4,84.1 285.8,84 287.5,84C289.2,84 289.8,84.1 290.9,84.5C292.2,85 293.2,85.9 293.4,86.9C293.4,87.1 293.4,87.1 292.9,87.3C291.4,88 289.5,88.4 287.1,88.4C284.9,88.4 283.4,88 282.1,87.2C281.6,86.9 281,86.2 280.8,85.9L280.7,85.7L280,86.3C278.6,87.5 276.9,88.7 275.1,89.8C274.7,90 274.4,90.2 274.4,90.2C274.4,90.2 274.7,90.1 275,90.1C277.8,89.4 280.7,89.3 282.6,89.8C284.4,90.3 285.8,91.3 286.4,92.5C286.8,93.3 286.8,93.3 286.6,93.4C284.6,94.3 280.9,94.5 278.2,93.7C276.5,93.2 275,92.2 274.1,91C273.9,90.8 273.8,90.6 273.8,90.6C273.8,90.6 273,91 272.1,91.5C269.4,92.8 266.1,94.3 263.4,95.2L263,95.4L262.6,94.5Z" style="fill-rule:nonzero;"/>
                        </g>
                        <g transform="matrix(1,0,0,1,98.8,76.5)">
                            <path d="M261.6,93.5C261.4,93.1 261.3,92.7 261.4,92.7C261.4,92.7 261.7,92.6 262,92.5C264.9,91.5 269,89.7 271.6,88.2L272.6,87.7L272.3,87.4C271.5,86.7 270.8,85.4 270.5,83.9C270.3,83.1 270.3,81.3 270.4,80.4C270.5,79.3 271.1,77.2 271.5,76.7C271.6,76.6 272.2,76.8 272.7,77C273.4,77.4 274.1,78.5 274.4,79.5C274.9,81.5 274.6,84.4 273.8,86.6C273.7,86.9 273.6,87.2 273.6,87.2C273.6,87.2 275.8,85.8 276.5,85.2C277.4,84.6 278.8,83.3 278.8,83.2C278.8,83.2 278.6,83 278.4,82.9C277,82 276,79.9 275.8,77.3C275.7,75.8 276,73.9 276.6,72.4C276.8,71.9 276.8,71.9 277,71.9C277.6,71.9 278.8,72.8 279.3,73.6C279.6,74.1 280,75 280.1,75.7C280.3,76.9 280.2,79.3 279.9,80.7C279.8,81.3 279.4,82.3 279.2,82.7C279.1,82.9 279,83 280.7,81.4C281.7,80.5 283.2,78.9 284.1,77.9L284.6,77.4L283.6,76.7C281.9,75.4 280.9,74.3 280.3,73.1C279.7,71.7 279.5,70.8 279.4,68L279.4,67.2L279.6,67.2C280.1,67.3 281.1,67.7 281.5,68C282.6,68.7 283.4,69.7 284,71.4C284.3,72.3 284.4,72.6 284.5,74.6C284.6,75.6 284.6,76.6 284.7,76.8L284.8,77.2L285.2,76.7C286.2,75.5 287.7,73.5 288.4,72.5L288.5,72.3L287.6,71.9C286,71.2 285.1,70.6 284.3,69.8C283.6,69 282.7,67.4 282.3,66.2C281.7,64.6 281.1,62.6 281.1,62.5C281.2,62.4 282.5,62.6 282.9,62.8C284.3,63.2 285.4,64.2 286.5,65.9C287,66.7 287.2,67.3 287.6,68.9C287.9,70.2 288.3,71.5 288.5,71.8C288.6,71.9 288.6,71.8 288.9,71.3C289.7,70 290.8,67.8 291.3,66.6L291.5,66.1L291.2,66C291,66 290.5,65.9 290,65.8C287.7,65.4 286.4,64.6 285,63.1C283.6,61.5 282.7,60 282,57.9C281.8,57.4 281.7,57.1 281.7,57.1C281.7,57.1 282.1,57.1 282.7,57.2C284,57.3 284.9,57.5 285.8,58C286.9,58.5 287.7,59.2 288.6,60.5C289.2,61.4 289.6,62 290.3,63.4C291,64.8 291.6,65.9 291.7,65.8C291.9,65.7 292.8,62.5 293.1,61C293.3,60 293.4,60.1 292.4,60C291,59.9 290.1,59.6 289,59.2C286.6,58.1 284.3,55.4 282.9,52.1C282.7,51.7 282.6,51.4 282.7,51.4C282.8,51.3 284.2,51.3 284.9,51.4C287.1,51.6 288.5,52.5 290.3,54.8C291.2,55.9 291.8,56.9 292.8,58.7C293,59.1 293.2,59.4 293.3,59.4C293.4,59.3 293.6,57.4 293.7,55.8C293.8,54.7 293.8,53.8 293.7,53.1L293.6,52.1L293.3,52.1C292.9,52.1 291.2,52 290.6,51.9C287.7,51.3 285.5,49.9 283.6,47.2C283.1,46.5 281.7,44.2 281.8,44.1C281.8,44.1 282.2,44 282.7,44C283.7,43.9 285,43.9 285.5,44C287.2,44.3 288.9,45.4 290.5,47.3C290.8,47.7 291.6,48.8 292.3,49.8C293,50.8 293.6,51.7 293.6,51.7C293.7,51.7 293.4,49.5 293.1,48C292.8,46.6 292.1,43.8 292,43.7C292,43.7 291.6,43.7 291.2,43.8C290.1,44 288.4,43.9 287.3,43.7C284.9,43.2 283.4,42.3 281.8,40.7C281.1,39.9 279.9,38.3 279.7,37.8C279.7,37.7 280,37.6 281.1,37.3C281.7,37.2 283.2,37.2 283.9,37.3C285.6,37.7 287.6,38.6 289,39.8C289.6,40.3 290.8,41.4 291.1,41.9C291.4,42.3 291.5,42.4 291.4,42.1C291.4,42 291.1,41.4 290.9,40.7C290.4,39.3 289.4,36.7 289.3,36.6C289.3,36.6 289,36.6 288.6,36.7C286.6,37.1 284.5,37 282.5,36.5C280.4,35.9 278.4,34.3 276.7,31.9L276.4,31.4L276.6,31.3C278.5,30.6 280,30.5 281.9,30.9C284.2,31.5 286.3,32.7 288.1,34.5C288.6,35 288.7,35.1 288.7,34.9C288.3,33.9 287.4,32.3 286.8,31.2C286.1,30 284.9,28.3 284.8,28.3C284.8,28.3 284.5,28.4 284.3,28.5C282.5,29.3 279.1,29.3 276.7,28.6C276.1,28.4 275.1,27.9 274.5,27.5C274,27.2 273.2,26.5 272.9,26.1L272.7,25.8L273.2,25.5C274.6,24.8 276.1,24.5 278,24.8C279.4,25 280.4,25.3 281.6,25.8C282.4,26.2 283.2,26.7 283.7,27.1C283.9,27.2 284,27.3 284,27.3C284.1,27.3 280.9,23.2 280.2,22.3L280,22L279.3,22.2C278.5,22.5 277.3,22.7 276.2,22.7C275.3,22.8 273.6,22.6 272.7,22.5C270.8,22.1 268.9,21.1 267.6,19.9C267.3,19.6 267.1,19.4 267.1,19.4C267.1,19.3 267.8,19 268.3,18.8C269.5,18.4 271,18.2 272.4,18.4C274.7,18.6 276.5,19.2 278.3,20.4C278.7,20.6 279,20.8 279,20.8C279,20.7 275.9,17.3 275.2,16.7L274.7,16.2L273.4,16.2C271.4,16.1 269.8,15.9 268.5,15.4C266.9,14.8 264.4,12.5 262.9,10.3C262.5,9.7 262.3,9.2 262.4,9.1C262.5,9 263.3,8.8 263.9,8.7C264.7,8.6 266,8.6 266.8,8.8C268.6,9.2 269.8,9.9 271.6,11.6C272.9,12.9 273.8,14 274.5,15.1C274.8,15.5 275.2,16 276.4,17.2L277.7,18.5L277.3,17.8C277.1,17.4 276.8,16.8 276.6,16.3C276,14.8 275.7,13.6 275.7,11.6C275.6,9.7 275.9,7.9 276.3,6.9L276.4,6.6L276.7,6.9C277.8,7.8 278.9,9.3 279.4,11C279.8,12.3 279.9,13.1 279.9,14.9C279.9,16.9 279.7,18.3 279.3,19.6L279.1,20.2L279.6,20.8C280.4,21.7 281.6,23.1 282.5,24.3C283.8,26 283.8,25.9 283.3,25C282.6,23.5 282.1,21.9 281.8,20.6C281.7,19.8 281.7,18.1 281.8,17.1C282,15.8 282.6,13.6 282.8,13.5C283,13.4 284.1,14.4 284.6,15.1C285.2,15.9 285.6,17 285.9,18.1C286.4,20.7 286,24.1 284.8,26.7L284.6,27.2L285.1,28C285.8,29 287.2,31 287.9,32.3C288.2,32.9 288.5,33.4 288.6,33.4C288.7,33.4 288.6,33.3 288.5,33.1C288.3,32.4 288,31.2 287.9,30.3C287.8,29.2 287.8,27.2 288,26.3C288.4,24.4 289.3,22.8 290.6,21.6C290.9,21.3 291.2,21 291.3,21C291.4,20.9 291.5,21 291.7,21.2C292.9,22.5 293.5,25 293.3,27.2C293.1,29.4 292.4,31.3 291.5,32.5C291,33.2 290.2,34 289.6,34.3L289.2,34.5L290,36.1C290.7,37.6 291.7,39.9 292.1,40.8C292.2,41 292.3,41.2 292.3,41.2C292.3,41.2 292.3,41 292.2,40.7C292.2,40.4 292.1,39.4 292.1,38.5C292.1,36.5 292.2,35.7 292.6,34.5C293.1,32.8 294.2,31.5 295.5,30.6C296.1,30.2 296.8,29.9 297,29.9C297.1,29.9 297.2,30.4 297.4,31.6C297.5,32.4 297.5,35.1 297.4,35.9C297.2,36.9 297,37.7 296.6,38.5C296.3,39.3 295.5,40.6 295,41.3C294.5,41.9 293.7,42.8 293.3,43.1L293,43.3L293.3,44.4C293.7,45.8 294.1,47.5 294.3,48.8C294.4,49.3 294.5,49.8 294.5,49.8L294.5,49.4C294.5,48.8 294.7,47.1 294.9,46.2C295.4,43.6 296.2,41.9 297.6,40.5C298.5,39.6 299.8,38.8 301,38.4L301.6,38.2L301.6,38.4C301.7,38.8 301.7,41.1 301.6,41.9C301.4,43.8 300.8,45.4 300,46.7C298.7,48.8 296.8,50.6 295.2,51.2C294.8,51.4 294.7,51.4 294.7,51.5C294.7,51.6 294.8,52.1 294.8,52.7C294.9,54.5 294.9,56.2 294.7,58.6L294.7,59.1L294.9,58.7C295,58.5 295.4,57.4 295.7,56.4C296.6,53.7 297.2,52.5 298.2,51.3C299.7,49.6 301.9,48.5 304.3,48.4L305,48.4L305,48.8C304.9,49.4 304.5,50.9 304.2,51.7C303.4,53.8 302.3,55.4 300.8,56.7C299.1,58.1 296.9,59.3 295.2,59.7C294.9,59.8 294.6,59.8 294.6,59.9C294.6,59.9 294.5,60.3 294.4,60.7C294.3,61.6 293.9,63.5 293.7,64.3C293.6,64.6 293.6,64.8 293.6,64.8C293.6,64.8 293.8,64.5 294.1,64.2C294.4,63.9 295,63.2 295.5,62.7C297.6,60.6 299.4,59.5 301.5,58.9C302.1,58.7 302.3,58.7 303.4,58.7C304.7,58.7 305.2,58.8 306,59.2L306.7,59.5L306.5,59.9C305.2,61.9 303.4,63.6 301.6,64.6C299,66 296.3,66.4 294.2,65.9C293.9,65.8 293.7,65.8 293.7,65.8C293.7,65.8 293.5,66.2 293.4,66.7C293,67.9 292.4,69.3 291.8,70.4L291.3,71.3L292,70.7C294.7,68.5 297.6,67.3 300.1,67.3C301.5,67.3 302.5,67.6 303.5,68.2C304,68.5 304.8,69.2 304.8,69.3C304.8,69.4 303.8,70.3 303.1,70.8C301,72.3 298.6,73.2 296,73.4C295,73.5 294,73.4 293.1,73.2C292.5,73 291.5,72.6 291.1,72.2L290.8,72L290.2,72.9C289.2,74.5 287.8,76.3 286.4,78C286,78.4 285.7,78.8 285.6,78.9C285.5,79 285.8,78.8 286.2,78.5C288.1,77.1 290,76.2 291.6,75.8C292.7,75.6 294.3,75.5 295.2,75.7C296.4,75.9 297.5,76.5 298.2,77.3C298.5,77.6 298.6,77.7 298.5,77.8C298.4,78 297.4,78.8 296.8,79.2C295.7,80 294.5,80.5 293.1,81C291,81.7 289,81.7 287.4,81.2C286.6,80.9 285.5,80.3 285.1,79.8L284.9,79.6L283.2,81.3C282.3,82.2 281.2,83.3 280.7,83.7L280,84.4L280.5,84.2C281.5,83.8 281.9,83.7 282.8,83.5C284.4,83.1 284.8,83 286.5,83C288.2,83 288.8,83.1 289.9,83.5C291.2,84 292.2,84.9 292.4,85.9C292.4,86.1 292.4,86.1 291.9,86.3C290.4,87 288.5,87.4 286.1,87.4C283.9,87.4 282.4,87 281.1,86.2C280.6,85.9 280,85.2 279.8,84.9L279.7,84.7L279,85.3C277.6,86.5 275.9,87.7 274.1,88.8C273.7,89 273.4,89.2 273.4,89.2C273.4,89.2 273.7,89.1 274,89.1C276.8,88.4 279.7,88.3 281.6,88.8C283.4,89.3 284.8,90.3 285.4,91.5C285.8,92.3 285.8,92.3 285.6,92.4C283.6,93.3 279.9,93.5 277.2,92.7C275.5,92.2 274,91.2 273.1,90C272.9,89.8 272.8,89.6 272.8,89.6C272.8,89.6 272,90 271.1,90.5C268.4,91.8 265.1,93.3 262.4,94.2L262,94.4L261.6,93.5Z" style="fill:white;fill-rule:nonzero;"/>
                        </g>
                    </g>
                    <g transform="matrix(1.30791,0,0,1.30791,-32.4848,-39.4568)">
                        <g transform="matrix(1,0,0,1,98.8,77.5)">
                            <path d="M33.393,23.582C33.783,23.114 34.162,22.65 34.5,22.2C35,21.6 35.2,21.3 35.2,21.3C34.4,19.3 34.1,15.8 34.6,13.4C35,11.5 35.9,9.8 37.2,8.6C37.5,8.3 37.8,8.1 37.8,8.1C38,8.1 38.4,9.5 38.6,10.9C38.7,11.7 38.7,13.3 38.6,14.2C38.4,16 37.9,17.7 36.9,19.3L36.8,19.5L38.3,17.9C39.4,16.8 39.9,16.2 40.1,15.9C40.8,14.8 41.8,13.6 43.1,12.3C44.5,10.9 45.4,10.3 46.6,9.8C48.2,9.2 50.1,9.1 51.7,9.6C52,9.7 52.2,9.8 52.2,9.8C52.2,9.9 52,10.4 51.6,11C50.5,12.7 48.7,14.5 47.1,15.5C45.8,16.4 43.8,16.8 41.1,16.9L39.8,16.9L39.3,17.4C38.7,18 37.6,19.1 36.3,20.6C35.4,21.6 35.2,21.9 35.5,21.6C35.7,21.4 36.8,20.7 37.3,20.4C39.8,19.2 42.8,18.8 45.4,19.4C46.2,19.6 47.2,20 47.2,20.2C47.2,20.3 46.4,21.1 45.8,21.5C44.1,22.8 42.3,23.4 39.9,23.6C38.1,23.7 36.4,23.5 35,23.1C34.6,23 34.3,22.9 34.2,22.9C34.1,22.9 30.1,28.1 30.1,28.1C30.1,28.1 30.3,28 30.6,27.8C31.8,26.9 33.5,26.1 34.9,25.8C37.4,25.3 39.2,25.4 40.9,26.3L41.4,26.6L41.2,26.9C40.4,27.9 38.8,29 37.3,29.4C34.9,30.2 31.6,30.1 29.9,29.3C29.7,29.2 29.5,29.1 29.4,29.1C29.3,29.1 27.9,31.2 27.2,32.5C26.7,33.3 25.4,35.9 25.4,36C25.4,36 25.7,35.7 26.1,35.3C26.8,34.6 28,33.6 28.8,33.2C30.9,32 33.3,31.3 35.1,31.5C35.8,31.6 36.8,31.8 37.4,32.1L37.7,32.2L37.4,32.7C36.1,34.6 34.6,35.9 32.9,36.7C30.9,37.7 27.7,38 25.4,37.4L24.9,37.3L24.6,38.1C23.9,39.8 22.7,43 22.7,43.1C22.7,43.1 22.9,42.9 23,42.7C23.5,42.1 24.5,41.1 25.1,40.6C25.9,40 26.5,39.6 27.5,39.1C29.2,38.3 30.2,38 31.7,38C32.6,38 32.9,38 33.9,38.3C34.5,38.5 34.5,38.4 34,39.2C31.7,42.8 28.9,44.5 24.8,44.6C23.9,44.6 23.5,44.6 22.9,44.5L22.4,44.5C22.3,44.6 21.6,47.4 21.3,48.8C21,50.5 20.7,52.6 20.9,52.5C21,52.4 22.1,50.7 22.6,50C23.5,48.6 25.1,46.8 26.1,46.1C27,45.5 28,45 29,44.8C29.6,44.7 30.9,44.7 31.9,44.8C32.4,44.9 32.8,44.9 32.8,44.9C32.9,44.9 31.9,46.5 31.4,47.4C29,51 26,52.8 21.9,52.9L21,52.9L20.9,53.9L20.9,56.4C21,57.9 21.2,59.8 21.2,60C21.2,60.1 21.5,59.6 22,58.8C22.9,57.3 23.5,56.3 24.2,55.4C26,53.1 27.4,52.3 29.6,52C30.3,51.9 31.8,51.9 31.8,52C31.9,52.1 31.4,53.2 30.9,54.1C30.4,55.1 29.6,56.2 28.9,57.1C27,59.3 25,60.4 22.3,60.6C21.8,60.6 21.4,60.7 21.4,60.7C21.4,60.7 21.6,61.9 21.9,63C22.2,64.1 22.9,66.3 23,66.4C23.1,66.4 23.7,65.4 24.4,64C25.9,61 27.1,59.5 28.7,58.7C29.3,58.4 30.1,58.1 30.7,58C31.1,57.9 32.9,57.7 32.9,57.8C32.9,57.8 32.8,58.2 32.6,58.6C32,60.2 31.3,61.7 30.4,62.8C28.7,65.1 27.3,66 24.6,66.5C24.1,66.6 23.6,66.7 23.4,66.7L23.1,66.8L23.3,67.3C23.8,68.5 24.8,70.4 25.6,71.8C26.2,72.7 26.2,72.7 26.2,72.6C26.3,72.3 26.8,71 27.1,69.7C27.5,68.1 27.8,67.4 28.2,66.7C29.3,64.8 30.6,63.8 32.2,63.5C32.9,63.4 33.6,63.3 33.6,63.4C33.6,63.4 33.5,63.8 33.4,64.1C33.3,64.5 33,65.4 32.7,66.1C32.2,67.6 31.9,68.3 31.2,69.5C30.2,71 29.3,71.8 27.2,72.7L26.3,73.1L26.4,73.3C27,74.3 28.3,76 29.4,77.4L30,78.1L30.1,77.7C30.1,77.5 30.2,76.5 30.3,75.7C30.4,73.5 30.5,72.8 31.3,71.4C31.9,70.2 32.7,69.3 33.8,68.8C34.3,68.6 35.4,68.2 35.5,68.2L35.5,69.5C35.4,71.8 35.2,72.8 34.5,74.1C33.9,75.4 33.1,76.2 31.3,77.6L30.3,78.4L30.8,78.9C32,80.3 33.3,81.6 35.4,83.6L35.7,83.9L35.4,83.5C35.1,82.9 34.8,81.8 34.7,81C34.6,80.3 34.6,79.9 34.6,78.5C34.6,77 34.6,76.8 34.8,76.2C35,75.2 35.4,74.5 36.1,73.9C36.7,73.3 37.4,72.9 37.9,72.8C38.1,72.8 38.1,72.8 38.3,73.3C38.9,74.8 39.2,76.7 39.1,78.2C38.9,80.8 37.9,82.9 36.5,83.8C36.3,83.9 36.1,84.1 36.1,84.1C36.1,84.2 37.5,85.4 38.4,86.1C39.1,86.7 41.3,88.2 41.4,88.1C41.4,88.1 41.3,87.9 41.2,87.6C40.7,86.4 40.4,84.7 40.3,83.2C40.2,81 40.7,79.3 41.6,78.3C42,77.9 42.7,77.5 43.1,77.4C43.3,77.4 43.3,77.4 43.5,77.8C44.2,79.5 44.5,81 44.4,82.9C44.3,85.2 43.6,87.1 42.4,88.2L42.1,88.5L42.9,88.9C45.3,90.3 49,91.9 52.1,93.1C52.7,93.3 53.2,93.5 53.2,93.5C53.3,93.6 52.7,95.1 52.6,95.1C52.4,95.3 52.1,95.1 51.8,95C47.8,93.5 46.1,92.8 43.6,91.5C42.5,91 41.7,90.5 41.6,90.5C41.6,90.5 41.4,90.7 41.3,90.9C41,91.4 40.2,92.1 39.6,92.5C37.9,93.6 35.4,94.2 32.7,94.1C31.5,94.1 30.6,93.9 29.7,93.6C28.6,93.2 28.5,93.2 28.8,92.5C29.5,91 31,90 33.3,89.5C34.1,89.3 36,89.3 37.2,89.4C38,89.5 39.5,89.7 40.2,89.9C40.4,90 40.7,90 40.8,90C40.9,90 40.6,89.8 40,89.4C38.2,88.3 36.7,87.2 35.3,86.1L34.7,85.7L34.5,86.1C33.9,87 32.8,87.7 31.4,88.1C30.5,88.3 29.6,88.4 28.3,88.4C25.9,88.4 24.1,88 22.5,87.3C22.2,87.1 22,87 22,86.9C22,86.7 22.4,86 22.7,85.7C23.3,85 24.4,84.4 25.8,84.2C26.6,84 28.5,84 29.4,84.1C30.7,84.3 32.4,84.7 33.7,85.2C34.1,85.3 34.4,85.5 34.4,85.4C34.4,85.4 33.9,84.9 33.4,84.4C32.8,83.9 31.7,82.8 31,82L29.6,80.6L29.3,80.9C28.1,82 26.3,82.5 24.3,82.4C21.6,82.3 18.2,80.8 16.4,79.1L15.7,78.6L16.1,78.2C16.7,77.5 17.6,77 18.7,76.7C19.2,76.6 19.4,76.5 20.6,76.6C21.8,76.6 22,76.6 22.7,76.8C23.1,76.9 23.8,77.1 24.1,77.2C25.3,77.6 27,78.6 28.3,79.5C28.9,79.9 28.9,79.9 28.6,79.7C27.3,78.2 26.5,77.2 25.9,76.4C25.2,75.4 23.6,73.1 23.6,73C23.6,73 23.5,73 23.3,73.2C22.9,73.5 21.9,74 21.3,74.2C20.4,74.4 19.4,74.5 18.4,74.4C15.3,74.1 12.4,72.9 10.2,70.9C9.9,70.6 9.6,70.3 9.6,70.3C9.6,70.2 10.4,69.5 10.9,69.2C12,68.6 13,68.3 14.3,68.3C15.4,68.3 16.2,68.4 17.4,68.8C19,69.3 20.8,70.4 22.4,71.6L23.1,72.2L22.6,71.2C22,70.1 21.4,68.7 21,67.5C20.8,67 20.7,66.7 20.7,66.6C20.7,66.6 20.5,66.6 20.2,66.7C18.2,67.2 15.5,66.8 13,65.6C11.1,64.6 9.2,62.9 7.9,60.8L7.7,60.5L8.1,60.3C9.1,59.9 10.7,59.7 12,59.9C13.7,60.2 15.4,61 17.1,62.4C17.9,63.1 19.3,64.5 20,65.3C20.3,65.7 20.5,66 20.6,66L20.6,65.9C20.5,65.8 20.1,63.5 19.9,62.3L19.7,61L19.3,60.9C17.6,60.6 15.2,59.3 13.5,57.9C11.7,56.5 10.6,54.9 9.8,52.5C9.6,51.8 9.3,50.6 9.2,50L9.1,49.6L9.9,49.6C12.5,49.7 14.8,51 16.3,53C17.2,54.2 17.6,55.1 18.5,57.7C18.8,58.7 19.2,59.7 19.3,59.9L19.5,60.3L19.5,59.9C19.3,58 19.3,57 19.4,55.5C19.4,54.5 19.5,53.5 19.5,53.2L19.5,52.7L19,52.5C16.8,51.6 14.3,48.8 13.3,46.1C13.1,45.4 12.8,44.5 12.7,43.6C12.6,42.9 12.5,40.4 12.6,39.8L12.6,39.4L12.9,39.5C15.5,40.2 17.5,42.1 18.5,44.6C19,45.9 19.6,48.8 19.6,50.4C19.6,50.9 19.7,50.8 19.9,49.4C20.1,48.3 20.7,45.9 21,44.9L21.2,44.3L20.9,44.2C20.5,44 19.7,43.2 19.2,42.5C18.3,41.3 17.4,39.4 17.1,38.2C16.7,36.9 16.7,36.4 16.7,34.7C16.7,33.7 16.7,32.9 16.8,32.6C17,31.4 17.1,30.9 17.2,30.9C17.3,30.8 18.1,31.2 18.8,31.6C20.5,32.7 21.6,34.5 22,36.8C22.2,37.8 22.2,39.6 22.1,41C22.1,41.6 22,42 22,42.1C22,42.1 22.2,41.8 22.4,41.3C22.9,40 23.8,38 24.4,36.8L25,35.6L24.6,35.4C24.1,35.1 22.9,34 22.5,33.3C21.7,32 21.1,30.2 20.9,28.2C20.7,26 21.3,23.6 22.5,22.3C22.7,22 22.8,22 22.9,22.1C23,22.1 23.3,22.4 23.6,22.7C24.9,23.9 25.7,25.5 26.2,27.4C26.4,28.3 26.4,30.3 26.3,31.4C26.2,32.3 25.9,33.5 25.7,34.2C25.642,34.315 25.618,34.43 25.608,34.488L25.6,34.5C25.6,34.542 25.6,34.531 25.608,34.488C25.666,34.401 26.033,33.843 26.4,33.2C27.2,31.9 28.4,30 29.2,29C29.4,28.7 29.6,28.4 29.6,28.4C29.6,28.4 29.5,28.1 29.4,27.9C28.2,25.2 27.7,21.8 28.3,19.2C28.6,17.8 29.3,16.6 30.1,15.7C30.5,15.3 31.2,14.7 31.3,14.7C31.6,14.7 32.2,17.1 32.4,18.6C32.5,19.4 32.5,21.1 32.4,21.8C32.2,23.2 31.6,24.8 30.9,26.3C30.7,26.7 30.6,27 30.6,27C30.6,27 31,26.5 31.5,25.9C31.837,25.45 32.217,24.986 32.607,24.518L33.393,23.582Z" style="fill-rule:nonzero;"/>
                        </g>
                        <g transform="matrix(1,0,0,1,98.8,76.5)">
                            <path d="M24.608,33.488C24.666,33.401 25.033,32.843 25.4,32.2C26.2,30.9 27.4,29 28.2,28C28.4,27.7 28.6,27.4 28.6,27.4C28.6,27.4 28.5,27.1 28.4,26.9C27.2,24.2 26.7,20.8 27.3,18.2C27.6,16.8 28.3,15.6 29.1,14.7C29.5,14.3 30.2,13.7 30.3,13.7C30.6,13.7 31.2,16.1 31.4,17.6C31.5,18.4 31.5,20.1 31.4,20.8C31.2,22.2 30.6,23.8 29.9,25.3C29.7,25.7 29.6,26 29.6,26C29.6,26 30,25.5 30.5,24.9C31.4,23.7 32.6,22.4 33.5,21.2C34,20.6 34.2,20.3 34.2,20.3C33.4,18.3 33.1,14.8 33.6,12.4C34,10.5 34.9,8.8 36.2,7.6C36.5,7.3 36.8,7.1 36.8,7.1C37,7.1 37.4,8.5 37.6,9.9C37.7,10.7 37.7,12.3 37.6,13.2C37.4,15 36.9,16.7 35.9,18.3L35.8,18.5L37.3,16.9C38.4,15.8 38.9,15.2 39.1,14.9C39.8,13.8 40.8,12.6 42.1,11.3C43.5,9.9 44.4,9.3 45.6,8.8C47.2,8.2 49.1,8.1 50.7,8.6C51,8.7 51.2,8.8 51.2,8.8C51.2,8.9 51,9.4 50.6,10C49.5,11.7 47.7,13.5 46.1,14.5C44.8,15.4 42.8,15.8 40.1,15.9L38.8,15.9L38.3,16.4C37.7,17 36.6,18.1 35.3,19.6C34.4,20.6 34.2,20.9 34.5,20.6C34.7,20.4 35.8,19.7 36.3,19.4C38.8,18.2 41.8,17.8 44.4,18.4C45.2,18.6 46.2,19 46.2,19.2C46.2,19.3 45.4,20.1 44.8,20.5C43.1,21.8 41.3,22.4 38.9,22.6C37.1,22.7 35.4,22.5 34,22.1C33.6,22 33.3,21.9 33.2,21.9C33.1,21.9 29.1,27.1 29.1,27.1C29.1,27.1 29.3,27 29.6,26.8C30.8,25.9 32.5,25.1 33.9,24.8C36.4,24.3 38.2,24.4 39.9,25.3L40.4,25.6L40.2,25.9C39.4,26.9 37.8,28 36.3,28.4C33.9,29.2 30.6,29.1 28.9,28.3C28.7,28.2 28.5,28.1 28.4,28.1C28.3,28.1 26.9,30.2 26.2,31.5C25.7,32.3 24.4,34.9 24.4,35C24.4,35 24.7,34.7 25.1,34.3C25.8,33.6 27,32.6 27.8,32.2C29.9,31 32.3,30.3 34.1,30.5C34.8,30.6 35.8,30.8 36.4,31.1L36.7,31.2L36.4,31.7C35.1,33.6 33.6,34.9 31.9,35.7C29.9,36.7 26.7,37 24.4,36.4L23.9,36.3L23.6,37.1C22.9,38.8 21.7,42 21.7,42.1C21.7,42.1 21.9,41.9 22,41.7C22.5,41.1 23.5,40.1 24.1,39.6C24.9,39 25.5,38.6 26.5,38.1C28.2,37.3 29.2,37 30.7,37C31.6,37 31.9,37 32.9,37.3C33.5,37.5 33.5,37.4 33,38.2C30.7,41.8 27.9,43.5 23.8,43.6C22.9,43.6 22.5,43.6 21.9,43.5L21.4,43.5C21.3,43.6 20.6,46.4 20.3,47.8C20,49.5 19.7,51.6 19.9,51.5C20,51.4 21.1,49.7 21.6,49C22.5,47.6 24.1,45.8 25.1,45.1C26,44.5 27,44 28,43.8C28.6,43.7 29.9,43.7 30.9,43.8C31.4,43.9 31.8,43.9 31.8,43.9C31.9,43.9 30.9,45.5 30.4,46.4C28,50 25,51.8 20.9,51.9L20,51.9L19.9,52.9L19.9,55.4C20,56.9 20.2,58.8 20.2,59C20.2,59.1 20.5,58.6 21,57.8C21.9,56.3 22.5,55.3 23.2,54.4C25,52.1 26.4,51.3 28.6,51C29.3,50.9 30.8,50.9 30.8,51C30.9,51.1 30.4,52.2 29.9,53.1C29.4,54.1 28.6,55.2 27.9,56.1C26,58.3 24,59.4 21.3,59.6C20.8,59.6 20.4,59.7 20.4,59.7C20.4,59.7 20.6,60.9 20.9,62C21.2,63.1 21.9,65.3 22,65.4C22.1,65.4 22.7,64.4 23.4,63C24.9,60 26.1,58.5 27.7,57.7C28.3,57.4 29.1,57.1 29.7,57C30.1,56.9 31.9,56.7 31.9,56.8C31.9,56.8 31.8,57.2 31.6,57.6C31,59.2 30.3,60.7 29.4,61.8C27.7,64.1 26.3,65 23.6,65.5C23.1,65.6 22.6,65.7 22.4,65.7L22.1,65.8L22.3,66.3C22.8,67.5 23.8,69.4 24.6,70.8C25.2,71.7 25.2,71.7 25.2,71.6C25.3,71.3 25.8,70 26.1,68.7C26.5,67.1 26.8,66.4 27.2,65.7C28.3,63.8 29.6,62.8 31.2,62.5C31.9,62.4 32.6,62.3 32.6,62.4C32.6,62.4 32.5,62.8 32.4,63.1C32.3,63.5 32,64.4 31.7,65.1C31.2,66.6 30.9,67.3 30.2,68.5C29.2,70 28.3,70.8 26.2,71.7L25.3,72.1L25.4,72.3C26,73.3 27.3,75 28.4,76.4L29,77.1L29.1,76.7C29.1,76.5 29.2,75.5 29.3,74.7C29.4,72.5 29.5,71.8 30.3,70.4C30.9,69.2 31.7,68.3 32.8,67.8C33.3,67.6 34.4,67.2 34.5,67.2L34.5,68.5C34.4,70.8 34.2,71.8 33.5,73.1C32.9,74.4 32.1,75.2 30.3,76.6L29.3,77.4L29.8,77.9C31,79.3 32.3,80.6 34.4,82.6L34.7,82.9L34.4,82.5C34.1,81.9 33.8,80.8 33.7,80C33.6,79.3 33.6,78.9 33.6,77.5C33.6,76 33.6,75.8 33.8,75.2C34,74.2 34.4,73.5 35.1,72.9C35.7,72.3 36.4,71.9 36.9,71.8C37.1,71.8 37.1,71.8 37.3,72.3C37.9,73.8 38.2,75.7 38.1,77.2C37.9,79.8 36.9,81.9 35.5,82.8C35.3,82.9 35.1,83.1 35.1,83.1C35.1,83.2 36.5,84.4 37.4,85.1C38.1,85.7 40.3,87.2 40.4,87.1C40.4,87.1 40.3,86.9 40.2,86.6C39.7,85.4 39.4,83.7 39.3,82.2C39.2,80 39.7,78.3 40.6,77.3C41,76.9 41.7,76.5 42.1,76.4C42.3,76.4 42.3,76.4 42.5,76.8C43.2,78.5 43.5,80 43.4,81.9C43.3,84.2 42.6,86.1 41.4,87.2L41.1,87.5L41.9,87.9C44.3,89.3 48,90.9 51.1,92.1C51.7,92.3 52.2,92.5 52.2,92.5C52.3,92.6 51.7,94.1 51.6,94.1C51.4,94.3 51.1,94.1 50.8,94C46.8,92.5 45.1,91.8 42.6,90.5C41.5,90 40.7,89.5 40.6,89.5C40.6,89.5 40.4,89.7 40.3,89.9C40,90.4 39.2,91.1 38.6,91.5C36.9,92.6 34.4,93.2 31.7,93.1C30.5,93.1 29.6,92.9 28.7,92.6C27.6,92.2 27.5,92.2 27.8,91.5C28.5,90 30,89 32.3,88.5C33.1,88.3 35,88.3 36.2,88.4C37,88.5 38.5,88.7 39.2,88.9C39.4,89 39.7,89 39.8,89C39.9,89 39.6,88.8 39,88.4C37.2,87.3 35.7,86.2 34.3,85.1L33.7,84.7L33.5,85.1C32.9,86 31.8,86.7 30.4,87.1C29.5,87.3 28.6,87.4 27.3,87.4C24.9,87.4 23.1,87 21.5,86.3C21.2,86.1 21,86 21,85.9C21,85.7 21.4,85 21.7,84.7C22.3,84 23.4,83.4 24.8,83.2C25.6,83 27.5,83 28.4,83.1C29.7,83.3 31.4,83.7 32.7,84.2C33.1,84.3 33.4,84.5 33.4,84.4C33.4,84.4 32.9,83.9 32.4,83.4C31.8,82.9 30.7,81.8 30,81L28.6,79.6L28.3,79.9C27.1,81 25.3,81.5 23.3,81.4C20.6,81.3 17.2,79.8 15.4,78.1L14.7,77.6L15.1,77.2C15.7,76.5 16.6,76 17.7,75.7C18.2,75.6 18.4,75.5 19.6,75.6C20.8,75.6 21,75.6 21.7,75.8C22.1,75.9 22.8,76.1 23.1,76.2C24.3,76.6 26,77.6 27.3,78.5C27.9,78.9 27.9,78.9 27.6,78.7C26.3,77.2 25.5,76.2 24.9,75.4C24.2,74.4 22.6,72.1 22.6,72C22.6,72 22.5,72 22.3,72.2C21.9,72.5 20.9,73 20.3,73.2C19.4,73.4 18.4,73.5 17.4,73.4C14.3,73.1 11.4,71.9 9.2,69.9C8.9,69.6 8.6,69.3 8.6,69.3C8.6,69.2 9.4,68.5 9.9,68.2C11,67.6 12,67.3 13.3,67.3C14.4,67.3 15.2,67.4 16.4,67.8C18,68.3 19.8,69.4 21.4,70.6L22.1,71.2L21.6,70.2C21,69.1 20.4,67.7 20,66.5C19.8,66 19.7,65.7 19.7,65.6C19.7,65.6 19.5,65.6 19.2,65.7C17.2,66.2 14.5,65.8 12,64.6C10.1,63.6 8.2,61.9 6.9,59.8L6.7,59.5L7.1,59.3C8.1,58.9 9.7,58.7 11,58.9C12.7,59.2 14.4,60 16.1,61.4C16.9,62.1 18.3,63.5 19,64.3C19.3,64.7 19.5,65 19.6,65L19.6,64.9C19.5,64.8 19.1,62.5 18.9,61.3L18.7,60L18.3,59.9C16.6,59.6 14.2,58.3 12.5,56.9C10.7,55.5 9.6,53.9 8.8,51.5C8.6,50.8 8.3,49.6 8.2,49L8.1,48.6L8.9,48.6C11.5,48.7 13.8,50 15.3,52C16.2,53.2 16.6,54.1 17.5,56.7C17.8,57.7 18.2,58.7 18.3,58.9L18.5,59.3L18.5,58.9C18.3,57 18.3,56 18.4,54.5C18.4,53.5 18.5,52.5 18.5,52.2L18.5,51.7L18,51.5C15.8,50.6 13.3,47.8 12.3,45.1C12.1,44.4 11.8,43.5 11.7,42.6C11.6,41.9 11.5,39.4 11.6,38.8L11.6,38.4L11.9,38.5C14.5,39.2 16.5,41.1 17.5,43.6C18,44.9 18.6,47.8 18.6,49.4C18.6,49.9 18.7,49.8 18.9,48.4C19.1,47.3 19.7,44.9 20,43.9L20.2,43.3L19.9,43.2C19.5,43 18.7,42.2 18.2,41.5C17.3,40.3 16.4,38.4 16.1,37.2C15.7,35.9 15.7,35.4 15.7,33.7C15.7,32.7 15.7,31.9 15.8,31.6C16,30.4 16.1,29.9 16.2,29.9C16.3,29.8 17.1,30.2 17.8,30.6C19.5,31.7 20.6,33.5 21,35.8C21.2,36.8 21.2,38.6 21.1,40C21.1,40.6 21,41 21,41.1C21,41.1 21.2,40.8 21.4,40.3C21.9,39 22.8,37 23.4,35.8L24,34.6L23.6,34.4C23.1,34.1 21.9,33 21.5,32.3C20.7,31 20.1,29.2 19.9,27.2C19.7,25 20.3,22.6 21.5,21.3C21.7,21 21.8,21 21.9,21.1C22,21.1 22.3,21.4 22.6,21.7C23.9,22.9 24.7,24.5 25.2,26.4C25.4,27.3 25.4,29.3 25.3,30.4C25.2,31.3 24.9,32.5 24.7,33.2C24.642,33.315 24.618,33.43 24.608,33.488L24.6,33.5C24.6,33.542 24.6,33.531 24.608,33.488Z" style="fill:white;fill-rule:nonzero;"/>
                        </g>
                    </g>
                </g>
            </g>
        </g>
    </g>
</svg>
