<?xml version="1.0" encoding="UTF-8" standalone="no"?>
<!DOCTYPE svg PUBLIC "-//W3C//DTD SVG 1.1//EN" "http://www.w3.org/Graphics/SVG/1.1/DTD/svg11.dtd">
<svg width="100%" height="100%" viewBox="0 0 2048 1024" version="1.1" xmlns="http://www.w3.org/2000/svg" xmlns:xlink="http://www.w3.org/1999/xlink" xml:space="preserve" xmlns:serif="http://www.serif.com/" style="fill-rule:evenodd;clip-rule:evenodd;stroke-linejoin:round;stroke-miterlimit:2;">
    <g id="logo" transform="matrix(4,0,0,4,0,0)">
        <rect x="0" y="0" width="512" height="256" style="fill:none;"/>
        <g transform="matrix(1,0,0,1,41.3749,-69.6631)">
            <g id="estrella">
                <g>
                    <g transform="matrix(1.14583,0,0,1.14583,-13.4792,117.501)">
                        <path d="M113,-16L134.553,50.334L204.301,50.334L147.874,91.331L169.427,157.666L113,116.669L56.573,157.666L78.126,91.331L21.699,50.334L91.447,50.334L113,-16Z" style="fill:rgb(229,229,229);"/>
                    </g>
                    <path d="M161.816,240.175L180.656,298.159L116,251.183L51.344,298.159L70.184,240.175L161.816,240.175ZM220.616,175.175L171.308,211L87.884,211L87.884,175.175L11.384,175.175L220.616,175.175ZM131.217,146L100.783,146L116,99.167L131.217,146Z" style="fill:rgb(13,121,242);"/>
                    <path d="M36.08,193.118L11.384,175.175L91.303,175.175L96.51,159.151L164.384,193.088L70.179,240.19L76.04,222.151C76.04,222.151 70.21,204.208 70.21,204.208L85.473,193.118L66.607,193.118L60.777,175.175L54.947,193.118L36.08,193.118Z" style="fill:rgb(242,13,13);"/>
                </g>
            </g>
            <g transform="matrix(1.03467,0,0,1,-2.94704,1.58886)">
                <rect x="85" y="253.562" width="59.922" height="12.745" style="fill:rgb(34,34,34);"/>
            </g>
            <path d="M387.867,267.897L387.867,153.175L359.272,153.175L359.272,165.921L375.121,165.921L375.121,255.151L359.272,255.151L359.272,267.897L387.867,267.897Z" style="fill:rgb(34,34,34);"/>
            <g>
                <g>
                    <path d="M147,221.167L127,221.167L127,222.159C127,228.23 122.071,233.159 116,233.159C109.929,233.159 105,228.23 105,222.159L105,204.175C105,198.104 109.929,193.175 116,193.175C122.071,193.175 127,198.104 127,204.175L127,205.167L147,205.167L147,203.175C147,189.929 136.246,179.175 123,179.175L109,179.175C95.754,179.175 85,189.929 85,203.175L85,223.159C85,236.405 95.754,247.159 109,247.159L123,247.159C136.246,247.159 147,236.405 147,223.159L147,221.167Z" style="fill:rgb(34,34,34);"/>
                    <path d="M194,179.175L194,222.159C194,228.23 189.071,233.159 183,233.159C176.929,233.159 172,228.23 172,222.159L172,179.175L153,179.175L153,223.159C153,236.405 163.754,247.159 177,247.159C183.64,247.159 189.654,244.457 194,240.093L194,247.159L213,247.159L213,179.175L194,179.175Z" style="fill:rgb(34,34,34);"/>
                    <path d="M244,186.998L244,153.175L225,153.175L225,247.159L244,247.159L244,239.337C248.304,244.137 254.552,247.159 261.5,247.159C274.47,247.159 285,236.629 285,223.659L285,202.675C285,189.705 274.47,179.175 261.5,179.175C254.552,179.175 248.304,182.197 244,186.998ZM265,203.675C265,197.88 260.295,193.175 254.5,193.175C248.705,193.175 244,197.88 244,203.675L244,222.659C244,228.454 248.705,233.159 254.5,233.159C260.295,233.159 265,228.454 265,222.659L265,203.675Z" style="fill:rgb(34,34,34);"/>
                    <path d="M313.5,205.175L313.5,203.675C313.5,200.512 314.902,197.674 317.116,195.749C318.91,194.046 321.334,193 324,193C326.666,193 329.09,194.045 330.883,195.749C332.829,197.44 334.146,199.835 334.439,202.535L333.994,202.654L307.763,209.905C299.82,212.179 294,219.499 294,228.167C294,238.649 302.51,247.159 312.992,247.159L322.008,247.159C327.031,247.159 331.601,245.205 335,242.015L335,247.159L354,247.159L354,197.167C354,185.581 344.594,176.175 333.008,176.175L314.992,176.175C303.406,176.175 294,185.581 294,197.167C294,200.002 294.563,202.707 295.584,205.175L313.5,205.175ZM334.5,213.614C334.5,213.614 320.016,217.772 316.5,219.241C315.159,219.802 313.5,220.43 313.5,222.659C313.5,228.454 318.205,233.159 324,233.159C329.795,233.159 334.5,228.454 334.5,222.659L334.5,213.614Z" style="fill:rgb(34,34,34);"/>
                </g>
            </g>
            <g transform="matrix(1.3828,0,0,1.3828,-88.387,-58.3991)">
                <path d="M263.907,165.08C263.45,165.08 263.058,165.032 262.73,164.934L262.73,163.528C263.003,163.602 263.282,163.639 263.568,163.639C263.868,163.639 264.088,163.555 264.227,163.387C264.365,163.219 264.435,162.971 264.435,162.643L264.435,155.647L266.222,155.647L266.222,162.907C266.222,163.602 266.021,164.138 265.618,164.515C265.216,164.892 264.646,165.08 263.907,165.08ZM264.359,153.953C264.359,153.371 264.683,153.08 265.331,153.08C265.98,153.08 266.304,153.371 266.304,153.953C266.304,154.231 266.223,154.447 266.061,154.601C265.899,154.755 265.655,154.832 265.331,154.832C264.683,154.832 264.359,154.539 264.359,153.953Z" style="fill:rgb(34,34,34);fill-rule:nonzero;"/>
                <path d="M269.521,158.91C269.521,159.559 269.627,160.049 269.84,160.381C270.053,160.713 270.4,160.879 270.88,160.879C271.357,160.879 271.699,160.714 271.908,160.384C272.117,160.054 272.222,159.563 272.222,158.91C272.222,158.262 272.116,157.776 271.905,157.451C271.695,157.127 271.349,156.965 270.868,156.965C270.392,156.965 270.048,157.126 269.837,157.448C269.626,157.771 269.521,158.258 269.521,158.91ZM274.05,158.91C274.05,159.977 273.769,160.811 273.206,161.412C272.644,162.014 271.861,162.315 270.857,162.315C270.228,162.315 269.673,162.177 269.193,161.902C268.712,161.626 268.343,161.231 268.085,160.715C267.827,160.199 267.698,159.598 267.698,158.91C267.698,157.84 267.978,157.008 268.536,156.414C269.095,155.821 269.88,155.524 270.892,155.524C271.521,155.524 272.075,155.66 272.556,155.934C273.036,156.207 273.405,156.6 273.663,157.112C273.921,157.623 274.05,158.223 274.05,158.91Z" style="fill:rgb(34,34,34);fill-rule:nonzero;"/>
                <path d="M280.097,160.252C280.097,160.924 279.863,161.436 279.397,161.787C278.93,162.139 278.232,162.315 277.302,162.315C276.825,162.315 276.419,162.282 276.083,162.218C275.747,162.154 275.433,162.059 275.14,161.934L275.14,160.457C275.472,160.614 275.846,160.744 276.262,160.85C276.678,160.955 277.044,161.008 277.361,161.008C278.009,161.008 278.333,160.821 278.333,160.446C278.333,160.305 278.29,160.191 278.204,160.103C278.118,160.015 277.97,159.915 277.759,159.804C277.548,159.693 277.267,159.563 276.915,159.414C276.411,159.203 276.041,159.008 275.805,158.828C275.569,158.649 275.397,158.443 275.289,158.21C275.182,157.978 275.128,157.692 275.128,157.352C275.128,156.77 275.354,156.32 275.805,156.001C276.256,155.683 276.896,155.524 277.724,155.524C278.513,155.524 279.28,155.696 280.027,156.039L279.487,157.328C279.159,157.188 278.853,157.073 278.568,156.983C278.282,156.893 277.991,156.848 277.695,156.848C277.167,156.848 276.904,156.99 276.904,157.276C276.904,157.436 276.988,157.574 277.158,157.692C277.328,157.809 277.7,157.983 278.275,158.213C278.786,158.42 279.161,158.614 279.4,158.793C279.638,158.973 279.814,159.18 279.927,159.414C280.04,159.649 280.097,159.928 280.097,160.252Z" style="fill:rgb(34,34,34);fill-rule:nonzero;"/>
                <path d="M284.204,156.795C283.825,156.795 283.529,156.915 283.314,157.156C283.099,157.396 282.976,157.737 282.945,158.178L285.452,158.178C285.445,157.737 285.329,157.396 285.107,157.156C284.884,156.915 284.583,156.795 284.204,156.795ZM284.456,162.315C283.402,162.315 282.577,162.024 281.984,161.442C281.39,160.86 281.093,160.035 281.093,158.969C281.093,157.871 281.367,157.023 281.916,156.423C282.465,155.823 283.224,155.524 284.193,155.524C285.118,155.524 285.839,155.787 286.355,156.315C286.87,156.842 287.128,157.571 287.128,158.5L287.128,159.367L282.904,159.367C282.923,159.875 283.073,160.272 283.355,160.557C283.636,160.842 284.03,160.985 284.538,160.985C284.933,160.985 285.306,160.944 285.657,160.862C286.009,160.78 286.376,160.649 286.759,160.469L286.759,161.852C286.446,162.008 286.112,162.124 285.757,162.2C285.402,162.277 284.968,162.315 284.456,162.315ZM283.173,154.926L283.173,154.768C283.845,153.987 284.304,153.399 284.55,153.004L286.554,153.004L286.554,153.127C286.351,153.33 286.004,153.632 285.514,154.032C285.024,154.433 284.64,154.731 284.362,154.926L283.173,154.926Z" style="fill:rgb(34,34,34);fill-rule:nonzero;"/>
                <path d="M294.446,162.198L292.659,162.198L292.659,158.371C292.659,157.899 292.58,157.544 292.422,157.308C292.264,157.072 292.015,156.953 291.675,156.953C291.218,156.953 290.886,157.121 290.679,157.457C290.472,157.793 290.368,158.346 290.368,159.115L290.368,162.198L288.581,162.198L288.581,155.647L289.946,155.647L290.187,156.485L290.286,156.485C290.462,156.184 290.716,155.948 291.048,155.779C291.38,155.609 291.761,155.524 292.191,155.524C293.171,155.524 293.835,155.844 294.183,156.485L294.341,156.485C294.517,156.18 294.776,155.944 295.117,155.776C295.459,155.608 295.845,155.524 296.275,155.524C297.017,155.524 297.578,155.714 297.959,156.095C298.34,156.476 298.53,157.086 298.53,157.926L298.53,162.198L296.737,162.198L296.737,158.371C296.737,157.899 296.658,157.544 296.5,157.308C296.342,157.072 296.093,156.953 295.753,156.953C295.316,156.953 294.988,157.11 294.772,157.422C294.555,157.735 294.446,158.231 294.446,158.91L294.446,162.198Z" style="fill:rgb(242,13,13);fill-rule:nonzero;"/>
                <path d="M304.525,162.198L304.179,161.307L304.132,161.307C303.831,161.686 303.522,161.948 303.203,162.095C302.885,162.241 302.47,162.315 301.958,162.315C301.329,162.315 300.834,162.135 300.473,161.776C300.112,161.416 299.931,160.905 299.931,160.24C299.931,159.545 300.174,159.032 300.66,158.702C301.147,158.372 301.88,158.19 302.861,158.155L303.997,158.119L303.997,157.832C303.997,157.168 303.657,156.836 302.978,156.836C302.454,156.836 301.839,156.994 301.132,157.311L300.54,156.104C301.294,155.709 302.13,155.512 303.048,155.512C303.927,155.512 304.601,155.703 305.07,156.086C305.538,156.469 305.773,157.051 305.773,157.832L305.773,162.198L304.525,162.198ZM303.997,159.162L303.306,159.186C302.786,159.201 302.4,159.295 302.146,159.467C301.892,159.639 301.765,159.901 301.765,160.252C301.765,160.756 302.054,161.008 302.632,161.008C303.046,161.008 303.377,160.889 303.625,160.651C303.873,160.412 303.997,160.096 303.997,159.701L303.997,159.162Z" style="fill:rgb(242,13,13);fill-rule:nonzero;"/>
                <path d="M311.269,155.524C311.511,155.524 311.712,155.541 311.872,155.576L311.737,157.252C311.593,157.213 311.417,157.194 311.21,157.194C310.64,157.194 310.195,157.34 309.877,157.633C309.559,157.926 309.4,158.336 309.4,158.864L309.4,162.198L307.612,162.198L307.612,155.647L308.966,155.647L309.23,156.748L309.318,156.748C309.521,156.381 309.795,156.085 310.141,155.861C310.487,155.636 310.862,155.524 311.269,155.524Z" style="fill:rgb(242,13,13);fill-rule:nonzero;"/>
                <path d="M315.821,160.891C316.134,160.891 316.509,160.823 316.946,160.686L316.946,162.016C316.501,162.215 315.954,162.315 315.306,162.315C314.591,162.315 314.07,162.134 313.744,161.773C313.418,161.411 313.255,160.869 313.255,160.147L313.255,156.989L312.4,156.989L312.4,156.233L313.384,155.635L313.9,154.252L315.042,154.252L315.042,155.647L316.876,155.647L316.876,156.989L315.042,156.989L315.042,160.147C315.042,160.401 315.113,160.588 315.256,160.709C315.399,160.83 315.587,160.891 315.821,160.891Z" style="fill:rgb(242,13,13);fill-rule:nonzero;"/>
                <path d="M320.058,162.198L318.271,162.198L318.271,155.647L320.058,155.647L320.058,162.198ZM318.183,154.926L318.183,154.768C318.855,153.987 319.314,153.399 319.56,153.004L321.564,153.004L321.564,153.127C321.361,153.33 321.014,153.632 320.524,154.032C320.033,154.433 319.65,154.731 319.372,154.926L318.183,154.926Z" style="fill:rgb(242,13,13);fill-rule:nonzero;"/>
            </g>
            <g transform="matrix(1.3828,0,0,1.3828,-88.387,43.5769)">
                <path d="M195.177,162.198L194.831,161.307L194.784,161.307C194.484,161.686 194.174,161.948 193.856,162.095C193.537,162.241 193.122,162.315 192.611,162.315C191.982,162.315 191.487,162.135 191.125,161.776C190.764,161.416 190.583,160.905 190.583,160.24C190.583,159.545 190.826,159.032 191.313,158.702C191.799,158.372 192.532,158.19 193.513,158.155L194.65,158.119L194.65,157.832C194.65,157.168 194.31,156.836 193.63,156.836C193.107,156.836 192.491,156.994 191.784,157.311L191.193,156.104C191.946,155.709 192.782,155.512 193.7,155.512C194.579,155.512 195.253,155.703 195.722,156.086C196.191,156.469 196.425,157.051 196.425,157.832L196.425,162.198L195.177,162.198ZM194.65,159.162L193.958,159.186C193.439,159.201 193.052,159.295 192.798,159.467C192.544,159.639 192.417,159.901 192.417,160.252C192.417,160.756 192.706,161.008 193.284,161.008C193.698,161.008 194.029,160.889 194.278,160.651C194.526,160.412 194.65,160.096 194.65,159.701L194.65,159.162Z" style="fill:rgb(115,115,115);fill-rule:nonzero;"/>
                <path d="M202.835,160.252C202.835,160.924 202.602,161.436 202.135,161.787C201.668,162.139 200.97,162.315 200.04,162.315C199.564,162.315 199.157,162.282 198.821,162.218C198.486,162.154 198.171,162.059 197.878,161.934L197.878,160.457C198.21,160.614 198.584,160.744 199,160.85C199.416,160.955 199.782,161.008 200.099,161.008C200.747,161.008 201.071,160.821 201.071,160.446C201.071,160.305 201.029,160.191 200.943,160.103C200.857,160.015 200.708,159.915 200.497,159.804C200.286,159.693 200.005,159.563 199.654,159.414C199.15,159.203 198.779,159.008 198.543,158.828C198.307,158.649 198.135,158.443 198.028,158.21C197.92,157.978 197.866,157.692 197.866,157.352C197.866,156.77 198.092,156.32 198.543,156.001C198.994,155.683 199.634,155.524 200.462,155.524C201.251,155.524 202.019,155.696 202.765,156.039L202.226,157.328C201.898,157.188 201.591,157.073 201.306,156.983C201.021,156.893 200.73,156.848 200.433,156.848C199.905,156.848 199.642,156.99 199.642,157.276C199.642,157.436 199.727,157.574 199.897,157.692C200.067,157.809 200.439,157.983 201.013,158.213C201.525,158.42 201.9,158.614 202.138,158.793C202.376,158.973 202.552,159.18 202.665,159.414C202.779,159.649 202.835,159.928 202.835,160.252Z" style="fill:rgb(115,115,115);fill-rule:nonzero;"/>
                <path d="M205.654,158.91C205.654,159.559 205.76,160.049 205.973,160.381C206.186,160.713 206.532,160.879 207.013,160.879C207.489,160.879 207.832,160.714 208.041,160.384C208.25,160.054 208.355,159.563 208.355,158.91C208.355,158.262 208.249,157.776 208.038,157.451C207.827,157.127 207.482,156.965 207.001,156.965C206.525,156.965 206.181,157.126 205.97,157.448C205.759,157.771 205.654,158.258 205.654,158.91ZM210.183,158.91C210.183,159.977 209.902,160.811 209.339,161.412C208.777,162.014 207.993,162.315 206.989,162.315C206.361,162.315 205.806,162.177 205.325,161.902C204.845,161.626 204.476,161.231 204.218,160.715C203.96,160.199 203.831,159.598 203.831,158.91C203.831,157.84 204.111,157.008 204.669,156.414C205.228,155.821 206.013,155.524 207.025,155.524C207.654,155.524 208.208,155.66 208.689,155.934C209.169,156.207 209.538,156.6 209.796,157.112C210.054,157.623 210.183,158.223 210.183,158.91Z" style="fill:rgb(115,115,115);fill-rule:nonzero;"/>
                <path d="M214.32,162.315C212.28,162.315 211.261,161.196 211.261,158.957C211.261,157.844 211.538,156.993 212.093,156.406C212.648,155.818 213.443,155.524 214.478,155.524C215.236,155.524 215.915,155.672 216.517,155.969L215.989,157.352C215.708,157.239 215.446,157.146 215.204,157.073C214.962,157.001 214.72,156.965 214.478,156.965C213.548,156.965 213.083,157.625 213.083,158.946C213.083,160.227 213.548,160.867 214.478,160.867C214.821,160.867 215.14,160.822 215.433,160.73C215.726,160.638 216.019,160.494 216.312,160.299L216.312,161.828C216.023,162.012 215.731,162.139 215.436,162.209C215.141,162.28 214.769,162.315 214.32,162.315Z" style="fill:rgb(115,115,115);fill-rule:nonzero;"/>
                <path d="M217.753,153.953C217.753,153.371 218.077,153.08 218.726,153.08C219.374,153.08 219.698,153.371 219.698,153.953C219.698,154.231 219.617,154.447 219.455,154.601C219.293,154.755 219.05,154.832 218.726,154.832C218.077,154.832 217.753,154.539 217.753,153.953ZM219.616,162.198L217.829,162.198L217.829,155.647L219.616,155.647L219.616,162.198Z" style="fill:rgb(115,115,115);fill-rule:nonzero;"/>
                <path d="M225.652,162.198L225.306,161.307L225.259,161.307C224.958,161.686 224.649,161.948 224.33,162.095C224.012,162.241 223.597,162.315 223.085,162.315C222.456,162.315 221.961,162.135 221.6,161.776C221.238,161.416 221.058,160.905 221.058,160.24C221.058,159.545 221.301,159.032 221.787,158.702C222.274,158.372 223.007,158.19 223.987,158.155L225.124,158.119L225.124,157.832C225.124,157.168 224.784,156.836 224.105,156.836C223.581,156.836 222.966,156.994 222.259,157.311L221.667,156.104C222.421,155.709 223.257,155.512 224.175,155.512C225.054,155.512 225.728,155.703 226.196,156.086C226.665,156.469 226.9,157.051 226.9,157.832L226.9,162.198L225.652,162.198ZM225.124,159.162L224.433,159.186C223.913,159.201 223.527,159.295 223.273,159.467C223.019,159.639 222.892,159.901 222.892,160.252C222.892,160.756 223.181,161.008 223.759,161.008C224.173,161.008 224.504,160.889 224.752,160.651C225,160.412 225.124,160.096 225.124,159.701L225.124,159.162Z" style="fill:rgb(115,115,115);fill-rule:nonzero;"/>
                <path d="M231.4,162.315C229.361,162.315 228.341,161.196 228.341,158.957C228.341,157.844 228.618,156.993 229.173,156.406C229.728,155.818 230.523,155.524 231.558,155.524C232.316,155.524 232.995,155.672 233.597,155.969L233.07,157.352C232.788,157.239 232.527,157.146 232.284,157.073C232.042,157.001 231.8,156.965 231.558,156.965C230.628,156.965 230.163,157.625 230.163,158.946C230.163,160.227 230.628,160.867 231.558,160.867C231.902,160.867 232.22,160.822 232.513,160.73C232.806,160.638 233.099,160.494 233.392,160.299L233.392,161.828C233.103,162.012 232.811,162.139 232.516,162.209C232.221,162.28 231.849,162.315 231.4,162.315Z" style="fill:rgb(115,115,115);fill-rule:nonzero;"/>
                <path d="M234.833,153.953C234.833,153.371 235.157,153.08 235.806,153.08C236.454,153.08 236.779,153.371 236.779,153.953C236.779,154.231 236.697,154.447 236.535,154.601C236.373,154.755 236.13,154.832 235.806,154.832C235.157,154.832 234.833,154.539 234.833,153.953ZM236.696,162.198L234.909,162.198L234.909,155.647L236.696,155.647L236.696,162.198Z" style="fill:rgb(115,115,115);fill-rule:nonzero;"/>
                <path d="M239.995,158.91C239.995,159.559 240.102,160.049 240.315,160.381C240.528,160.713 240.874,160.879 241.355,160.879C241.831,160.879 242.174,160.714 242.383,160.384C242.592,160.054 242.696,159.563 242.696,158.91C242.696,158.262 242.591,157.776 242.38,157.451C242.169,157.127 241.823,156.965 241.343,156.965C240.866,156.965 240.523,157.126 240.312,157.448C240.101,157.771 239.995,158.258 239.995,158.91ZM244.525,158.91C244.525,159.977 244.243,160.811 243.681,161.412C243.118,162.014 242.335,162.315 241.331,162.315C240.702,162.315 240.148,162.177 239.667,161.902C239.187,161.626 238.818,161.231 238.56,160.715C238.302,160.199 238.173,159.598 238.173,158.91C238.173,157.84 238.452,157.008 239.011,156.414C239.57,155.821 240.355,155.524 241.366,155.524C241.995,155.524 242.55,155.66 243.03,155.934C243.511,156.207 243.88,156.6 244.138,157.112C244.396,157.623 244.525,158.223 244.525,158.91ZM240.37,154.926L240.37,154.768C241.042,153.987 241.501,153.399 241.747,153.004L243.751,153.004L243.751,153.127C243.548,153.33 243.201,153.632 242.711,154.032C242.221,154.433 241.837,154.731 241.56,154.926L240.37,154.926Z" style="fill:rgb(115,115,115);fill-rule:nonzero;"/>
                <path d="M252.048,162.198L250.261,162.198L250.261,158.371C250.261,157.899 250.177,157.544 250.009,157.308C249.841,157.072 249.573,156.953 249.206,156.953C248.706,156.953 248.345,157.12 248.122,157.454C247.9,157.788 247.788,158.342 247.788,159.115L247.788,162.198L246.001,162.198L246.001,155.647L247.366,155.647L247.607,156.485L247.706,156.485C247.905,156.168 248.18,155.929 248.529,155.767C248.879,155.605 249.277,155.524 249.722,155.524C250.484,155.524 251.062,155.73 251.456,156.142C251.851,156.554 252.048,157.149 252.048,157.926L252.048,162.198Z" style="fill:rgb(115,115,115);fill-rule:nonzero;"/>
                <path d="M258.564,162.198L256.068,155.647L257.937,155.647L259.202,159.379C259.343,159.852 259.431,160.299 259.466,160.721L259.501,160.721C259.521,160.346 259.609,159.899 259.765,159.379L261.025,155.647L262.894,155.647L260.398,162.198L258.564,162.198Z" style="fill:rgb(115,115,115);fill-rule:nonzero;"/>
                <path d="M267.991,162.198L267.646,161.307L267.599,161.307C267.298,161.686 266.988,161.948 266.67,162.095C266.352,162.241 265.937,162.315 265.425,162.315C264.796,162.315 264.301,162.135 263.94,161.776C263.578,161.416 263.398,160.905 263.398,160.24C263.398,159.545 263.641,159.032 264.127,158.702C264.613,158.372 265.347,158.19 266.327,158.155L267.464,158.119L267.464,157.832C267.464,157.168 267.124,156.836 266.445,156.836C265.921,156.836 265.306,156.994 264.599,157.311L264.007,156.104C264.761,155.709 265.597,155.512 266.515,155.512C267.394,155.512 268.068,155.703 268.536,156.086C269.005,156.469 269.239,157.051 269.239,157.832L269.239,162.198L267.991,162.198ZM267.464,159.162L266.773,159.186C266.253,159.201 265.866,159.295 265.612,159.467C265.359,159.639 265.232,159.901 265.232,160.252C265.232,160.756 265.521,161.008 266.099,161.008C266.513,161.008 266.844,160.889 267.092,160.651C267.34,160.412 267.464,160.096 267.464,159.701L267.464,159.162Z" style="fill:rgb(115,115,115);fill-rule:nonzero;"/>
                <rect x="271.079" y="153.08" width="1.787" height="9.117" style="fill:rgb(115,115,115);fill-rule:nonzero;"/>
                <path d="M277.454,156.795C277.075,156.795 276.779,156.915 276.564,157.156C276.349,157.396 276.226,157.737 276.195,158.178L278.702,158.178C278.695,157.737 278.579,157.396 278.357,157.156C278.134,156.915 277.833,156.795 277.454,156.795ZM277.706,162.315C276.652,162.315 275.827,162.024 275.234,161.442C274.64,160.86 274.343,160.035 274.343,158.969C274.343,157.871 274.617,157.023 275.166,156.423C275.715,155.823 276.474,155.524 277.443,155.524C278.368,155.524 279.089,155.787 279.605,156.315C280.12,156.842 280.378,157.571 280.378,158.5L280.378,159.367L276.154,159.367C276.173,159.875 276.323,160.272 276.605,160.557C276.886,160.842 277.28,160.985 277.788,160.985C278.183,160.985 278.556,160.944 278.907,160.862C279.259,160.78 279.626,160.649 280.009,160.469L280.009,161.852C279.696,162.008 279.362,162.124 279.007,162.2C278.652,162.277 278.218,162.315 277.706,162.315Z" style="fill:rgb(115,115,115);fill-rule:nonzero;"/>
                <path d="M287.878,162.198L286.091,162.198L286.091,158.371C286.091,157.899 286.007,157.544 285.839,157.308C285.671,157.072 285.404,156.953 285.036,156.953C284.536,156.953 284.175,157.12 283.952,157.454C283.73,157.788 283.618,158.342 283.618,159.115L283.618,162.198L281.831,162.198L281.831,155.647L283.196,155.647L283.437,156.485L283.536,156.485C283.736,156.168 284.01,155.929 284.36,155.767C284.709,155.605 285.107,155.524 285.552,155.524C286.314,155.524 286.892,155.73 287.286,156.142C287.681,156.554 287.878,157.149 287.878,157.926L287.878,162.198Z" style="fill:rgb(115,115,115);fill-rule:nonzero;"/>
                <path d="M292.378,162.315C290.339,162.315 289.32,161.196 289.32,158.957C289.32,157.844 289.597,156.993 290.152,156.406C290.706,155.818 291.501,155.524 292.536,155.524C293.294,155.524 293.974,155.672 294.575,155.969L294.048,157.352C293.767,157.239 293.505,157.146 293.263,157.073C293.021,157.001 292.779,156.965 292.536,156.965C291.607,156.965 291.142,157.625 291.142,158.946C291.142,160.227 291.607,160.867 292.536,160.867C292.88,160.867 293.198,160.822 293.491,160.73C293.784,160.638 294.077,160.494 294.37,160.299L294.37,161.828C294.081,162.012 293.789,162.139 293.494,162.209C293.199,162.28 292.827,162.315 292.378,162.315Z" style="fill:rgb(115,115,115);fill-rule:nonzero;"/>
                <path d="M295.812,153.953C295.812,153.371 296.136,153.08 296.784,153.08C297.433,153.08 297.757,153.371 297.757,153.953C297.757,154.231 297.676,154.447 297.514,154.601C297.352,154.755 297.109,154.832 296.784,154.832C296.136,154.832 295.812,154.539 295.812,153.953ZM297.675,162.198L295.888,162.198L295.888,155.647L297.675,155.647L297.675,162.198Z" style="fill:rgb(115,115,115);fill-rule:nonzero;"/>
                <path d="M303.71,162.198L303.364,161.307L303.318,161.307C303.017,161.686 302.707,161.948 302.389,162.095C302.07,162.241 301.655,162.315 301.144,162.315C300.515,162.315 300.02,162.135 299.658,161.776C299.297,161.416 299.116,160.905 299.116,160.24C299.116,159.545 299.36,159.032 299.846,158.702C300.332,158.372 301.066,158.19 302.046,158.155L303.183,158.119L303.183,157.832C303.183,157.168 302.843,156.836 302.163,156.836C301.64,156.836 301.025,156.994 300.318,157.311L299.726,156.104C300.48,155.709 301.316,155.512 302.234,155.512C303.112,155.512 303.786,155.703 304.255,156.086C304.724,156.469 304.958,157.051 304.958,157.832L304.958,162.198L303.71,162.198ZM303.183,159.162L302.491,159.186C301.972,159.201 301.585,159.295 301.331,159.467C301.077,159.639 300.95,159.901 300.95,160.252C300.95,160.756 301.239,161.008 301.818,161.008C302.232,161.008 302.563,160.889 302.811,160.651C303.059,160.412 303.183,160.096 303.183,159.701L303.183,159.162Z" style="fill:rgb(115,115,115);fill-rule:nonzero;"/>
                <path d="M312.845,162.198L311.058,162.198L311.058,158.371C311.058,157.899 310.974,157.544 310.806,157.308C310.638,157.072 310.37,156.953 310.003,156.953C309.503,156.953 309.142,157.12 308.919,157.454C308.696,157.788 308.585,158.342 308.585,159.115L308.585,162.198L306.798,162.198L306.798,155.647L308.163,155.647L308.404,156.485L308.503,156.485C308.702,156.168 308.977,155.929 309.326,155.767C309.676,155.605 310.073,155.524 310.519,155.524C311.28,155.524 311.859,155.73 312.253,156.142C312.648,156.554 312.845,157.149 312.845,157.926L312.845,162.198Z" style="fill:rgb(115,115,115);fill-rule:nonzero;"/>
                <path d="M318.845,162.198L318.499,161.307L318.452,161.307C318.152,161.686 317.842,161.948 317.524,162.095C317.205,162.241 316.79,162.315 316.279,162.315C315.65,162.315 315.154,162.135 314.793,161.776C314.432,161.416 314.251,160.905 314.251,160.24C314.251,159.545 314.494,159.032 314.981,158.702C315.467,158.372 316.2,158.19 317.181,158.155L318.318,158.119L318.318,157.832C318.318,157.168 317.978,156.836 317.298,156.836C316.775,156.836 316.159,156.994 315.452,157.311L314.861,156.104C315.614,155.709 316.45,155.512 317.368,155.512C318.247,155.512 318.921,155.703 319.39,156.086C319.859,156.469 320.093,157.051 320.093,157.832L320.093,162.198L318.845,162.198ZM318.318,159.162L317.626,159.186C317.107,159.201 316.72,159.295 316.466,159.467C316.212,159.639 316.085,159.901 316.085,160.252C316.085,160.756 316.374,161.008 316.952,161.008C317.366,161.008 317.697,160.889 317.945,160.651C318.194,160.412 318.318,160.096 318.318,159.701L318.318,159.162Z" style="fill:rgb(115,115,115);fill-rule:nonzero;"/>
            </g>
            <g transform="matrix(1.18819,0,0,1.18819,89.1698,-20.6624)">
                <path d="M-62.179,155.894L-63.28,156.049L-63.292,156.102C-62.943,156.543 -62.727,156.964 -62.646,157.363C-62.565,157.763 -62.592,158.253 -62.728,158.833C-62.895,159.545 -63.23,160.058 -63.733,160.372C-64.236,160.686 -64.864,160.755 -65.616,160.579C-66.404,160.394 -66.921,159.983 -67.165,159.344C-67.41,158.705 -67.422,157.826 -67.202,156.705L-66.94,155.408L-67.265,155.332C-68.018,155.155 -68.484,155.452 -68.665,156.222C-68.804,156.816 -68.788,157.555 -68.617,158.44L-70.142,158.79C-70.389,157.831 -70.39,156.831 -70.146,155.791C-69.913,154.795 -69.517,154.083 -68.959,153.653C-68.401,153.224 -67.679,153.113 -66.794,153.32L-61.847,154.479L-62.179,155.894ZM-65.758,155.685L-65.915,156.475C-66.035,157.067 -66.032,157.531 -65.904,157.864C-65.777,158.197 -65.514,158.411 -65.116,158.504C-64.545,158.638 -64.183,158.377 -64.029,157.722C-63.919,157.253 -63.966,156.846 -64.17,156.502C-64.375,156.157 -64.7,155.933 -65.147,155.828L-65.758,155.685Z" style="fill:rgb(115,115,115);fill-rule:nonzero;"/>
                <path d="M-57.685,143.408L-58.53,145.308L-62.599,143.499C-63.102,143.276 -63.516,143.192 -63.842,143.249C-64.168,143.305 -64.412,143.514 -64.573,143.876C-64.789,144.362 -64.767,144.794 -64.508,145.173C-64.248,145.552 -63.709,145.924 -62.891,146.288L-59.614,147.745L-60.459,149.645L-67.425,146.548L-66.779,145.096L-65.775,145.237L-65.728,145.131C-65.964,144.802 -66.095,144.42 -66.118,143.987C-66.142,143.554 -66.052,143.108 -65.849,142.651C-65.386,141.609 -64.731,141.054 -63.885,140.987L-63.81,140.819C-64.051,140.488 -64.18,140.101 -64.197,139.658C-64.214,139.215 -64.121,138.765 -63.918,138.308C-63.567,137.519 -63.099,137.012 -62.514,136.787C-61.929,136.562 -61.19,136.648 -60.297,137.045L-55.754,139.065L-56.602,140.972L-60.671,139.163C-61.174,138.939 -61.588,138.856 -61.914,138.912C-62.24,138.969 -62.484,139.178 -62.644,139.539C-62.851,140.004 -62.84,140.426 -62.61,140.804C-62.38,141.183 -61.904,141.532 -61.181,141.854L-57.685,143.408Z" style="fill:rgb(115,115,115);fill-rule:nonzero;"/>
                <path d="M-61.142,129.693C-61.711,129.325 -61.79,128.824 -61.38,128.19C-60.97,127.557 -60.481,127.424 -59.912,127.792C-59.641,127.967 -59.481,128.183 -59.433,128.439C-59.385,128.695 -59.463,128.981 -59.668,129.298C-60.078,129.932 -60.57,130.063 -61.142,129.693ZM-51.909,133.085L-53.039,134.831L-59.439,130.689L-58.309,128.943L-51.909,133.085Z" style="fill:rgb(115,115,115);fill-rule:nonzero;"/>
                <path d="M-47.378,123.41C-46.773,123.905 -46.485,124.493 -46.512,125.172C-46.54,125.852 -46.896,126.61 -47.581,127.447C-47.933,127.876 -48.261,128.218 -48.567,128.474C-48.872,128.729 -49.19,128.942 -49.518,129.114L-50.848,128.025C-50.462,127.841 -50.069,127.601 -49.667,127.304C-49.266,127.007 -48.948,126.716 -48.715,126.431C-48.237,125.847 -48.167,125.417 -48.504,125.141C-48.631,125.037 -48.766,124.991 -48.908,125.004C-49.051,125.017 -49.25,125.077 -49.506,125.185C-49.761,125.293 -50.086,125.45 -50.478,125.657C-51.04,125.956 -51.489,126.145 -51.825,126.225C-52.161,126.306 -52.473,126.309 -52.761,126.234C-53.05,126.16 -53.347,125.997 -53.653,125.746C-54.177,125.317 -54.416,124.782 -54.371,124.141C-54.325,123.5 -53.997,122.807 -53.386,122.061C-52.804,121.351 -52.084,120.786 -51.224,120.368L-50.461,121.803C-50.829,121.995 -51.159,122.186 -51.45,122.377C-51.741,122.568 -51.996,122.796 -52.215,123.064C-52.604,123.539 -52.67,123.881 -52.413,124.091C-52.269,124.21 -52.081,124.235 -51.851,124.169C-51.62,124.102 -51.189,123.895 -50.558,123.548C-49.994,123.24 -49.544,123.044 -49.206,122.962C-48.869,122.88 -48.553,122.874 -48.258,122.945C-47.964,123.016 -47.67,123.171 -47.378,123.41Z" style="fill:rgb(115,115,115);fill-rule:nonzero;"/>
                <path d="M-41.278,118.281C-41.015,118.029 -40.755,117.67 -40.498,117.203L-39.427,118.32C-39.641,118.846 -40.02,119.37 -40.565,119.892C-41.165,120.468 -41.748,120.735 -42.313,120.694C-42.878,120.654 -43.452,120.329 -44.033,119.722L-46.577,117.069L-47.295,117.758L-47.904,117.123L-47.558,115.828L-48.239,114.251L-47.279,113.331L-46.156,114.502L-44.615,113.025L-43.534,114.153L-45.075,115.63L-42.532,118.283C-42.328,118.496 -42.117,118.597 -41.899,118.584C-41.682,118.57 -41.475,118.47 -41.278,118.281Z" style="fill:rgb(115,115,115);fill-rule:nonzero;"/>
                <path d="M-32.008,112.748L-32.946,112.151L-32.99,112.184C-33.011,112.746 -33.12,113.206 -33.317,113.563C-33.515,113.92 -33.854,114.274 -34.333,114.627C-34.923,115.061 -35.511,115.234 -36.098,115.146C-36.684,115.058 -37.206,114.703 -37.664,114.08C-38.144,113.428 -38.269,112.78 -38.041,112.135C-37.812,111.49 -37.25,110.813 -36.355,110.105L-35.314,109.288L-35.512,109.019C-35.97,108.396 -36.517,108.319 -37.154,108.788C-37.645,109.149 -38.113,109.721 -38.558,110.505L-39.945,109.781C-39.51,108.892 -38.862,108.13 -38.001,107.498C-37.177,106.892 -36.414,106.607 -35.71,106.642C-35.007,106.678 -34.386,107.062 -33.847,107.795L-30.838,111.888L-32.008,112.748ZM-34.595,110.266L-35.227,110.764C-35.703,111.137 -36.001,111.492 -36.121,111.828C-36.24,112.164 -36.179,112.497 -35.937,112.827C-35.589,113.299 -35.144,113.336 -34.602,112.938C-34.214,112.652 -33.986,112.312 -33.918,111.918C-33.849,111.523 -33.951,111.141 -34.223,110.771L-34.595,110.266Z" style="fill:rgb(115,115,115);fill-rule:nonzero;"/>
                <path d="M-24.389,108.258C-25.182,108.674 -25.966,108.693 -26.742,108.314C-27.518,107.936 -28.192,107.201 -28.765,106.11C-29.345,105.003 -29.567,104.02 -29.43,103.16C-29.294,102.3 -28.821,101.658 -28.011,101.233C-27.162,100.788 -26.341,100.778 -25.547,101.204L-25.487,101.172C-25.844,100.718 -26.125,100.293 -26.332,99.898L-27.466,97.737L-25.618,96.767L-20.69,106.164L-22.103,106.905L-22.918,106.216L-22.997,106.257C-23.067,107.141 -23.531,107.808 -24.389,108.258ZM-24.512,106.451C-24.041,106.204 -23.768,105.886 -23.692,105.498C-23.616,105.109 -23.74,104.581 -24.064,103.914L-24.169,103.715C-24.549,102.99 -24.933,102.529 -25.321,102.333C-25.709,102.136 -26.155,102.169 -26.658,102.433C-27.069,102.649 -27.297,102.99 -27.341,103.458C-27.386,103.925 -27.234,104.491 -26.886,105.155C-26.537,105.82 -26.161,106.258 -25.758,106.47C-25.354,106.681 -24.939,106.675 -24.512,106.451Z" style="fill:rgb(115,115,115);fill-rule:nonzero;"/>
                <path d="M-6.827,101.505C-9.127,102.089 -10.597,101.119 -11.238,98.594C-11.557,97.338 -11.488,96.299 -11.03,95.477C-10.573,94.655 -9.76,94.096 -8.593,93.8C-7.738,93.583 -6.929,93.555 -6.165,93.718L-6.364,95.429C-6.714,95.382 -7.036,95.352 -7.329,95.34C-7.623,95.328 -7.907,95.356 -8.18,95.425C-9.229,95.692 -9.564,96.569 -9.186,98.059C-8.819,99.504 -8.111,100.094 -7.063,99.827C-6.675,99.729 -6.329,99.586 -6.025,99.399C-5.721,99.211 -5.431,98.965 -5.157,98.661L-4.719,100.386C-4.992,100.676 -5.285,100.903 -5.598,101.067C-5.911,101.23 -6.32,101.377 -6.827,101.505Z" style="fill:rgb(34,34,34);fill-rule:nonzero;"/>
                <path d="M1.161,95.976C1.243,96.726 1.427,97.28 1.715,97.638C2.003,97.995 2.425,98.144 2.981,98.084C3.532,98.024 3.908,97.791 4.108,97.382C4.309,96.974 4.368,96.393 4.287,95.638C4.206,94.888 4.023,94.338 3.738,93.99C3.454,93.641 3.033,93.497 2.478,93.557C1.926,93.616 1.549,93.846 1.345,94.245C1.141,94.644 1.08,95.221 1.161,95.976ZM6.402,95.41C6.535,96.644 6.314,97.644 5.739,98.41C5.163,99.176 4.295,99.622 3.133,99.748C2.405,99.827 1.746,99.737 1.156,99.478C0.566,99.219 0.089,98.808 -0.274,98.244C-0.637,97.679 -0.861,96.999 -0.947,96.204C-1.081,94.965 -0.862,93.968 -0.29,93.211C0.282,92.454 1.154,92.012 2.324,91.886C3.052,91.807 3.711,91.896 4.301,92.152C4.891,92.409 5.367,92.817 5.73,93.377C6.092,93.936 6.316,94.614 6.402,95.41Z" style="fill:rgb(34,34,34);fill-rule:nonzero;"/>
                <path d="M18.443,99.41L16.366,99.315L16.57,94.867C16.595,94.317 16.517,93.9 16.334,93.617C16.152,93.333 15.847,93.181 15.42,93.162C14.839,93.135 14.41,93.31 14.133,93.686C13.856,94.062 13.697,94.7 13.656,95.599L13.491,99.182L11.413,99.087L11.764,91.471L13.351,91.544L13.585,92.531L13.701,92.536C13.95,92.179 14.281,91.916 14.697,91.746C15.112,91.576 15.578,91.503 16.096,91.527C16.981,91.568 17.642,91.838 18.079,92.339C18.516,92.839 18.713,93.541 18.672,94.444L18.443,99.41Z" style="fill:rgb(34,34,34);fill-rule:nonzero;"/>
            </g>
        </g>
    </g>
</svg>
