<?xml version="1.0" encoding="UTF-8" standalone="no"?>
<!DOCTYPE svg PUBLIC "-//W3C//DTD SVG 1.1//EN" "http://www.w3.org/Graphics/SVG/1.1/DTD/svg11.dtd">
<svg width="100%" height="100%" viewBox="0 0 88 101" version="1.1" xmlns="http://www.w3.org/2000/svg" xmlns:xlink="http://www.w3.org/1999/xlink" xml:space="preserve" xmlns:serif="http://www.serif.com/" style="fill-rule:evenodd;clip-rule:evenodd;">
    <g id="a396c4b6-1ad4-4448-9c86-a6a7ab80e085">
        <g transform="matrix(1.0147,0,0,1.01712,-0.531129,-0.575147)">
            <rect x="1.892" y="33.597" width="61.343" height="19.601" style="fill:white;"/>
        </g>
        <path id="eb20fd46-f3dd-4566-b50d-c7e87038e0b7" d="M7.3,0.2C4.8,0.3 3.6,6.1 2.5,13.4C1.3,21.4 0.5,29.5 0.2,37.6C0.2,39.1 -0.2,50.5 0.6,55.9C0.9,57.7 5,59.4 6.3,59.9C9.7,61.3 16.2,61 25.5,61.6C27.5,61.7 27.1,61.7 27.1,63.3C27.2,66.6 26.2,86.1 15.9,91.3C10.4,94.1 8.7,94.3 3.2,96.5C1.1,97.3 1,98.2 1,99.2C1,100 1.8,100.2 2.8,100.2C27.3,100 52.1,100.2 75.1,100.2C76.9,100.2 78.8,98.5 76.5,94.7C74.2,90.9 68,84.2 67.2,83.5C64.9,81.3 83.1,80.8 85.6,78.6C90.1,76.1 81.7,67.4 78,65.2C63.8,57 40.6,72.9 47.7,82.1C50.3,85.5 59.4,86.5 65.8,90.3C69,92.2 61.2,97 57.1,96.5C46.7,95.4 37.8,78.2 37.5,63.3C37.5,61.7 37.2,61.8 39.1,61.6C48.5,61 54.9,61.3 58.3,59.9C59.5,59.4 63.7,57.8 63.9,55.9C64.7,50.5 64.3,39.1 64.3,37.6C64,29.5 63.3,21.4 62,13.4C61,6 59.9,0.2 57.3,0.2C55.2,0.2 47.4,10.3 38.8,25.2C37.3,27.8 36.7,28.7 36.1,29.2C35.5,29.7 29.2,29.7 28.5,29.2C27.8,28.7 27.3,27.8 25.8,25.2C17.2,10.3 9.4,0.2 7.3,0.2ZM58.3,35.4C60.3,35.4 61.8,35.6 62.4,36.1C64,37.6 64.8,51.6 50.2,53.1C44.4,53.8 38.8,50.7 36.2,45.5C34.9,42.5 34.9,36.2 36.5,36C37.7,35.9 42.2,36 43.6,35.8C44.7,35.7 43.9,40.9 46,47.2C46.7,49.4 48,35.8 49.1,35.8C51.7,35.8 55.4,35.4 58.3,35.4ZM6.8,35.4C9.7,35.4 13.4,35.8 16,35.9C17.1,35.9 18.4,49.6 19.1,47.3C21.2,40.9 20.4,36.1 21.5,35.9C24.3,35.6 27.2,35.7 30,36.2C31.4,36.6 31.1,42.2 30.3,45.5C29.5,48.6 24.6,52.8 17.6,53C1,53.3 0.8,37.9 2.7,36.1C3.2,35.6 4.8,35.4 6.8,35.4Z" style="fill-rule:nonzero;stroke:black;stroke-width:0.31px;"/>
    </g>
</svg>
