<?xml version="1.0" encoding="UTF-8" standalone="no"?>
<!DOCTYPE svg PUBLIC "-//W3C//DTD SVG 1.1//EN" "http://www.w3.org/Graphics/SVG/1.1/DTD/svg11.dtd">
<svg width="100%" height="100%" viewBox="0 0 443 443" version="1.1" xmlns="http://www.w3.org/2000/svg" xmlns:xlink="http://www.w3.org/1999/xlink" xml:space="preserve" xmlns:serif="http://www.serif.com/" style="fill-rule:evenodd;clip-rule:evenodd;stroke-linejoin:round;stroke-miterlimit:2;">
    <g id="cat" transform="matrix(0.535702,0,0,0.535702,0,0)">
        <rect x="0" y="0" width="826.772" height="826.772" style="fill:none;"/>
        <g transform="matrix(0,-551.181,-551.181,0,462.48,696.458)">
            <path d="M0.75,0.049C0.725,0.064 0.716,0.07 0.712,0.075C0.708,0.081 0.708,0.14 0.712,0.146C0.716,0.152 0.724,0.157 0.747,0.17L0.75,0.172C0.89,0.251 1,0.332 1,0.356L1,0.359C0.999,0.386 0.941,0.397 0.865,0.409C0.783,0.421 0.702,0.428 0.624,0.431C0.622,0.431 0.618,0.431 0.611,0.432C0.574,0.432 0.488,0.434 0.442,0.427C0.424,0.424 0.408,0.389 0.4,0.369C0.39,0.345 0.389,0.306 0.387,0.253C0.386,0.231 0.385,0.205 0.383,0.177C0.383,0.171 0.382,0.165 0.382,0.164C0.381,0.164 0.379,0.164 0.376,0.164C0.375,0.164 0.372,0.165 0.369,0.165C0.324,0.163 0.143,0.178 0.095,0.274C0.077,0.31 0.07,0.329 0.061,0.354C0.056,0.367 0.051,0.381 0.044,0.399C0.034,0.422 0.024,0.423 0.015,0.424L0.013,0.424C0.005,0.424 0,0.417 0,0.403C0.001,0.24 0.001,0.075 0,-0.084C0,-0.162 0,-0.239 0,-0.314C0,-0.325 0.005,-0.334 0.013,-0.339C0.021,-0.343 0.036,-0.346 0.06,-0.331C0.098,-0.308 0.164,-0.246 0.172,-0.238C0.172,-0.237 0.173,-0.237 0.173,-0.237C0.18,-0.239 0.187,-0.288 0.192,-0.321C0.198,-0.366 0.204,-0.408 0.215,-0.42C0.22,-0.43 0.228,-0.434 0.239,-0.435C0.276,-0.435 0.335,-0.376 0.354,-0.345C0.406,-0.253 0.361,-0.119 0.288,-0.056C0.25,-0.022 0.211,-0.017 0.181,-0.04C0.161,-0.054 0.15,-0.088 0.137,-0.128C0.127,-0.158 0.115,-0.192 0.099,-0.22C0.095,-0.227 0.09,-0.226 0.087,-0.225C0.068,-0.219 0.04,-0.167 0.044,-0.136C0.056,-0.032 0.229,0.052 0.371,0.055C0.373,0.055 0.375,0.055 0.376,0.055C0.379,0.055 0.381,0.056 0.382,0.055C0.383,0.054 0.383,0.05 0.384,0.045L0.384,0.043C0.386,0.015 0.387,-0.011 0.388,-0.033C0.39,-0.086 0.391,-0.125 0.401,-0.149L0.402,-0.151C0.409,-0.167 0.424,-0.204 0.443,-0.208C0.489,-0.214 0.575,-0.213 0.612,-0.212C0.619,-0.212 0.623,-0.212 0.626,-0.212C0.713,-0.208 0.791,-0.201 0.866,-0.189C0.942,-0.177 1,-0.166 1,-0.138C1,-0.113 0.893,-0.033 0.75,0.049Z" style="fill-rule:nonzero;"/>
        </g>
        <g id="tbck-cat-color-bbg-transparent" transform="matrix(16.2037,0,0,16.2037,-1699.47,-2985.59)">
            <g transform="matrix(1,0,0,1,0,165.472)">
                <rect x="118.481" y="38.257" width="20.963" height="7.463" style="fill:white;"/>
            </g>
            <g transform="matrix(0,-34.0157,-34.0157,0,132.617,226.774)">
                <path d="M0.75,0.049C0.725,0.064 0.716,0.07 0.712,0.075C0.708,0.081 0.708,0.14 0.712,0.146C0.716,0.152 0.724,0.157 0.747,0.17L0.75,0.172C0.89,0.251 1,0.332 1,0.356L1,0.359C0.999,0.386 0.941,0.397 0.865,0.409C0.783,0.421 0.702,0.428 0.624,0.431C0.622,0.431 0.618,0.431 0.611,0.432C0.574,0.432 0.488,0.434 0.442,0.427C0.424,0.424 0.408,0.389 0.4,0.369C0.39,0.345 0.389,0.306 0.387,0.253C0.386,0.231 0.385,0.205 0.383,0.177C0.383,0.171 0.382,0.165 0.382,0.164C0.381,0.164 0.379,0.164 0.376,0.164C0.375,0.164 0.372,0.165 0.369,0.165C0.324,0.163 0.143,0.178 0.095,0.274C0.077,0.31 0.07,0.329 0.061,0.354C0.056,0.367 0.051,0.381 0.044,0.399C0.034,0.422 0.024,0.423 0.015,0.424L0.013,0.424C0.005,0.424 0,0.417 0,0.403C0.001,0.24 0.001,0.075 0,-0.084C0,-0.162 0,-0.239 0,-0.314C0,-0.325 0.005,-0.334 0.013,-0.339C0.021,-0.343 0.036,-0.346 0.06,-0.331C0.098,-0.308 0.164,-0.246 0.172,-0.238C0.172,-0.237 0.173,-0.237 0.173,-0.237C0.18,-0.239 0.187,-0.288 0.192,-0.321C0.198,-0.366 0.204,-0.408 0.215,-0.42C0.22,-0.43 0.228,-0.434 0.239,-0.435C0.276,-0.435 0.335,-0.376 0.354,-0.345C0.406,-0.253 0.361,-0.119 0.288,-0.056C0.25,-0.022 0.211,-0.017 0.181,-0.04C0.161,-0.054 0.15,-0.088 0.137,-0.128C0.127,-0.158 0.115,-0.192 0.099,-0.22C0.095,-0.227 0.09,-0.226 0.087,-0.225C0.068,-0.219 0.04,-0.167 0.044,-0.136C0.056,-0.032 0.229,0.052 0.371,0.055C0.373,0.055 0.375,0.055 0.376,0.055C0.379,0.055 0.381,0.056 0.382,0.055C0.383,0.054 0.383,0.05 0.384,0.045L0.384,0.043C0.386,0.015 0.387,-0.011 0.388,-0.033C0.39,-0.086 0.391,-0.125 0.401,-0.149L0.402,-0.151C0.409,-0.167 0.424,-0.204 0.443,-0.208C0.489,-0.214 0.575,-0.213 0.612,-0.212C0.619,-0.212 0.623,-0.212 0.626,-0.212C0.713,-0.208 0.791,-0.201 0.866,-0.189C0.942,-0.177 1,-0.166 1,-0.138C1,-0.113 0.893,-0.033 0.75,0.049ZM0.642,-0.114C0.643,-0.126 0.643,-0.137 0.644,-0.148C0.644,-0.173 0.64,-0.183 0.638,-0.186C0.632,-0.191 0.599,-0.199 0.561,-0.186C0.526,-0.174 0.483,-0.144 0.475,-0.067C0.469,-0.011 0.498,0.043 0.549,0.068C0.572,0.079 0.619,0.081 0.634,0.072C0.636,0.071 0.638,0.07 0.638,0.068C0.638,0.064 0.638,0.053 0.638,0.042C0.638,0.025 0.639,0.006 0.64,-0.002C0.638,-0.004 0.626,-0.005 0.615,-0.006C0.594,-0.008 0.563,-0.011 0.529,-0.022C0.525,-0.023 0.524,-0.026 0.524,-0.027C0.525,-0.033 0.532,-0.035 0.578,-0.043C0.6,-0.047 0.635,-0.053 0.64,-0.057C0.64,-0.06 0.64,-0.062 0.64,-0.065C0.64,-0.08 0.641,-0.097 0.642,-0.114ZM0.556,0.398C0.593,0.413 0.631,0.409 0.638,0.402C0.64,0.398 0.644,0.389 0.644,0.363C0.644,0.346 0.642,0.326 0.641,0.307C0.64,0.295 0.639,0.283 0.639,0.273C0.634,0.269 0.6,0.263 0.577,0.259C0.53,0.251 0.523,0.249 0.523,0.243C0.523,0.241 0.525,0.239 0.528,0.238C0.563,0.227 0.593,0.224 0.613,0.222C0.624,0.221 0.638,0.219 0.639,0.217C0.642,0.19 0.641,0.161 0.636,0.134C0.633,0.125 0.585,0.125 0.548,0.134C0.519,0.141 0.478,0.188 0.476,0.256C0.476,0.258 0.476,0.261 0.476,0.263C0.476,0.352 0.526,0.386 0.556,0.398Z" style="fill:url(#_Linear1);fill-rule:nonzero;"/>
            </g>
        </g>
    </g>
    <defs>
        <linearGradient id="_Linear1" x1="0" y1="0" x2="1" y2="0" gradientUnits="userSpaceOnUse" gradientTransform="matrix(1,0,0,-1,0,-0.0011359)"><stop offset="0" style="stop-color:rgb(26,26,26);stop-opacity:1"/><stop offset="0.5" style="stop-color:rgb(0,0,153);stop-opacity:1"/><stop offset="1" style="stop-color:rgb(204,153,255);stop-opacity:1"/></linearGradient>
    </defs>
</svg>
