<?xml version="1.0" encoding="UTF-8" standalone="no"?><!DOCTYPE svg PUBLIC "-//W3C//DTD SVG 1.1//EN" "http://www.w3.org/Graphics/SVG/1.1/DTD/svg11.dtd"><svg width="100%" height="100%" viewBox="0 0 64 64" version="1.1" xmlns="http://www.w3.org/2000/svg" xmlns:xlink="http://www.w3.org/1999/xlink" xml:space="preserve" xmlns:serif="http://www.serif.com/" style="fill-rule:evenodd;clip-rule:evenodd;stroke-linejoin:round;stroke-miterlimit:2;"><rect id="bsky-black" x="-0" y="0" width="64" height="64" style="fill:none;"/><g id="bsky-black1" serif:id="bsky-black"><path d="M42.127,35.72c0.912,0.547 1.599,1.211 1.941,1.886c1.173,2.314 0.936,4.582 -0.165,6.273c-1.079,1.655 -3.047,2.819 -5.603,2.819c-1.89,-0 -3.629,-0.863 -5.007,-1.969c-0.477,-0.383 -0.908,-0.79 -1.284,-1.184c-0.372,0.392 -0.798,0.799 -1.27,1.18c-1.372,1.108 -3.108,1.973 -5.009,1.973c-2.562,-0 -4.536,-1.162 -5.62,-2.813c-1.111,-1.693 -1.352,-3.963 -0.178,-6.279c0.315,-0.622 0.923,-1.234 1.73,-1.754c-1.183,-0.681 -2.184,-1.573 -2.748,-2.664c-1.981,-3.831 -1.941,-9.689 0.145,-13.218l1.043,-1.766l1.739,1.087c2.859,1.788 7.01,4.34 10.159,8.313c3.149,-3.973 7.3,-6.525 10.159,-8.313l1.739,-1.087l1.043,1.766c1.245,2.106 1.989,5.209 1.81,8.081c-0.129,2.064 -0.736,4 -1.852,5.443c-0.681,0.879 -1.674,1.626 -2.772,2.226Zm-10.127,-4.588c-3,-5.132 -8,-8.132 -11.219,-10.145c-1.781,3.013 -1.781,8.013 -0.091,11.283c1.508,2.916 7.57,3.473 7.57,3.473c0,0 -5.609,0.923 -6.544,2.767c-1.6,3.155 0.438,6.188 4.014,6.188c3.576,-0 6.27,-4.343 6.27,-4.343c0,-0 2.74,4.343 6.3,4.343c3.56,-0 5.584,-3.033 3.984,-6.188c-0.935,-1.844 -6.544,-2.767 -6.544,-2.767c-0,0 5.571,-0.88 7.577,-3.473c2.22,-2.871 1.683,-8.27 -0.098,-11.283c-3.219,2.013 -8.219,5.013 -11.219,10.145Z" style="fill:#333;"/></g></svg>