<?xml version="1.0" encoding="UTF-8" standalone="no"?><!DOCTYPE svg PUBLIC "-//W3C//DTD SVG 1.1//EN" "http://www.w3.org/Graphics/SVG/1.1/DTD/svg11.dtd"><svg width="100%" height="100%" viewBox="0 0 64 64" version="1.1" xmlns="http://www.w3.org/2000/svg" xmlns:xlink="http://www.w3.org/1999/xlink" xml:space="preserve" xmlns:serif="http://www.serif.com/" style="fill-rule:evenodd;clip-rule:evenodd;stroke-linejoin:round;stroke-miterlimit:2;"><rect id="fb-white" x="-0" y="0" width="64" height="64" style="fill:none;"/><g id="fb-black"><path d="M30,36l-4,-0l-0,-4l4,-0c-0,-2.336 0.383,-4.504 1.618,-6.114c1.267,-1.652 3.449,-2.886 7.382,-2.886l-0,4c-2.189,-0 -3.503,0.401 -4.208,1.32c-0.735,0.959 -0.792,2.29 -0.792,3.68l4,-0l-0,4l-4,-0l-0,11l-4,-0l-0,-11Z" style="fill:#fff;"/><path d="M32,16c8.83,-0 16,7.169 16,16c-0,8.83 -7.17,16 -16,16c-8.831,-0 -16,-7.17 -16,-16c-0,-8.831 7.169,-16 16,-16Zm-0,2c-7.727,-0 -14,6.273 -14,14c-0,7.727 6.273,14 14,14c7.726,-0 14,-6.273 14,-14c-0,-7.727 -6.274,-14 -14,-14Z" style="fill:#fff;"/></g></svg>