<?xml version="1.0" encoding="UTF-8" standalone="no"?>
<!DOCTYPE svg PUBLIC "-//W3C//DTD SVG 1.1//EN" "http://www.w3.org/Graphics/SVG/1.1/DTD/svg11.dtd">
<svg width="100%" height="100%" viewBox="0 0 128 96" version="1.1" xmlns="http://www.w3.org/2000/svg" xmlns:xlink="http://www.w3.org/1999/xlink" xml:space="preserve" xmlns:serif="http://www.serif.com/" style="fill-rule:evenodd;clip-rule:evenodd;stroke-linejoin:round;stroke-miterlimit:2;">
    <g id="BANDERA-CUBA" transform="matrix(0.297674,0,0,0.3,-12.2047,-28.8)">
        <g transform="matrix(23.4544,0,0,1.08191,-6588.79,4.64717)">
            <rect x="282.667" y="261.9" width="18.333" height="59.154" style="fill:rgb(229,229,229);"/>
        </g>
        <g transform="matrix(23.4544,0,0,1.08191,-6588.79,-123.353)">
            <rect x="282.667" y="261.9" width="18.333" height="59.154" style="fill:rgb(229,229,229);"/>
        </g>
        <g transform="matrix(23.4544,0,0,1.08191,-6588.79,68.6472)">
            <rect x="282.667" y="261.9" width="18.333" height="59.154" style="fill:rgb(13,121,242);"/>
        </g>
        <g transform="matrix(23.4544,0,0,1.08191,-6588.79,-59.3528)">
            <rect x="282.667" y="261.9" width="18.333" height="59.154" style="fill:rgb(13,121,242);"/>
        </g>
        <g transform="matrix(23.4544,0,0,1.08191,-6588.79,-187.353)">
            <rect x="282.667" y="261.9" width="18.333" height="59.154" style="fill:rgb(13,121,242);"/>
        </g>
        <path d="M41,96L256,256L41,416L41,96Z" style="fill:rgb(242,13,13);"/>
        <g transform="matrix(0.559896,0,0,0.559896,56.7318,211.208)">
            <path d="M113,-16L134.553,50.334L204.301,50.334L147.874,91.331L169.427,157.666L113,116.669L56.573,157.666L78.126,91.331L21.699,50.334L91.447,50.334L113,-16Z" style="fill:rgb(229,229,229);"/>
        </g>
    </g>
</svg>
