<?xml version="1.0" encoding="UTF-8" standalone="no"?><!DOCTYPE svg PUBLIC "-//W3C//DTD SVG 1.1//EN" "http://www.w3.org/Graphics/SVG/1.1/DTD/svg11.dtd"><svg width="100%" height="100%" viewBox="0 0 64 64" version="1.1" xmlns="http://www.w3.org/2000/svg" xmlns:xlink="http://www.w3.org/1999/xlink" xml:space="preserve" xmlns:serif="http://www.serif.com/" style="fill-rule:evenodd;clip-rule:evenodd;stroke-linejoin:round;stroke-miterlimit:2;"><rect id="tw-black" x="0" y="0" width="64" height="64" style="fill:none;"/><g id="tw-black1" serif:id="tw-black"><path d="M14,44.394l9.369,-3.177c-4.495,-2.915 -6.176,-11.025 -5.371,-20.815l13.023,7.34c0.335,-4.107 3.778,-7.34 7.97,-7.34l7.997,0l0,3.999l2.93,-0l0.065,0.93c0,-0 0.771,10.493 -8.318,18.801c-3.055,2.792 -7.726,3.583 -12.254,3.452c-6.538,-0.19 -15.411,-3.19 -15.411,-3.19Zm18.993,-12.996c0,0 -13.106,-7.382 -13.106,-7.383c-0.258,4.447 0.044,8.029 1.023,10.771c2.004,5.609 8.085,6.609 8.085,6.609c-0,0 -8.563,2.908 -8.564,2.908c2.303,0.552 5.621,1.184 9.038,1.283c3.996,0.116 8.152,-0.465 10.847,-2.929c6.764,-6.184 7.602,-13.673 7.678,-16.257l-3.005,0l0,-3.998l-5.998,-0c-3.31,-0 -5.998,2.688 -5.998,5.997l0,2.999Z" style="fill:#333;"/></g></svg>