<?xml version="1.0" encoding="UTF-8" standalone="no"?><!DOCTYPE svg PUBLIC "-//W3C//DTD SVG 1.1//EN" "http://www.w3.org/Graphics/SVG/1.1/DTD/svg11.dtd"><svg width="100%" height="100%" viewBox="0 0 64 64" version="1.1" xmlns="http://www.w3.org/2000/svg" xmlns:xlink="http://www.w3.org/1999/xlink" xml:space="preserve" xmlns:serif="http://www.serif.com/" style="fill-rule:evenodd;clip-rule:evenodd;stroke-linejoin:round;stroke-miterlimit:2;"><rect id="yt-blue" x="0" y="0" width="64" height="64" style="fill:none;"/><g id="yt-black"><path d="M48.295,26.039c0.691,2.581 0.703,7.961 0.703,7.961c-0,-0 -0.012,5.38 -0.703,7.959c-0.46,1.721 -1.815,3.076 -3.535,3.536c-2.548,0.683 -12.761,0.703 -12.761,0.703c0,-0 -10.211,-0.02 -12.76,-0.703c-1.72,-0.46 -3.074,-1.815 -3.534,-3.536c-0.691,-2.579 -0.703,-7.959 -0.703,-7.959c0,-0 0.012,-5.38 0.703,-7.961c0.46,-1.72 1.814,-3.074 3.534,-3.534c2.549,-0.683 12.76,-0.703 12.76,-0.703c0,-0 10.213,0.02 12.761,0.703c1.72,0.46 3.075,1.814 3.535,3.534Zm-1.928,0.516c-0.276,-1.033 -1.09,-1.846 -2.123,-2.122c-2.444,-0.655 -12.245,-0.635 -12.245,-0.635c0,-0 -9.799,-0.02 -12.244,0.635c-1.033,0.276 -1.846,1.089 -2.122,2.122c-0.647,2.412 -0.635,7.445 -0.635,7.445c-0,-0 -0.012,5.032 0.635,7.443c0.276,1.033 1.089,1.848 2.122,2.124c2.445,0.655 12.244,0.635 12.244,0.635c0,0 9.801,0.02 12.245,-0.635c1.033,-0.276 1.847,-1.09 2.123,-2.124c0.647,-2.411 0.635,-7.443 0.635,-7.443c0,-0 0.012,-5.033 -0.635,-7.445Z" style="fill:#53cce7;"/><path d="M28.8,38.799l-0,-9.6l8.313,4.801l-8.313,4.799Z" style="fill:#53cce7;fill-rule:nonzero;"/></g></svg>