<?xml version="1.0" encoding="UTF-8" standalone="no"?>
<!DOCTYPE svg PUBLIC "-//W3C//DTD SVG 1.1//EN" "http://www.w3.org/Graphics/SVG/1.1/DTD/svg11.dtd">
<svg width="100%" height="100%" viewBox="0 0 64 128" version="1.1" xmlns="http://www.w3.org/2000/svg" xmlns:xlink="http://www.w3.org/1999/xlink" xml:space="preserve" xmlns:serif="http://www.serif.com/" style="fill-rule:evenodd;clip-rule:evenodd;stroke-linejoin:round;stroke-miterlimit:2;">
    <g transform="matrix(0.25,0,0,0.25,0,0)">
        <rect x="0" y="0" width="256" height="512" style="fill:none;"/>
        <g transform="matrix(4.27618,0,0,4.27618,-1071.5,35.7779)">
            <path d="M261.6,93.5C261.4,93.1 261.3,92.7 261.4,92.7C261.4,92.7 261.7,92.6 262,92.5C264.9,91.5 269,89.7 271.6,88.2L272.6,87.7L272.3,87.4C271.5,86.7 270.8,85.4 270.5,83.9C270.3,83.1 270.3,81.3 270.4,80.4C270.5,79.3 271.1,77.2 271.5,76.7C271.6,76.6 272.2,76.8 272.7,77C273.4,77.4 274.1,78.5 274.4,79.5C274.9,81.5 274.6,84.4 273.8,86.6C273.7,86.9 273.6,87.2 273.6,87.2C273.6,87.2 275.8,85.8 276.5,85.2C277.4,84.6 278.8,83.3 278.8,83.2C278.8,83.2 278.6,83 278.4,82.9C277,82 276,79.9 275.8,77.3C275.7,75.8 276,73.9 276.6,72.4C276.8,71.9 276.8,71.9 277,71.9C277.6,71.9 278.8,72.8 279.3,73.6C279.6,74.1 280,75 280.1,75.7C280.3,76.9 280.2,79.3 279.9,80.7C279.8,81.3 279.4,82.3 279.2,82.7C279.1,82.9 279,83 280.7,81.4C281.7,80.5 283.2,78.9 284.1,77.9L284.6,77.4L283.6,76.7C281.9,75.4 280.9,74.3 280.3,73.1C279.7,71.7 279.5,70.8 279.4,68L279.4,67.2L279.6,67.2C280.1,67.3 281.1,67.7 281.5,68C282.6,68.7 283.4,69.7 284,71.4C284.3,72.3 284.4,72.6 284.5,74.6C284.6,75.6 284.6,76.6 284.7,76.8L284.8,77.2L285.2,76.7C286.2,75.5 287.7,73.5 288.4,72.5L288.5,72.3L287.6,71.9C286,71.2 285.1,70.6 284.3,69.8C283.6,69 282.7,67.4 282.3,66.2C281.7,64.6 281.1,62.6 281.1,62.5C281.2,62.4 282.5,62.6 282.9,62.8C284.3,63.2 285.4,64.2 286.5,65.9C287,66.7 287.2,67.3 287.6,68.9C287.9,70.2 288.3,71.5 288.5,71.8C288.6,71.9 288.6,71.8 288.9,71.3C289.7,70 290.8,67.8 291.3,66.6L291.5,66.1L291.2,66C291,66 290.5,65.9 290,65.8C287.7,65.4 286.4,64.6 285,63.1C283.6,61.5 282.7,60 282,57.9C281.8,57.4 281.7,57.1 281.7,57.1C281.7,57.1 282.1,57.1 282.7,57.2C284,57.3 284.9,57.5 285.8,58C286.9,58.5 287.7,59.2 288.6,60.5C289.2,61.4 289.6,62 290.3,63.4C291,64.8 291.6,65.9 291.7,65.8C291.9,65.7 292.8,62.5 293.1,61C293.3,60 293.4,60.1 292.4,60C291,59.9 290.1,59.6 289,59.2C286.6,58.1 284.3,55.4 282.9,52.1C282.7,51.7 282.6,51.4 282.7,51.4C282.8,51.3 284.2,51.3 284.9,51.4C287.1,51.6 288.5,52.5 290.3,54.8C291.2,55.9 291.8,56.9 292.8,58.7C293,59.1 293.2,59.4 293.3,59.4C293.4,59.3 293.6,57.4 293.7,55.8C293.8,54.7 293.8,53.8 293.7,53.1L293.6,52.1L293.3,52.1C292.9,52.1 291.2,52 290.6,51.9C287.7,51.3 285.5,49.9 283.6,47.2C283.1,46.5 281.7,44.2 281.8,44.1C281.8,44.1 282.2,44 282.7,44C283.7,43.9 285,43.9 285.5,44C287.2,44.3 288.9,45.4 290.5,47.3C290.8,47.7 291.6,48.8 292.3,49.8C293,50.8 293.6,51.7 293.6,51.7C293.7,51.7 293.4,49.5 293.1,48C292.8,46.6 292.1,43.8 292,43.7C292,43.7 291.6,43.7 291.2,43.8C290.1,44 288.4,43.9 287.3,43.7C284.9,43.2 283.4,42.3 281.8,40.7C281.1,39.9 279.9,38.3 279.7,37.8C279.7,37.7 280,37.6 281.1,37.3C281.7,37.2 283.2,37.2 283.9,37.3C285.6,37.7 287.6,38.6 289,39.8C289.6,40.3 290.8,41.4 291.1,41.9C291.4,42.3 291.5,42.4 291.4,42.1C291.4,42 291.1,41.4 290.9,40.7C290.4,39.3 289.4,36.7 289.3,36.6C289.3,36.6 289,36.6 288.6,36.7C286.6,37.1 284.5,37 282.5,36.5C280.4,35.9 278.4,34.3 276.7,31.9L276.4,31.4L276.6,31.3C278.5,30.6 280,30.5 281.9,30.9C284.2,31.5 286.3,32.7 288.1,34.5C288.6,35 288.7,35.1 288.7,34.9C288.3,33.9 287.4,32.3 286.8,31.2C286.1,30 284.9,28.3 284.8,28.3C284.8,28.3 284.5,28.4 284.3,28.5C282.5,29.3 279.1,29.3 276.7,28.6C276.1,28.4 275.1,27.9 274.5,27.5C274,27.2 273.2,26.5 272.9,26.1L272.7,25.8L273.2,25.5C274.6,24.8 276.1,24.5 278,24.8C279.4,25 280.4,25.3 281.6,25.8C282.4,26.2 283.2,26.7 283.7,27.1C283.9,27.2 284,27.3 284,27.3C284.1,27.3 280.9,23.2 280.2,22.3L280,22L279.3,22.2C278.5,22.5 277.3,22.7 276.2,22.7C275.3,22.8 273.6,22.6 272.7,22.5C270.8,22.1 268.9,21.1 267.6,19.9C267.3,19.6 267.1,19.4 267.1,19.4C267.1,19.3 267.8,19 268.3,18.8C269.5,18.4 271,18.2 272.4,18.4C274.7,18.6 276.5,19.2 278.3,20.4C278.7,20.6 279,20.8 279,20.8C279,20.7 275.9,17.3 275.2,16.7L274.7,16.2L273.4,16.2C271.4,16.1 269.8,15.9 268.5,15.4C266.9,14.8 264.4,12.5 262.9,10.3C262.5,9.7 262.3,9.2 262.4,9.1C262.5,9 263.3,8.8 263.9,8.7C264.7,8.6 266,8.6 266.8,8.8C268.6,9.2 269.8,9.9 271.6,11.6C272.9,12.9 273.8,14 274.5,15.1C274.8,15.5 275.2,16 276.4,17.2L277.7,18.5L277.3,17.8C277.1,17.4 276.8,16.8 276.6,16.3C276,14.8 275.7,13.6 275.7,11.6C275.6,9.7 275.9,7.9 276.3,6.9L276.4,6.6L276.7,6.9C277.8,7.8 278.9,9.3 279.4,11C279.8,12.3 279.9,13.1 279.9,14.9C279.9,16.9 279.7,18.3 279.3,19.6L279.1,20.2L279.6,20.8C280.4,21.7 281.6,23.1 282.5,24.3C283.8,26 283.8,25.9 283.3,25C282.6,23.5 282.1,21.9 281.8,20.6C281.7,19.8 281.7,18.1 281.8,17.1C282,15.8 282.6,13.6 282.8,13.5C283,13.4 284.1,14.4 284.6,15.1C285.2,15.9 285.6,17 285.9,18.1C286.4,20.7 286,24.1 284.8,26.7L284.6,27.2L285.1,28C285.8,29 287.2,31 287.9,32.3C288.2,32.9 288.5,33.4 288.6,33.4C288.7,33.4 288.6,33.3 288.5,33.1C288.3,32.4 288,31.2 287.9,30.3C287.8,29.2 287.8,27.2 288,26.3C288.4,24.4 289.3,22.8 290.6,21.6C290.9,21.3 291.2,21 291.3,21C291.4,20.9 291.5,21 291.7,21.2C292.9,22.5 293.5,25 293.3,27.2C293.1,29.4 292.4,31.3 291.5,32.5C291,33.2 290.2,34 289.6,34.3L289.2,34.5L290,36.1C290.7,37.6 291.7,39.9 292.1,40.8C292.2,41 292.3,41.2 292.3,41.2C292.3,41.2 292.3,41 292.2,40.7C292.2,40.4 292.1,39.4 292.1,38.5C292.1,36.5 292.2,35.7 292.6,34.5C293.1,32.8 294.2,31.5 295.5,30.6C296.1,30.2 296.8,29.9 297,29.9C297.1,29.9 297.2,30.4 297.4,31.6C297.5,32.4 297.5,35.1 297.4,35.9C297.2,36.9 297,37.7 296.6,38.5C296.3,39.3 295.5,40.6 295,41.3C294.5,41.9 293.7,42.8 293.3,43.1L293,43.3L293.3,44.4C293.7,45.8 294.1,47.5 294.3,48.8C294.4,49.3 294.5,49.8 294.5,49.8L294.5,49.4C294.5,48.8 294.7,47.1 294.9,46.2C295.4,43.6 296.2,41.9 297.6,40.5C298.5,39.6 299.8,38.8 301,38.4L301.6,38.2L301.6,38.4C301.7,38.8 301.7,41.1 301.6,41.9C301.4,43.8 300.8,45.4 300,46.7C298.7,48.8 296.8,50.6 295.2,51.2C294.8,51.4 294.7,51.4 294.7,51.5C294.7,51.6 294.8,52.1 294.8,52.7C294.9,54.5 294.9,56.2 294.7,58.6L294.7,59.1L294.9,58.7C295,58.5 295.4,57.4 295.7,56.4C296.6,53.7 297.2,52.5 298.2,51.3C299.7,49.6 301.9,48.5 304.3,48.4L305,48.4L305,48.8C304.9,49.4 304.5,50.9 304.2,51.7C303.4,53.8 302.3,55.4 300.8,56.7C299.1,58.1 296.9,59.3 295.2,59.7C294.9,59.8 294.6,59.8 294.6,59.9C294.6,59.9 294.5,60.3 294.4,60.7C294.3,61.6 293.9,63.5 293.7,64.3C293.6,64.6 293.6,64.8 293.6,64.8C293.6,64.8 293.8,64.5 294.1,64.2C294.4,63.9 295,63.2 295.5,62.7C297.6,60.6 299.4,59.5 301.5,58.9C302.1,58.7 302.3,58.7 303.4,58.7C304.7,58.7 305.2,58.8 306,59.2L306.7,59.5L306.5,59.9C305.2,61.9 303.4,63.6 301.6,64.6C299,66 296.3,66.4 294.2,65.9C293.9,65.8 293.7,65.8 293.7,65.8C293.7,65.8 293.5,66.2 293.4,66.7C293,67.9 292.4,69.3 291.8,70.4L291.3,71.3L292,70.7C294.7,68.5 297.6,67.3 300.1,67.3C301.5,67.3 302.5,67.6 303.5,68.2C304,68.5 304.8,69.2 304.8,69.3C304.8,69.4 303.8,70.3 303.1,70.8C301,72.3 298.6,73.2 296,73.4C295,73.5 294,73.4 293.1,73.2C292.5,73 291.5,72.6 291.1,72.2L290.8,72L290.2,72.9C289.2,74.5 287.8,76.3 286.4,78C286,78.4 285.7,78.8 285.6,78.9C285.5,79 285.8,78.8 286.2,78.5C288.1,77.1 290,76.2 291.6,75.8C292.7,75.6 294.3,75.5 295.2,75.7C296.4,75.9 297.5,76.5 298.2,77.3C298.5,77.6 298.6,77.7 298.5,77.8C298.4,78 297.4,78.8 296.8,79.2C295.7,80 294.5,80.5 293.1,81C291,81.7 289,81.7 287.4,81.2C286.6,80.9 285.5,80.3 285.1,79.8L284.9,79.6L283.2,81.3C282.3,82.2 281.2,83.3 280.7,83.7L280,84.4L280.5,84.2C281.5,83.8 281.9,83.7 282.8,83.5C284.4,83.1 284.8,83 286.5,83C288.2,83 288.8,83.1 289.9,83.5C291.2,84 292.2,84.9 292.4,85.9C292.4,86.1 292.4,86.1 291.9,86.3C290.4,87 288.5,87.4 286.1,87.4C283.9,87.4 282.4,87 281.1,86.2C280.6,85.9 280,85.2 279.8,84.9L279.7,84.7L279,85.3C277.6,86.5 275.9,87.7 274.1,88.8C273.7,89 273.4,89.2 273.4,89.2C273.4,89.2 273.7,89.1 274,89.1C276.8,88.4 279.7,88.3 281.6,88.8C283.4,89.3 284.8,90.3 285.4,91.5C285.8,92.3 285.8,92.3 285.6,92.4C283.6,93.3 279.9,93.5 277.2,92.7C275.5,92.2 274,91.2 273.1,90C272.9,89.8 272.8,89.6 272.8,89.6C272.8,89.6 272,90 271.1,90.5C268.4,91.8 265.1,93.3 262.4,94.2L262,94.4L261.6,93.5Z" style="fill:rgb(153,153,255);fill-rule:nonzero;"/>
        </g>
    </g>
</svg>
