<?xml version="1.0" encoding="UTF-8" standalone="no"?>
<!DOCTYPE svg PUBLIC "-//W3C//DTD SVG 1.1//EN" "http://www.w3.org/Graphics/SVG/1.1/DTD/svg11.dtd">
<svg width="100%" height="100%" viewBox="0 0 32 32" version="1.1" xmlns="http://www.w3.org/2000/svg" xmlns:xlink="http://www.w3.org/1999/xlink" xml:space="preserve" xmlns:serif="http://www.serif.com/" style="fill-rule:evenodd;clip-rule:evenodd;stroke-linejoin:round;stroke-miterlimit:2;">
    <g transform="matrix(1,0,0,1,-884,-296)">
        <g transform="matrix(1,0,0,1,256,0)">
            <g id="linkdn" transform="matrix(0.669231,0,0,0.669231,627.938,295.938)">
                <g>
                    <path d="M37,14L37,34C37,35.656 35.656,37 34,37L14,37C12.344,37 11,35.656 11,34L11,14C11,12.344 12.344,11 14,11L34,11C35.656,11 37,12.344 37,14ZM13,14L13,34C13,34.552 13.448,35 14,35L34,35C34.552,35 35,34.552 35,34L35,14C35,13.448 34.552,13 34,13L14,13C13.448,13 13,13.448 13,14Z" style="fill:rgb(255,70,70);"/>
                </g>
                <g transform="matrix(1.33975,0,0,1.33975,-11.0992,-8.30652)">
                    <path d="M20.013,23.776L20.013,25.099L21.809,25.099L21.809,28.767L20.013,28.767L20.013,30.085L25.156,30.085L25.156,28.767L23.448,28.767L23.448,23.776L20.013,23.776ZM21.692,22.16C21.692,22.285 21.715,22.4 21.759,22.507C21.804,22.614 21.867,22.705 21.949,22.779C22.031,22.856 22.129,22.917 22.243,22.959C22.358,23.002 22.485,23.023 22.625,23.023C22.913,23.023 23.141,22.943 23.311,22.781C23.48,22.62 23.564,22.413 23.564,22.16C23.564,21.908 23.48,21.701 23.311,21.539C23.141,21.378 22.913,21.297 22.625,21.297C22.485,21.297 22.358,21.319 22.243,21.361C22.129,21.404 22.031,21.463 21.949,21.536C21.867,21.614 21.804,21.707 21.759,21.813C21.715,21.92 21.692,22.036 21.692,22.16Z" style="fill:rgb(255,70,70);fill-rule:nonzero;"/>
                    <path d="M26.748,30.085L28.375,30.085L28.375,25.601C28.429,25.515 28.49,25.438 28.556,25.368C28.622,25.298 28.696,25.237 28.777,25.187C28.878,25.117 28.994,25.064 29.124,25.029C29.255,24.994 29.397,24.977 29.553,24.977C29.74,24.977 29.907,24.995 30.054,25.032C30.202,25.069 30.329,25.134 30.433,25.228C30.538,25.321 30.619,25.448 30.675,25.61C30.732,25.771 30.76,25.976 30.76,26.225L30.76,30.085L32.381,30.085L32.381,26.201C32.381,25.743 32.328,25.353 32.221,25.032C32.114,24.712 31.965,24.448 31.775,24.242C31.58,24.04 31.351,23.892 31.087,23.799C30.822,23.706 30.531,23.659 30.212,23.659C29.963,23.659 29.728,23.694 29.506,23.764C29.285,23.834 29.081,23.935 28.894,24.067C28.785,24.145 28.682,24.232 28.585,24.33C28.488,24.427 28.398,24.534 28.317,24.65L28.218,23.776L26.748,23.776L26.748,30.085Z" style="fill:rgb(255,70,70);fill-rule:nonzero;"/>
                </g>
                <g transform="matrix(0.747126,0,0,0.747126,0.091954,0.091954)">
                    <rect x="0" y="0" width="64" height="64" style="fill:none;"/>
                </g>
            </g>
        </g>
    </g>
</svg>
