<?xml version="1.0" encoding="UTF-8" standalone="no"?>
<!DOCTYPE svg PUBLIC "-//W3C//DTD SVG 1.1//EN" "http://www.w3.org/Graphics/SVG/1.1/DTD/svg11.dtd">
<svg width="100%" height="100%" viewBox="0 0 32 32" version="1.1" xmlns="http://www.w3.org/2000/svg" xmlns:xlink="http://www.w3.org/1999/xlink" xml:space="preserve" xmlns:serif="http://www.serif.com/" style="fill-rule:evenodd;clip-rule:evenodd;stroke-linejoin:round;stroke-miterlimit:2;">
    <g transform="matrix(1,0,0,1,-924,-296)">
        <g transform="matrix(1,0,0,1,256,0)">
            <g id="bsky" transform="matrix(0.669231,0,0,0.669231,667.27,294.406)">
                <g transform="matrix(1.2123,0,0,1.2123,-4.10391,-1.73792)">
                    <path d="M24.007,18.77C24.73,17.453 25.827,16.074 27.109,14.86C29.396,12.692 32.226,11.076 34.246,11.076C35.098,11.076 35.816,11.565 36.26,12.605C36.922,14.156 36.936,17.322 36.152,21.184C35.882,22.512 34.898,23.583 33.767,24.355C33.31,24.666 32.834,24.929 32.391,25.144C32.789,25.394 33.209,25.679 33.595,25.982C34.224,26.475 34.761,27.024 35.054,27.551C35.245,27.895 35.318,28.318 35.24,28.806C35.163,29.285 34.924,29.86 34.554,30.461C33.688,31.866 32.086,33.485 30.815,34.373C30.145,34.84 29.532,35.105 29.115,35.151C28.357,35.236 27.159,34.788 26.037,33.914C25.226,33.282 24.457,32.446 23.908,31.542C23.397,32.198 22.722,32.824 21.997,33.362C20.94,34.145 19.778,34.74 18.895,35C18.408,35.143 17.984,35.187 17.665,35.151C17.27,35.107 16.77,34.89 16.251,34.492C15.345,33.797 14.286,32.516 13.576,31.245C13.146,30.473 12.846,29.703 12.749,29.063C12.658,28.462 12.741,27.945 12.959,27.551C13.252,27.024 13.79,26.475 14.418,25.982C14.805,25.679 15.225,25.394 15.623,25.144C15.18,24.929 14.704,24.667 14.247,24.355C13.116,23.583 12.131,22.512 11.861,21.184C11.077,17.322 11.092,14.156 11.753,12.605C12.197,11.565 12.915,11.076 13.767,11.076C15.787,11.076 18.617,12.692 20.905,14.86C22.186,16.074 23.284,17.453 24.007,18.77ZM33.42,28.418C33.143,27.946 32.552,27.484 31.961,27.074C30.928,26.357 29.843,25.832 29.843,25.832C29.498,25.665 29.292,25.302 29.325,24.92C29.358,24.537 29.624,24.215 29.994,24.111C29.994,24.111 31.45,23.697 32.725,22.828C33.46,22.326 34.165,21.68 34.34,20.816C34.936,17.881 35.081,15.402 34.733,13.887C34.662,13.575 34.572,13.313 34.449,13.114C34.39,13.017 34.343,12.924 34.246,12.924C32.566,12.924 30.283,14.399 28.38,16.202C27.201,17.32 26.172,18.582 25.541,19.772C25.174,20.465 24.939,21.123 24.938,21.699C24.937,22.091 24.594,22.626 24.007,22.626C23.42,22.626 23.076,22.091 23.076,21.699C23.075,21.123 22.839,20.465 22.472,19.772C21.841,18.582 20.813,17.32 19.633,16.202C17.73,14.399 15.447,12.924 13.767,12.924C13.671,12.924 13.624,13.017 13.564,13.114C13.441,13.313 13.352,13.575 13.28,13.887C12.933,15.402 13.077,17.881 13.673,20.816C13.849,21.68 14.553,22.326 15.289,22.828C16.563,23.697 18.02,24.111 18.02,24.111C18.389,24.215 18.655,24.537 18.688,24.92C18.722,25.302 18.515,25.665 18.17,25.832C18.17,25.832 17.085,26.357 16.052,27.074C15.448,27.493 14.844,27.966 14.576,28.449C14.501,28.583 14.564,28.771 14.617,28.989C14.719,29.404 14.927,29.871 15.191,30.343C15.696,31.248 16.408,32.165 17.075,32.771C17.383,33.051 17.643,33.289 17.87,33.314C18.067,33.336 18.344,33.248 18.67,33.126C19.343,32.876 20.149,32.429 20.896,31.876C21.508,31.423 22.081,30.898 22.498,30.343C22.832,29.899 23.076,29.448 23.076,29C23.076,28.754 23.173,28.519 23.347,28.346C23.521,28.172 23.757,28.075 24.002,28.076L24.011,28.076C24.257,28.075 24.492,28.172 24.666,28.346C24.84,28.519 24.938,28.754 24.938,29C24.938,30.258 26.06,31.588 27.173,32.455C27.552,32.751 27.936,32.991 28.291,33.148C28.529,33.253 28.74,33.333 28.911,33.314C29.169,33.285 29.528,33.031 29.954,32.714C30.789,32.093 31.748,31.156 32.465,30.229C32.834,29.751 33.138,29.28 33.309,28.86C33.372,28.706 33.412,28.466 33.42,28.418Z" style="fill:rgb(255,70,70);"/>
                </g>
                <g transform="matrix(0.747126,0,0,0.747126,1.09144,2.38162)">
                    <rect x="0" y="0" width="64" height="64" style="fill:none;"/>
                </g>
            </g>
        </g>
    </g>
</svg>
