<?xml version="1.0" encoding="UTF-8" standalone="no"?>
<!DOCTYPE svg PUBLIC "-//W3C//DTD SVG 1.1//EN" "http://www.w3.org/Graphics/SVG/1.1/DTD/svg11.dtd">
<svg width="100%" height="100%" viewBox="0 0 32 32" version="1.1" xmlns="http://www.w3.org/2000/svg" xmlns:xlink="http://www.w3.org/1999/xlink" xml:space="preserve" xmlns:serif="http://www.serif.com/" style="fill-rule:evenodd;clip-rule:evenodd;stroke-linejoin:round;stroke-miterlimit:2;">
    <g transform="matrix(1,0,0,1,-964,-296)">
        <g transform="matrix(1,0,0,1,256,0)">
            <g id="email" transform="matrix(0.666667,0,0,0.666667,708,296)">
                <g>
                    <path d="M41,14L41,34C41,35.656 39.656,37 38,37L10,37C8.344,37 7,35.656 7,34L7,14C7,12.344 8.344,11 10,11L38,11C39.656,11 41,12.344 41,14ZM39,30C39,30 39,18 39,18L31,24L39,30ZM9,18C9,18 9,30 9,30L17,24L9,18ZM9,32.5L9,34C9,34.552 9.448,35 10,35L38,35C38.552,35 39,34.552 39,34L39,32.5L29.333,25.25L27,27C25.222,28.333 22.778,28.333 21,27C21,27 18.667,25.25 18.667,25.25L9,32.5ZM39,15.5L39,14C39,13.448 38.552,13 38,13L10,13C9.448,13 9,13.448 9,14L9,15.5L22.2,25.4C23.267,26.2 24.733,26.2 25.8,25.4L39,15.5Z" style="fill:rgb(255,70,70);"/>
                </g>
                <g transform="matrix(1,0,0,1,0,-3.98909)">
                    <path d="M24,20.493C24.457,19.884 25.186,19.489 26.005,19.489C27.388,19.489 28.511,20.612 28.511,21.995C28.511,22.683 28.233,23.307 27.782,23.76L24.362,27.345C24.267,27.444 24.137,27.5 24,27.5C23.863,27.5 23.733,27.444 23.638,27.345L20.218,23.76C19.767,23.307 19.489,22.683 19.489,21.995C19.489,20.612 20.612,19.489 21.995,19.489C22.814,19.489 23.543,19.884 24,20.493Z" style="fill:rgb(255,70,70);"/>
                </g>
                <g transform="matrix(0.75,0,0,0.75,1.38556e-13,3.55271e-15)">
                    <rect x="0" y="0" width="64" height="64" style="fill:none;"/>
                </g>
            </g>
        </g>
    </g>
</svg>
