<?xml version="1.0" encoding="UTF-8" standalone="no"?>
<!DOCTYPE svg PUBLIC "-//W3C//DTD SVG 1.1//EN" "http://www.w3.org/Graphics/SVG/1.1/DTD/svg11.dtd">
<svg width="100%" height="100%" viewBox="0 0 32 32" version="1.1" xmlns="http://www.w3.org/2000/svg" xmlns:xlink="http://www.w3.org/1999/xlink" xml:space="preserve" xmlns:serif="http://www.serif.com/" style="fill-rule:evenodd;clip-rule:evenodd;stroke-linejoin:round;stroke-miterlimit:2;">
    <g transform="matrix(1,0,0,1,-953,-2375)">
        <g transform="matrix(1,0,0,1,-147,-2.27374e-13)">
            <g id="ext-link">
                <g id="ext-link1" serif:id="ext-link" transform="matrix(0.909091,0,0,0.869565,-16.6364,1892.33)">
                    <path d="M1247,574.35C1247.61,574.35 1248.1,574.865 1248.1,575.5L1248.1,577.8C1248.1,579.704 1246.62,581.25 1244.8,581.25L1231.6,581.25C1229.78,581.25 1228.3,579.704 1228.3,577.8L1228.3,566.3C1228.3,564.396 1229.78,562.85 1231.6,562.85L1236,562.85C1236.29,562.85 1236.57,562.971 1236.78,563.187C1236.98,563.402 1237.1,563.695 1237.1,564C1237.1,564.305 1236.98,564.598 1236.78,564.813C1236.57,565.029 1236.29,565.15 1236,565.15L1231.6,565.15C1230.99,565.15 1230.5,565.665 1230.5,566.3L1230.5,577.8C1230.5,578.435 1230.99,578.95 1231.6,578.95L1244.8,578.95C1245.41,578.95 1245.9,578.435 1245.9,577.8L1245.9,575.5C1245.9,574.865 1246.39,574.35 1247,574.35ZM1245.9,566.776L1241.18,571.713C1240.75,572.162 1240.05,572.162 1239.62,571.713C1239.19,571.264 1239.19,570.536 1239.62,570.087L1244.34,565.15L1241.5,565.15C1240.89,565.15 1240.4,564.635 1240.4,564C1240.4,563.365 1240.89,562.85 1241.5,562.85L1247,562.85C1247.3,562.85 1247.57,562.973 1247.78,563.187C1247.98,563.401 1248.1,563.69 1248.1,564L1248.1,569.75C1248.1,570.385 1247.61,570.9 1247,570.9C1246.39,570.9 1245.9,570.385 1245.9,569.75L1245.9,566.776Z" style="fill:rgb(255,70,70);"/>
                </g>
                <g transform="matrix(0.680851,0,0,0.797896,446,481.232)">
                    <rect x="940" y="2371.89" width="47" height="40.105" style="fill:none;"/>
                </g>
            </g>
        </g>
    </g>
</svg>
