<?xml version="1.0" encoding="UTF-8" standalone="no"?>
<!DOCTYPE svg PUBLIC "-//W3C//DTD SVG 1.1//EN" "http://www.w3.org/Graphics/SVG/1.1/DTD/svg11.dtd">
<svg width="100%" height="100%" viewBox="0 0 64 64" version="1.1" xmlns="http://www.w3.org/2000/svg" xmlns:xlink="http://www.w3.org/1999/xlink" xml:space="preserve" xmlns:serif="http://www.serif.com/" style="fill-rule:evenodd;clip-rule:evenodd;stroke-linejoin:round;stroke-miterlimit:2;">
    <g transform="matrix(1,0,0,1,2161,-809)">
        <g transform="matrix(1,0,0,1,-2161,809)">
            <g id="heart" transform="matrix(1.2,0,0,1.2,3.2,5.88925)">
                <g transform="matrix(4.43369,0,0,4.43369,-82.4086,-91.3163)">
                    <path d="M24,20.493C24.457,19.884 25.186,19.489 26.005,19.489C27.388,19.489 28.511,20.612 28.511,21.995C28.511,22.683 28.233,23.307 27.782,23.76L24.362,27.345C24.267,27.444 24.137,27.5 24,27.5C23.863,27.5 23.733,27.444 23.638,27.345L20.218,23.76C19.767,23.307 19.489,22.683 19.489,21.995C19.489,20.612 20.612,19.489 21.995,19.489C22.814,19.489 23.543,19.884 24,20.493Z" style="fill:rgb(255,70,70);"/>
                </g>
                <g transform="matrix(0.833333,0,0,0.833333,-2.66667,-4.90771)">
                    <rect x="0" y="0" width="64" height="64" style="fill:none;"/>
                </g>
            </g>
        </g>
    </g>
</svg>
