<?xml version="1.0" encoding="UTF-8" standalone="no"?>
<!DOCTYPE svg PUBLIC "-//W3C//DTD SVG 1.1//EN" "http://www.w3.org/Graphics/SVG/1.1/DTD/svg11.dtd">
<svg width="100%" height="100%" viewBox="0 0 64 128" version="1.1" xmlns="http://www.w3.org/2000/svg" xmlns:xlink="http://www.w3.org/1999/xlink" xml:space="preserve" xmlns:serif="http://www.serif.com/" style="fill-rule:evenodd;clip-rule:evenodd;stroke-linejoin:round;stroke-miterlimit:2;">
    <g transform="matrix(0.25,0,0,0.25,0,0)">
        <rect x="0" y="0" width="256" height="512" style="fill:none;"/>
        <g transform="matrix(4.31045,0,0,4.31045,-12.88,33.8655)">
            <path d="M24.608,33.488C24.666,33.401 25.033,32.843 25.4,32.2C26.2,30.9 27.4,29 28.2,28C28.4,27.7 28.6,27.4 28.6,27.4C28.6,27.4 28.5,27.1 28.4,26.9C27.2,24.2 26.7,20.8 27.3,18.2C27.6,16.8 28.3,15.6 29.1,14.7C29.5,14.3 30.2,13.7 30.3,13.7C30.6,13.7 31.2,16.1 31.4,17.6C31.5,18.4 31.5,20.1 31.4,20.8C31.2,22.2 30.6,23.8 29.9,25.3C29.7,25.7 29.6,26 29.6,26C29.6,26 30,25.5 30.5,24.9C31.4,23.7 32.6,22.4 33.5,21.2C34,20.6 34.2,20.3 34.2,20.3C33.4,18.3 33.1,14.8 33.6,12.4C34,10.5 34.9,8.8 36.2,7.6C36.5,7.3 36.8,7.1 36.8,7.1C37,7.1 37.4,8.5 37.6,9.9C37.7,10.7 37.7,12.3 37.6,13.2C37.4,15 36.9,16.7 35.9,18.3L35.8,18.5L37.3,16.9C38.4,15.8 38.9,15.2 39.1,14.9C39.8,13.8 40.8,12.6 42.1,11.3C43.5,9.9 44.4,9.3 45.6,8.8C47.2,8.2 49.1,8.1 50.7,8.6C51,8.7 51.2,8.8 51.2,8.8C51.2,8.9 51,9.4 50.6,10C49.5,11.7 47.7,13.5 46.1,14.5C44.8,15.4 42.8,15.8 40.1,15.9L38.8,15.9L38.3,16.4C37.7,17 36.6,18.1 35.3,19.6C34.4,20.6 34.2,20.9 34.5,20.6C34.7,20.4 35.8,19.7 36.3,19.4C38.8,18.2 41.8,17.8 44.4,18.4C45.2,18.6 46.2,19 46.2,19.2C46.2,19.3 45.4,20.1 44.8,20.5C43.1,21.8 41.3,22.4 38.9,22.6C37.1,22.7 35.4,22.5 34,22.1C33.6,22 33.3,21.9 33.2,21.9C33.1,21.9 29.1,27.1 29.1,27.1C29.1,27.1 29.3,27 29.6,26.8C30.8,25.9 32.5,25.1 33.9,24.8C36.4,24.3 38.2,24.4 39.9,25.3L40.4,25.6L40.2,25.9C39.4,26.9 37.8,28 36.3,28.4C33.9,29.2 30.6,29.1 28.9,28.3C28.7,28.2 28.5,28.1 28.4,28.1C28.3,28.1 26.9,30.2 26.2,31.5C25.7,32.3 24.4,34.9 24.4,35C24.4,35 24.7,34.7 25.1,34.3C25.8,33.6 27,32.6 27.8,32.2C29.9,31 32.3,30.3 34.1,30.5C34.8,30.6 35.8,30.8 36.4,31.1L36.7,31.2L36.4,31.7C35.1,33.6 33.6,34.9 31.9,35.7C29.9,36.7 26.7,37 24.4,36.4L23.9,36.3L23.6,37.1C22.9,38.8 21.7,42 21.7,42.1C21.7,42.1 21.9,41.9 22,41.7C22.5,41.1 23.5,40.1 24.1,39.6C24.9,39 25.5,38.6 26.5,38.1C28.2,37.3 29.2,37 30.7,37C31.6,37 31.9,37 32.9,37.3C33.5,37.5 33.5,37.4 33,38.2C30.7,41.8 27.9,43.5 23.8,43.6C22.9,43.6 22.5,43.6 21.9,43.5L21.4,43.5C21.3,43.6 20.6,46.4 20.3,47.8C20,49.5 19.7,51.6 19.9,51.5C20,51.4 21.1,49.7 21.6,49C22.5,47.6 24.1,45.8 25.1,45.1C26,44.5 27,44 28,43.8C28.6,43.7 29.9,43.7 30.9,43.8C31.4,43.9 31.8,43.9 31.8,43.9C31.9,43.9 30.9,45.5 30.4,46.4C28,50 25,51.8 20.9,51.9L20,51.9L19.9,52.9L19.9,55.4C20,56.9 20.2,58.8 20.2,59C20.2,59.1 20.5,58.6 21,57.8C21.9,56.3 22.5,55.3 23.2,54.4C25,52.1 26.4,51.3 28.6,51C29.3,50.9 30.8,50.9 30.8,51C30.9,51.1 30.4,52.2 29.9,53.1C29.4,54.1 28.6,55.2 27.9,56.1C26,58.3 24,59.4 21.3,59.6C20.8,59.6 20.4,59.7 20.4,59.7C20.4,59.7 20.6,60.9 20.9,62C21.2,63.1 21.9,65.3 22,65.4C22.1,65.4 22.7,64.4 23.4,63C24.9,60 26.1,58.5 27.7,57.7C28.3,57.4 29.1,57.1 29.7,57C30.1,56.9 31.9,56.7 31.9,56.8C31.9,56.8 31.8,57.2 31.6,57.6C31,59.2 30.3,60.7 29.4,61.8C27.7,64.1 26.3,65 23.6,65.5C23.1,65.6 22.6,65.7 22.4,65.7L22.1,65.8L22.3,66.3C22.8,67.5 23.8,69.4 24.6,70.8C25.2,71.7 25.2,71.7 25.2,71.6C25.3,71.3 25.8,70 26.1,68.7C26.5,67.1 26.8,66.4 27.2,65.7C28.3,63.8 29.6,62.8 31.2,62.5C31.9,62.4 32.6,62.3 32.6,62.4C32.6,62.4 32.5,62.8 32.4,63.1C32.3,63.5 32,64.4 31.7,65.1C31.2,66.6 30.9,67.3 30.2,68.5C29.2,70 28.3,70.8 26.2,71.7L25.3,72.1L25.4,72.3C26,73.3 27.3,75 28.4,76.4L29,77.1L29.1,76.7C29.1,76.5 29.2,75.5 29.3,74.7C29.4,72.5 29.5,71.8 30.3,70.4C30.9,69.2 31.7,68.3 32.8,67.8C33.3,67.6 34.4,67.2 34.5,67.2L34.5,68.5C34.4,70.8 34.2,71.8 33.5,73.1C32.9,74.4 32.1,75.2 30.3,76.6L29.3,77.4L29.8,77.9C31,79.3 32.3,80.6 34.4,82.6L34.7,82.9L34.4,82.5C34.1,81.9 33.8,80.8 33.7,80C33.6,79.3 33.6,78.9 33.6,77.5C33.6,76 33.6,75.8 33.8,75.2C34,74.2 34.4,73.5 35.1,72.9C35.7,72.3 36.4,71.9 36.9,71.8C37.1,71.8 37.1,71.8 37.3,72.3C37.9,73.8 38.2,75.7 38.1,77.2C37.9,79.8 36.9,81.9 35.5,82.8C35.3,82.9 35.1,83.1 35.1,83.1C35.1,83.2 36.5,84.4 37.4,85.1C38.1,85.7 40.3,87.2 40.4,87.1C40.4,87.1 40.3,86.9 40.2,86.6C39.7,85.4 39.4,83.7 39.3,82.2C39.2,80 39.7,78.3 40.6,77.3C41,76.9 41.7,76.5 42.1,76.4C42.3,76.4 42.3,76.4 42.5,76.8C43.2,78.5 43.5,80 43.4,81.9C43.3,84.2 42.6,86.1 41.4,87.2L41.1,87.5L41.9,87.9C44.3,89.3 48,90.9 51.1,92.1C51.7,92.3 52.2,92.5 52.2,92.5C52.3,92.6 51.7,94.1 51.6,94.1C51.4,94.3 51.1,94.1 50.8,94C46.8,92.5 45.1,91.8 42.6,90.5C41.5,90 40.7,89.5 40.6,89.5C40.6,89.5 40.4,89.7 40.3,89.9C40,90.4 39.2,91.1 38.6,91.5C36.9,92.6 34.4,93.2 31.7,93.1C30.5,93.1 29.6,92.9 28.7,92.6C27.6,92.2 27.5,92.2 27.8,91.5C28.5,90 30,89 32.3,88.5C33.1,88.3 35,88.3 36.2,88.4C37,88.5 38.5,88.7 39.2,88.9C39.4,89 39.7,89 39.8,89C39.9,89 39.6,88.8 39,88.4C37.2,87.3 35.7,86.2 34.3,85.1L33.7,84.7L33.5,85.1C32.9,86 31.8,86.7 30.4,87.1C29.5,87.3 28.6,87.4 27.3,87.4C24.9,87.4 23.1,87 21.5,86.3C21.2,86.1 21,86 21,85.9C21,85.7 21.4,85 21.7,84.7C22.3,84 23.4,83.4 24.8,83.2C25.6,83 27.5,83 28.4,83.1C29.7,83.3 31.4,83.7 32.7,84.2C33.1,84.3 33.4,84.5 33.4,84.4C33.4,84.4 32.9,83.9 32.4,83.4C31.8,82.9 30.7,81.8 30,81L28.6,79.6L28.3,79.9C27.1,81 25.3,81.5 23.3,81.4C20.6,81.3 17.2,79.8 15.4,78.1L14.7,77.6L15.1,77.2C15.7,76.5 16.6,76 17.7,75.7C18.2,75.6 18.4,75.5 19.6,75.6C20.8,75.6 21,75.6 21.7,75.8C22.1,75.9 22.8,76.1 23.1,76.2C24.3,76.6 26,77.6 27.3,78.5C27.9,78.9 27.9,78.9 27.6,78.7C26.3,77.2 25.5,76.2 24.9,75.4C24.2,74.4 22.6,72.1 22.6,72C22.6,72 22.5,72 22.3,72.2C21.9,72.5 20.9,73 20.3,73.2C19.4,73.4 18.4,73.5 17.4,73.4C14.3,73.1 11.4,71.9 9.2,69.9C8.9,69.6 8.6,69.3 8.6,69.3C8.6,69.2 9.4,68.5 9.9,68.2C11,67.6 12,67.3 13.3,67.3C14.4,67.3 15.2,67.4 16.4,67.8C18,68.3 19.8,69.4 21.4,70.6L22.1,71.2L21.6,70.2C21,69.1 20.4,67.7 20,66.5C19.8,66 19.7,65.7 19.7,65.6C19.7,65.6 19.5,65.6 19.2,65.7C17.2,66.2 14.5,65.8 12,64.6C10.1,63.6 8.2,61.9 6.9,59.8L6.7,59.5L7.1,59.3C8.1,58.9 9.7,58.7 11,58.9C12.7,59.2 14.4,60 16.1,61.4C16.9,62.1 18.3,63.5 19,64.3C19.3,64.7 19.5,65 19.6,65L19.6,64.9C19.5,64.8 19.1,62.5 18.9,61.3L18.7,60L18.3,59.9C16.6,59.6 14.2,58.3 12.5,56.9C10.7,55.5 9.6,53.9 8.8,51.5C8.6,50.8 8.3,49.6 8.2,49L8.1,48.6L8.9,48.6C11.5,48.7 13.8,50 15.3,52C16.2,53.2 16.6,54.1 17.5,56.7C17.8,57.7 18.2,58.7 18.3,58.9L18.5,59.3L18.5,58.9C18.3,57 18.3,56 18.4,54.5C18.4,53.5 18.5,52.5 18.5,52.2L18.5,51.7L18,51.5C15.8,50.6 13.3,47.8 12.3,45.1C12.1,44.4 11.8,43.5 11.7,42.6C11.6,41.9 11.5,39.4 11.6,38.8L11.6,38.4L11.9,38.5C14.5,39.2 16.5,41.1 17.5,43.6C18,44.9 18.6,47.8 18.6,49.4C18.6,49.9 18.7,49.8 18.9,48.4C19.1,47.3 19.7,44.9 20,43.9L20.2,43.3L19.9,43.2C19.5,43 18.7,42.2 18.2,41.5C17.3,40.3 16.4,38.4 16.1,37.2C15.7,35.9 15.7,35.4 15.7,33.7C15.7,32.7 15.7,31.9 15.8,31.6C16,30.4 16.1,29.9 16.2,29.9C16.3,29.8 17.1,30.2 17.8,30.6C19.5,31.7 20.6,33.5 21,35.8C21.2,36.8 21.2,38.6 21.1,40C21.1,40.6 21,41 21,41.1C21,41.1 21.2,40.8 21.4,40.3C21.9,39 22.8,37 23.4,35.8L24,34.6L23.6,34.4C23.1,34.1 21.9,33 21.5,32.3C20.7,31 20.1,29.2 19.9,27.2C19.7,25 20.3,22.6 21.5,21.3C21.7,21 21.8,21 21.9,21.1C22,21.1 22.3,21.4 22.6,21.7C23.9,22.9 24.7,24.5 25.2,26.4C25.4,27.3 25.4,29.3 25.3,30.4C25.2,31.3 24.9,32.5 24.7,33.2C24.642,33.315 24.618,33.43 24.608,33.488L24.6,33.5C24.6,33.542 24.6,33.531 24.608,33.488Z" style="fill:rgb(153,153,255);fill-rule:nonzero;"/>
        </g>
    </g>
</svg>
