<?xml version="1.0" encoding="UTF-8" standalone="no"?>
<!DOCTYPE svg PUBLIC "-//W3C//DTD SVG 1.1//EN" "http://www.w3.org/Graphics/SVG/1.1/DTD/svg11.dtd">
<svg width="100%" height="100%" viewBox="0 0 32 32" version="1.1" xmlns="http://www.w3.org/2000/svg" xmlns:xlink="http://www.w3.org/1999/xlink" xml:space="preserve" xmlns:serif="http://www.serif.com/" style="fill-rule:evenodd;clip-rule:evenodd;stroke-linejoin:round;stroke-miterlimit:2;">
    <g transform="matrix(1,0,0,1,-964,-528)">
        <g transform="matrix(1,0,0,1,256,0)">
            <g id="scroll-up" transform="matrix(1.10934,0,0,-1.10934,664.099,598.336)">
                <g transform="matrix(0.794293,0,0,0.794293,-724.41,-408.533)">
                    <path d="M980,564.084C986.577,564.084 991.916,569.423 991.916,576C991.916,582.577 986.577,587.916 980,587.916C973.423,587.916 968.084,582.577 968.084,576C968.084,569.423 973.423,564.084 980,564.084ZM980,565.316C974.104,565.316 969.316,570.104 969.316,576C969.316,581.896 974.104,586.684 980,586.684C985.896,586.684 990.684,581.896 990.684,576C990.684,570.104 985.896,565.316 980,565.316Z" style="fill:rgb(255,70,70);"/>
                </g>
                <g transform="matrix(0.59919,0,0,0.59919,-722.578,-520.251)">
                    <path d="M1295.21,958.577L1287.21,946.577C1287,946.27 1286.98,945.875 1287.16,945.55C1287.33,945.225 1287.67,945.022 1288.04,945.022L1304.04,945.022C1304.41,945.022 1304.75,945.225 1304.92,945.55C1305.1,945.875 1305.08,946.27 1304.87,946.577L1296.87,958.577C1296.69,958.855 1296.37,959.022 1296.04,959.022C1295.71,959.022 1295.39,958.855 1295.21,958.577Z" style="fill:rgb(255,70,70);"/>
                </g>
                <g transform="matrix(0.450718,0,0,0.450718,39.5741,34.5572)">
                    <rect x="0" y="0" width="64" height="64" style="fill:none;"/>
                </g>
            </g>
        </g>
    </g>
</svg>
